%TF.GenerationSoftware,KiCad,Pcbnew,9.0.5*%
%TF.CreationDate,2025-11-29T16:59:50-06:00*%
%TF.ProjectId,RFIndicator,5246496e-6469-4636-9174-6f722e6b6963,rev?*%
%TF.SameCoordinates,Original*%
%TF.FileFunction,Copper,L1,Top*%
%TF.FilePolarity,Positive*%
%FSLAX46Y46*%
G04 Gerber Fmt 4.6, Leading zero omitted, Abs format (unit mm)*
G04 Created by KiCad (PCBNEW 9.0.5) date 2025-11-29 16:59:50*
%MOMM*%
%LPD*%
G01*
G04 APERTURE LIST*
G04 Aperture macros list*
%AMRoundRect*
0 Rectangle with rounded corners*
0 $1 Rounding radius*
0 $2 $3 $4 $5 $6 $7 $8 $9 X,Y pos of 4 corners*
0 Add a 4 corners polygon primitive as box body*
4,1,4,$2,$3,$4,$5,$6,$7,$8,$9,$2,$3,0*
0 Add four circle primitives for the rounded corners*
1,1,$1+$1,$2,$3*
1,1,$1+$1,$4,$5*
1,1,$1+$1,$6,$7*
1,1,$1+$1,$8,$9*
0 Add four rect primitives between the rounded corners*
20,1,$1+$1,$2,$3,$4,$5,0*
20,1,$1+$1,$4,$5,$6,$7,0*
20,1,$1+$1,$6,$7,$8,$9,0*
20,1,$1+$1,$8,$9,$2,$3,0*%
G04 Aperture macros list end*
%TA.AperFunction,SMDPad,CuDef*%
%ADD10R,0.250000X0.325000*%
%TD*%
%TA.AperFunction,SMDPad,CuDef*%
%ADD11RoundRect,0.218750X0.218750X0.256250X-0.218750X0.256250X-0.218750X-0.256250X0.218750X-0.256250X0*%
%TD*%
%TA.AperFunction,ComponentPad*%
%ADD12R,1.700000X1.700000*%
%TD*%
%TA.AperFunction,ComponentPad*%
%ADD13C,1.700000*%
%TD*%
%TA.AperFunction,SMDPad,CuDef*%
%ADD14RoundRect,0.237500X-0.300000X-0.237500X0.300000X-0.237500X0.300000X0.237500X-0.300000X0.237500X0*%
%TD*%
%TA.AperFunction,SMDPad,CuDef*%
%ADD15RoundRect,0.237500X0.250000X0.237500X-0.250000X0.237500X-0.250000X-0.237500X0.250000X-0.237500X0*%
%TD*%
%TA.AperFunction,ComponentPad*%
%ADD16C,1.440000*%
%TD*%
%TA.AperFunction,SMDPad,CuDef*%
%ADD17RoundRect,0.150000X0.512500X0.150000X-0.512500X0.150000X-0.512500X-0.150000X0.512500X-0.150000X0*%
%TD*%
%TA.AperFunction,ComponentPad*%
%ADD18C,3.000000*%
%TD*%
%TA.AperFunction,SMDPad,CuDef*%
%ADD19R,1.000000X1.000000*%
%TD*%
%TA.AperFunction,SMDPad,CuDef*%
%ADD20RoundRect,0.100000X-0.712500X-0.100000X0.712500X-0.100000X0.712500X0.100000X-0.712500X0.100000X0*%
%TD*%
%TA.AperFunction,SMDPad,CuDef*%
%ADD21RoundRect,0.250000X-0.375000X-1.000000X0.375000X-1.000000X0.375000X1.000000X-0.375000X1.000000X0*%
%TD*%
%TA.AperFunction,SMDPad,CuDef*%
%ADD22RoundRect,0.237500X-0.237500X0.250000X-0.237500X-0.250000X0.237500X-0.250000X0.237500X0.250000X0*%
%TD*%
%TA.AperFunction,SMDPad,CuDef*%
%ADD23RoundRect,0.237500X0.237500X-0.250000X0.237500X0.250000X-0.237500X0.250000X-0.237500X-0.250000X0*%
%TD*%
%TA.AperFunction,SMDPad,CuDef*%
%ADD24RoundRect,0.237500X-0.250000X-0.237500X0.250000X-0.237500X0.250000X0.237500X-0.250000X0.237500X0*%
%TD*%
%TA.AperFunction,SMDPad,CuDef*%
%ADD25RoundRect,0.250000X-1.600000X0.425000X-1.600000X-0.425000X1.600000X-0.425000X1.600000X0.425000X0*%
%TD*%
%TA.AperFunction,SMDPad,CuDef*%
%ADD26RoundRect,0.250000X-1.350000X0.385000X-1.350000X-0.385000X1.350000X-0.385000X1.350000X0.385000X0*%
%TD*%
%TA.AperFunction,SMDPad,CuDef*%
%ADD27RoundRect,0.237500X0.300000X0.237500X-0.300000X0.237500X-0.300000X-0.237500X0.300000X-0.237500X0*%
%TD*%
%TA.AperFunction,ComponentPad*%
%ADD28R,2.000000X2.000000*%
%TD*%
%TA.AperFunction,ComponentPad*%
%ADD29C,2.000000*%
%TD*%
%TA.AperFunction,ViaPad*%
%ADD30C,0.600000*%
%TD*%
%TA.AperFunction,Conductor*%
%ADD31C,0.200000*%
%TD*%
G04 APERTURE END LIST*
D10*
%TO.P,FL1,5*%
%TO.N,GND*%
X61476000Y-108645000D03*
%TO.P,FL1,4*%
%TO.N,Net-(C3-Pad1)*%
X61976000Y-108645000D03*
%TO.P,FL1,3*%
%TO.N,GND*%
X61976000Y-109220000D03*
%TO.P,FL1,2*%
X61476000Y-109220000D03*
%TO.P,FL1,1*%
%TO.N,Net-(J1-In)*%
X60976000Y-108932500D03*
%TD*%
D11*
%TO.P,D2,1,K*%
%TO.N,Net-(D2-K)*%
X99847500Y-120396000D03*
%TO.P,D2,2,A*%
%TO.N,VCC*%
X98272500Y-120396000D03*
%TD*%
D12*
%TO.P,J2,1,Pin_1*%
%TO.N,GND*%
X99060000Y-114051000D03*
D13*
%TO.P,J2,2,Pin_2*%
%TO.N,Net-(D1-A)*%
X99060000Y-111511000D03*
%TD*%
D11*
%TO.P,D1,1,K*%
%TO.N,Net-(D1-K)*%
X99847500Y-106680000D03*
%TO.P,D1,2,A*%
%TO.N,Net-(D1-A)*%
X98272500Y-106680000D03*
%TD*%
D14*
%TO.P,C2,1*%
%TO.N,VCC*%
X90577500Y-116332000D03*
%TO.P,C2,2*%
%TO.N,GND*%
X92302500Y-116332000D03*
%TD*%
D15*
%TO.P,R1,1*%
%TO.N,Net-(D1-K)*%
X99972500Y-108458000D03*
%TO.P,R1,2*%
%TO.N,GND*%
X98147500Y-108458000D03*
%TD*%
D16*
%TO.P,RV1,1,1*%
%TO.N,VCC*%
X94488000Y-106212000D03*
%TO.P,RV1,2,2*%
%TO.N,Net-(U1-+)*%
X91948000Y-108752000D03*
%TO.P,RV1,3,3*%
%TO.N,GND*%
X89408000Y-106212000D03*
%TD*%
D15*
%TO.P,R2,1*%
%TO.N,Net-(D2-K)*%
X99972500Y-117856000D03*
%TO.P,R2,2*%
%TO.N,GND*%
X98147500Y-117856000D03*
%TD*%
D17*
%TO.P,U1,1*%
%TO.N,Net-(D1-A)*%
X92577500Y-113726000D03*
%TO.P,U1,2,V-*%
%TO.N,GND*%
X92577500Y-112776000D03*
%TO.P,U1,3,+*%
%TO.N,Net-(U1-+)*%
X92577500Y-111826000D03*
%TO.P,U1,4,-*%
%TO.N,Net-(U1--)*%
X90302500Y-111826000D03*
%TO.P,U1,5,V+*%
%TO.N,VCC*%
X90302500Y-113726000D03*
%TD*%
D18*
%TO.P,TP5,1,1*%
%TO.N,Net-(D1-A)*%
X99314000Y-102362000D03*
%TD*%
%TO.P,TP4,1,1*%
%TO.N,Net-(U1-+)*%
X90678000Y-102362000D03*
%TD*%
%TO.P,TP6,1,1*%
%TO.N,GND*%
X94996000Y-102362000D03*
%TD*%
%TO.P,TP7,1,1*%
%TO.N,GND*%
X58420000Y-101600000D03*
%TD*%
%TO.P,TP3,1,1*%
%TO.N,Net-(U1--)*%
X86360000Y-119380000D03*
%TD*%
%TO.P,TP2,1,1*%
%TO.N,Net-(U2-INHI)*%
X63500000Y-101600000D03*
%TD*%
%TO.P,TP1,1,1*%
%TO.N,VCC*%
X60706000Y-114808000D03*
%TD*%
D19*
%TO.P,TP9,1,1*%
%TO.N,Net-(C3-Pad1)*%
X62246000Y-107154500D03*
%TD*%
%TO.P,TP8,1,1*%
%TO.N,Net-(J1-In)*%
X60976000Y-107154500D03*
%TD*%
D20*
%TO.P,U2,1,VPOS*%
%TO.N,Net-(C1-Pad2)*%
X75865500Y-108245000D03*
%TO.P,U2,2,INHI*%
%TO.N,Net-(U2-INHI)*%
X75865500Y-108895000D03*
%TO.P,U2,3,INLO*%
%TO.N,Net-(U2-INLO)*%
X75865500Y-109545000D03*
%TO.P,U2,4,VPOS*%
%TO.N,Net-(C5-Pad1)*%
X75865500Y-110195000D03*
%TO.P,U2,5,PWDN*%
%TO.N,GND*%
X80090500Y-110195000D03*
%TO.P,U2,6,COMM*%
X80090500Y-109545000D03*
%TO.P,U2,7,VSET*%
%TO.N,Net-(U2-VOUT)*%
X80090500Y-108895000D03*
%TO.P,U2,8,VOUT*%
X80090500Y-108245000D03*
%TD*%
D21*
%TO.P,SW1,1,A*%
%TO.N,VCC*%
X60746000Y-119424000D03*
%TO.P,SW1,2,B*%
%TO.N,Net-(BT1-+)*%
X63246000Y-119424000D03*
%TO.P,SW1,3,C*%
%TO.N,unconnected-(SW1-C-Pad3)*%
X65746000Y-119424000D03*
%TD*%
D22*
%TO.P,R7,1*%
%TO.N,Net-(U2-INHI)*%
X71120000Y-108307500D03*
%TO.P,R7,2*%
%TO.N,Net-(U2-INLO)*%
X71120000Y-110132500D03*
%TD*%
D23*
%TO.P,R6,1*%
%TO.N,GND*%
X85852000Y-112672500D03*
%TO.P,R6,2*%
%TO.N,Net-(U1--)*%
X85852000Y-110847500D03*
%TD*%
D24*
%TO.P,R5,1*%
%TO.N,Net-(U2-VOUT)*%
X83923500Y-108458000D03*
%TO.P,R5,2*%
%TO.N,Net-(U1--)*%
X85748500Y-108458000D03*
%TD*%
D15*
%TO.P,R4,1*%
%TO.N,VCC*%
X77366500Y-112776000D03*
%TO.P,R4,2*%
%TO.N,Net-(C5-Pad1)*%
X75541500Y-112776000D03*
%TD*%
%TO.P,R3,1*%
%TO.N,VCC*%
X77470000Y-105664000D03*
%TO.P,R3,2*%
%TO.N,Net-(C1-Pad2)*%
X75645000Y-105664000D03*
%TD*%
D25*
%TO.P,J1,2,Ext*%
%TO.N,GND*%
X56130000Y-105125000D03*
X56130000Y-110775000D03*
D26*
%TO.P,J1,1,In*%
%TO.N,Net-(J1-In)*%
X55880000Y-107950000D03*
%TD*%
D14*
%TO.P,C5,1*%
%TO.N,Net-(C5-Pad1)*%
X75591500Y-114554000D03*
%TO.P,C5,2*%
%TO.N,GND*%
X77316500Y-114554000D03*
%TD*%
%TO.P,C4,2*%
%TO.N,Net-(U2-INLO)*%
X68680500Y-110490000D03*
%TO.P,C4,1*%
%TO.N,GND*%
X66955500Y-110490000D03*
%TD*%
%TO.P,C3,1*%
%TO.N,Net-(C3-Pad1)*%
X66955500Y-107950000D03*
%TO.P,C3,2*%
%TO.N,Net-(U2-INHI)*%
X68680500Y-107950000D03*
%TD*%
D27*
%TO.P,C1,1*%
%TO.N,GND*%
X77316500Y-103886000D03*
%TO.P,C1,2*%
%TO.N,Net-(C1-Pad2)*%
X75591500Y-103886000D03*
%TD*%
D28*
%TO.P,BT1,1,+*%
%TO.N,Net-(BT1-+)*%
X75692000Y-121638000D03*
D29*
%TO.P,BT1,2,-*%
%TO.N,GND*%
X75692000Y-100838000D03*
%TD*%
D30*
%TO.N,GND*%
X78740000Y-103886000D03*
X77216000Y-102616000D03*
X77216000Y-115824000D03*
X78740000Y-114554000D03*
X78486000Y-110236000D03*
X78486000Y-109474000D03*
X81788000Y-110744000D03*
X81788000Y-109982000D03*
X93980000Y-112776000D03*
X91440000Y-112776000D03*
X92202000Y-117856000D03*
X93726000Y-116332000D03*
X100330000Y-110236000D03*
X97790000Y-110236000D03*
X96520000Y-108458000D03*
X58166000Y-108712000D03*
X59182000Y-108712000D03*
X60198000Y-108712000D03*
X60198000Y-109728000D03*
X60960000Y-110236000D03*
X61976000Y-110236000D03*
X62992000Y-109728000D03*
X63246000Y-108712000D03*
X64262000Y-108712000D03*
X65278000Y-108712000D03*
X66040000Y-108966000D03*
X67056000Y-108966000D03*
X68072000Y-108966000D03*
X69088000Y-108966000D03*
X70104000Y-108966000D03*
X70358000Y-111252000D03*
X71120000Y-111506000D03*
X72898000Y-110998000D03*
X73660000Y-110236000D03*
X74422000Y-110236000D03*
X76454000Y-111252000D03*
X77470000Y-110744000D03*
X77470000Y-109982000D03*
X77470000Y-109220000D03*
X77470000Y-108458000D03*
X77470000Y-107696000D03*
X76708000Y-107188000D03*
X74422000Y-108204000D03*
X73660000Y-108204000D03*
X72898000Y-107442000D03*
X71374000Y-107188000D03*
X70358000Y-107442000D03*
X69596000Y-106934000D03*
X66802000Y-106934000D03*
X65786000Y-107188000D03*
X64770000Y-107188000D03*
X63500000Y-107188000D03*
X63500000Y-106172000D03*
X62484000Y-105918000D03*
X61468000Y-105918000D03*
X60452000Y-105918000D03*
X59690000Y-106426000D03*
X59182000Y-107188000D03*
X58166000Y-107188000D03*
%TO.N,VCC*%
X96774000Y-120396000D03*
X90170000Y-114808000D03*
X78740000Y-105664000D03*
X78740000Y-112776000D03*
%TD*%
D31*
%TO.N,VCC*%
X77470000Y-105664000D02*
X78740000Y-105664000D01*
%TO.N,Net-(C1-Pad2)*%
X75645000Y-108024500D02*
X75865500Y-108245000D01*
X75645000Y-105664000D02*
X75645000Y-108024500D01*
X75645000Y-103939500D02*
X75591500Y-103886000D01*
X75645000Y-105664000D02*
X75645000Y-103939500D01*
%TO.N,Net-(C5-Pad1)*%
X75541500Y-110519000D02*
X75541500Y-112776000D01*
X75865500Y-110195000D02*
X75541500Y-110519000D01*
X75541500Y-114504000D02*
X75591500Y-114554000D01*
X75541500Y-112776000D02*
X75541500Y-114504000D01*
%TO.N,VCC*%
X77366500Y-112776000D02*
X78740000Y-112776000D01*
%TO.N,GND*%
X81351000Y-109545000D02*
X81534000Y-109728000D01*
X80090500Y-109545000D02*
X81351000Y-109545000D01*
X78486000Y-109474000D02*
X78557000Y-109545000D01*
X80090500Y-109545000D02*
X78557000Y-109545000D01*
X61476000Y-109220000D02*
X61976000Y-109220000D01*
X61476000Y-109974000D02*
X61468000Y-109982000D01*
X61476000Y-109220000D02*
X61476000Y-109974000D01*
X61476000Y-108645000D02*
X61476000Y-109220000D01*
%TO.N,VCC*%
X96774000Y-120396000D02*
X98272500Y-120396000D01*
X90577500Y-115215500D02*
X90170000Y-114808000D01*
X90577500Y-116332000D02*
X90577500Y-115215500D01*
X90170000Y-113858500D02*
X90302500Y-113726000D01*
X90170000Y-114808000D02*
X90170000Y-113858500D01*
%TO.N,Net-(U2-INHI)*%
X68680500Y-106780500D02*
X63500000Y-101600000D01*
X68680500Y-107950000D02*
X68680500Y-106780500D01*
%TO.N,Net-(U2-INLO)*%
X69953500Y-110132500D02*
X71120000Y-110132500D01*
X68680500Y-110490000D02*
X69596000Y-110490000D01*
X69596000Y-110490000D02*
X69953500Y-110132500D01*
%TO.N,Net-(U2-INHI)*%
X70028750Y-108307500D02*
X71120000Y-108307500D01*
X69671250Y-107950000D02*
X70028750Y-108307500D01*
X68680500Y-107950000D02*
X69671250Y-107950000D01*
%TO.N,Net-(U2-INLO)*%
X72747500Y-110132500D02*
X71120000Y-110132500D01*
X73335000Y-109545000D02*
X72747500Y-110132500D01*
X75865500Y-109545000D02*
X73335000Y-109545000D01*
%TO.N,Net-(U2-INHI)*%
X72747500Y-108307500D02*
X71120000Y-108307500D01*
X73335000Y-108895000D02*
X72747500Y-108307500D01*
X75865500Y-108895000D02*
X73335000Y-108895000D01*
%TO.N,Net-(C3-Pad1)*%
X62246000Y-107154500D02*
X62246000Y-107204000D01*
X62246000Y-107204000D02*
X62992000Y-107950000D01*
X62992000Y-107950000D02*
X66955500Y-107950000D01*
X62297000Y-108645000D02*
X62992000Y-107950000D01*
X61976000Y-108645000D02*
X62297000Y-108645000D01*
%TO.N,Net-(J1-In)*%
X60976000Y-107966000D02*
X60960000Y-107950000D01*
X60976000Y-108932500D02*
X60976000Y-107966000D01*
X60976000Y-107934000D02*
X60976000Y-107154500D01*
X60960000Y-107950000D02*
X60976000Y-107934000D01*
X55880000Y-107950000D02*
X60960000Y-107950000D01*
%TO.N,VCC*%
X60746000Y-119424000D02*
X60746000Y-114848000D01*
X60746000Y-114848000D02*
X60706000Y-114808000D01*
%TO.N,Net-(BT1-+)*%
X63246000Y-117602000D02*
X63246000Y-119424000D01*
X64008000Y-116840000D02*
X63246000Y-117602000D01*
X70894000Y-116840000D02*
X64008000Y-116840000D01*
X75692000Y-121638000D02*
X70894000Y-116840000D01*
%TO.N,Net-(U1--)*%
X87884000Y-111892000D02*
X87884000Y-117856000D01*
X87950000Y-111826000D02*
X87884000Y-111892000D01*
X87884000Y-117856000D02*
X86360000Y-119380000D01*
%TO.N,Net-(U1-+)*%
X92202000Y-104394000D02*
X92202000Y-108966000D01*
X90678000Y-102870000D02*
X92202000Y-104394000D01*
X92202000Y-111450500D02*
X92577500Y-111826000D01*
X92202000Y-108966000D02*
X92202000Y-111450500D01*
%TO.N,Net-(U1--)*%
X87950000Y-111826000D02*
X90302500Y-111826000D01*
X86971500Y-110847500D02*
X87950000Y-111826000D01*
X85852000Y-110847500D02*
X86971500Y-110847500D01*
X85748500Y-110744000D02*
X85852000Y-110847500D01*
X85748500Y-108458000D02*
X85748500Y-110744000D01*
%TO.N,Net-(U2-VOUT)*%
X80090500Y-108245000D02*
X81829000Y-108245000D01*
X81829000Y-108245000D02*
X82042000Y-108458000D01*
X82042000Y-108458000D02*
X83923500Y-108458000D01*
X81605000Y-108895000D02*
X82042000Y-108458000D01*
X80090500Y-108895000D02*
X81605000Y-108895000D01*
%TO.N,Net-(D2-K)*%
X99972500Y-120271000D02*
X99847500Y-120396000D01*
X99972500Y-117856000D02*
X99972500Y-120271000D01*
%TO.N,Net-(D1-K)*%
X99847500Y-108333000D02*
X99972500Y-108458000D01*
X99847500Y-106680000D02*
X99847500Y-108333000D01*
%TO.N,Net-(D1-A)*%
X99314000Y-105638500D02*
X98272500Y-106680000D01*
X99314000Y-102870000D02*
X99314000Y-105638500D01*
X96774000Y-111506000D02*
X96779000Y-111511000D01*
X96779000Y-111511000D02*
X99060000Y-111511000D01*
X94554000Y-113726000D02*
X96774000Y-111506000D01*
X92577500Y-113726000D02*
X94554000Y-113726000D01*
%TD*%
%TA.AperFunction,Conductor*%
%TO.N,GND*%
G36*
X101042539Y-97040185D02*
G01*
X101088294Y-97092989D01*
X101099500Y-97144500D01*
X101099500Y-101490802D01*
X101079815Y-101557841D01*
X101027011Y-101603596D01*
X100957853Y-101613540D01*
X100894297Y-101584515D01*
X100868113Y-101552802D01*
X100819675Y-101468905D01*
X100772611Y-101387388D01*
X100772608Y-101387385D01*
X100772607Y-101387382D01*
X100663154Y-101244742D01*
X100632919Y-101205339D01*
X100632918Y-101205338D01*
X100632911Y-101205330D01*
X100470670Y-101043089D01*
X100470661Y-101043081D01*
X100288617Y-100903392D01*
X100246060Y-100878822D01*
X100089888Y-100788656D01*
X100089876Y-100788650D01*
X99877887Y-100700842D01*
X99857905Y-100695488D01*
X99656238Y-100641452D01*
X99618215Y-100636446D01*
X99428741Y-100611500D01*
X99428734Y-100611500D01*
X99199266Y-100611500D01*
X99199258Y-100611500D01*
X98982715Y-100640009D01*
X98971762Y-100641452D01*
X98878076Y-100666554D01*
X98750112Y-100700842D01*
X98538123Y-100788650D01*
X98538109Y-100788657D01*
X98339382Y-100903392D01*
X98157338Y-101043081D01*
X97995081Y-101205338D01*
X97855392Y-101387382D01*
X97740657Y-101586109D01*
X97740650Y-101586123D01*
X97652842Y-101798112D01*
X97652842Y-101798113D01*
X97603757Y-101981305D01*
X97593453Y-102019759D01*
X97593451Y-102019770D01*
X97563500Y-102247258D01*
X97563500Y-102476741D01*
X97577196Y-102580767D01*
X97593452Y-102704238D01*
X97629855Y-102840097D01*
X97652842Y-102925887D01*
X97740650Y-103137876D01*
X97740657Y-103137890D01*
X97804443Y-103248370D01*
X97846114Y-103320548D01*
X97855392Y-103336617D01*
X97995081Y-103518661D01*
X97995089Y-103518670D01*
X98157330Y-103680911D01*
X98157338Y-103680918D01*
X98339382Y-103820607D01*
X98339385Y-103820608D01*
X98339388Y-103820611D01*
X98538112Y-103935344D01*
X98538114Y-103935344D01*
X98538118Y-103935347D01*
X98750103Y-104023154D01*
X98750113Y-104023158D01*
X98871595Y-104055708D01*
X98931253Y-104092071D01*
X98961783Y-104154918D01*
X98963500Y-104175482D01*
X98963500Y-105441956D01*
X98943815Y-105508995D01*
X98927181Y-105529637D01*
X98538637Y-105918181D01*
X98477314Y-105951666D01*
X98450956Y-105954500D01*
X98008855Y-105954500D01*
X97952975Y-105960509D01*
X97826552Y-106007662D01*
X97826549Y-106007664D01*
X97718528Y-106088528D01*
X97637664Y-106196549D01*
X97637662Y-106196552D01*
X97590509Y-106322975D01*
X97584500Y-106378855D01*
X97584500Y-106981144D01*
X97590509Y-107037024D01*
X97637662Y-107163447D01*
X97637664Y-107163450D01*
X97718528Y-107271472D01*
X97742717Y-107289579D01*
X97784588Y-107345511D01*
X97789574Y-107415202D01*
X97756089Y-107476526D01*
X97707411Y-107506552D01*
X97583699Y-107547546D01*
X97583688Y-107547551D01*
X97436965Y-107638052D01*
X97436961Y-107638055D01*
X97315055Y-107759961D01*
X97315052Y-107759965D01*
X97224551Y-107906688D01*
X97224546Y-107906699D01*
X97170319Y-108070347D01*
X97160000Y-108171345D01*
X97160000Y-108208000D01*
X98023500Y-108208000D01*
X98090539Y-108227685D01*
X98136294Y-108280489D01*
X98147500Y-108332000D01*
X98147500Y-108458000D01*
X98273500Y-108458000D01*
X98340539Y-108477685D01*
X98386294Y-108530489D01*
X98397500Y-108582000D01*
X98397500Y-109432999D01*
X98446640Y-109432999D01*
X98446654Y-109432998D01*
X98547652Y-109422680D01*
X98711300Y-109368453D01*
X98711311Y-109368448D01*
X98858034Y-109277947D01*
X98858038Y-109277944D01*
X98979944Y-109156038D01*
X98979947Y-109156034D01*
X99070448Y-109009311D01*
X99070451Y-109009303D01*
X99080873Y-108977853D01*
X99120645Y-108920407D01*
X99185160Y-108893583D01*
X99253936Y-108905897D01*
X99297846Y-108942543D01*
X99370242Y-109039251D01*
X99373884Y-109044116D01*
X99375733Y-109045500D01*
X99474816Y-109119674D01*
X99486222Y-109128212D01*
X99560816Y-109156034D01*
X99617700Y-109177251D01*
X99675809Y-109183499D01*
X99675826Y-109183500D01*
X100269174Y-109183500D01*
X100269190Y-109183499D01*
X100327299Y-109177251D01*
X100358697Y-109165540D01*
X100458778Y-109128212D01*
X100571116Y-109044116D01*
X100655212Y-108931778D01*
X100704251Y-108800299D01*
X100706563Y-108778793D01*
X100710499Y-108742190D01*
X100710500Y-108742173D01*
X100710500Y-108173826D01*
X100710499Y-108173809D01*
X100704251Y-108115700D01*
X100687335Y-108070347D01*
X100655212Y-107984222D01*
X100652715Y-107980887D01*
X100620720Y-107938147D01*
X100571116Y-107871884D01*
X100481004Y-107804426D01*
X100458780Y-107787789D01*
X100458778Y-107787788D01*
X100327299Y-107738749D01*
X100327290Y-107738748D01*
X100308740Y-107736753D01*
X100306622Y-107735875D01*
X100304353Y-107736202D01*
X100274496Y-107722566D01*
X100244190Y-107710012D01*
X100242883Y-107708129D01*
X100240797Y-107707177D01*
X100223051Y-107679563D01*
X100204344Y-107652618D01*
X100203875Y-107649725D01*
X100203023Y-107648399D01*
X100198000Y-107613464D01*
X100198000Y-107474031D01*
X100217685Y-107406992D01*
X100270489Y-107361237D01*
X100278657Y-107357853D01*
X100293450Y-107352336D01*
X100401472Y-107271472D01*
X100482336Y-107163450D01*
X100529491Y-107037022D01*
X100535053Y-106985287D01*
X100535499Y-106981144D01*
X100535500Y-106981129D01*
X100535500Y-106378870D01*
X100535499Y-106378855D01*
X100532645Y-106352318D01*
X100529491Y-106322978D01*
X100496437Y-106234356D01*
X100482337Y-106196552D01*
X100482335Y-106196549D01*
X100467689Y-106176984D01*
X100401472Y-106088528D01*
X100293450Y-106007664D01*
X100293447Y-106007662D01*
X100167024Y-105960509D01*
X100111144Y-105954500D01*
X100111130Y-105954500D01*
X99751055Y-105954500D01*
X99684016Y-105934815D01*
X99638261Y-105882011D01*
X99628317Y-105812853D01*
X99632250Y-105794984D01*
X99636409Y-105781070D01*
X99640614Y-105773788D01*
X99657667Y-105710144D01*
X99664500Y-105684644D01*
X99664500Y-104175482D01*
X99684185Y-104108443D01*
X99736989Y-104062688D01*
X99756396Y-104055710D01*
X99877887Y-104023158D01*
X100054503Y-103950001D01*
X100089881Y-103935347D01*
X100089881Y-103935346D01*
X100089888Y-103935344D01*
X100288612Y-103820611D01*
X100470661Y-103680919D01*
X100470665Y-103680914D01*
X100470670Y-103680911D01*
X100632911Y-103518670D01*
X100632914Y-103518665D01*
X100632919Y-103518661D01*
X100772611Y-103336612D01*
X100868113Y-103171196D01*
X100918680Y-103122981D01*
X100987287Y-103109758D01*
X101052152Y-103135726D01*
X101092680Y-103192641D01*
X101099500Y-103233197D01*
X101099500Y-123835500D01*
X101079815Y-123902539D01*
X101027011Y-123948294D01*
X100975500Y-123959500D01*
X53964500Y-123959500D01*
X53897461Y-123939815D01*
X53851706Y-123887011D01*
X53840500Y-123835500D01*
X53840500Y-122242995D01*
X59145499Y-122242995D01*
X59172418Y-122378322D01*
X59172421Y-122378332D01*
X59225221Y-122505804D01*
X59225228Y-122505817D01*
X59301885Y-122620541D01*
X59301888Y-122620545D01*
X59399454Y-122718111D01*
X59399458Y-122718114D01*
X59514182Y-122794771D01*
X59514195Y-122794778D01*
X59641667Y-122847578D01*
X59641672Y-122847580D01*
X59641676Y-122847580D01*
X59641677Y-122847581D01*
X59777004Y-122874500D01*
X59777007Y-122874500D01*
X59914995Y-122874500D01*
X60006041Y-122856389D01*
X60050328Y-122847580D01*
X60177811Y-122794775D01*
X60292542Y-122718114D01*
X60390114Y-122620542D01*
X60466775Y-122505811D01*
X60519580Y-122378328D01*
X60546500Y-122242995D01*
X65945499Y-122242995D01*
X65972418Y-122378322D01*
X65972421Y-122378332D01*
X66025221Y-122505804D01*
X66025228Y-122505817D01*
X66101885Y-122620541D01*
X66101888Y-122620545D01*
X66199454Y-122718111D01*
X66199458Y-122718114D01*
X66314182Y-122794771D01*
X66314195Y-122794778D01*
X66441667Y-122847578D01*
X66441672Y-122847580D01*
X66441676Y-122847580D01*
X66441677Y-122847581D01*
X66577004Y-122874500D01*
X66577007Y-122874500D01*
X66714995Y-122874500D01*
X66806041Y-122856389D01*
X66850328Y-122847580D01*
X66977811Y-122794775D01*
X67092542Y-122718114D01*
X67190114Y-122620542D01*
X67266775Y-122505811D01*
X67319580Y-122378328D01*
X67346500Y-122242993D01*
X67346500Y-122105007D01*
X67346500Y-122105004D01*
X67319581Y-121969677D01*
X67319580Y-121969676D01*
X67319580Y-121969672D01*
X67319578Y-121969667D01*
X67266778Y-121842195D01*
X67266771Y-121842182D01*
X67190114Y-121727458D01*
X67190111Y-121727454D01*
X67092545Y-121629888D01*
X67092541Y-121629885D01*
X66977817Y-121553228D01*
X66977804Y-121553221D01*
X66850332Y-121500421D01*
X66850322Y-121500418D01*
X66714995Y-121473500D01*
X66714993Y-121473500D01*
X66577007Y-121473500D01*
X66577005Y-121473500D01*
X66441677Y-121500418D01*
X66441667Y-121500421D01*
X66314195Y-121553221D01*
X66314182Y-121553228D01*
X66199458Y-121629885D01*
X66199454Y-121629888D01*
X66101888Y-121727454D01*
X66101885Y-121727458D01*
X66025228Y-121842182D01*
X66025221Y-121842195D01*
X65972421Y-121969667D01*
X65972418Y-121969677D01*
X65945500Y-122105004D01*
X65945500Y-122105007D01*
X65945500Y-122242993D01*
X65945500Y-122242995D01*
X65945499Y-122242995D01*
X60546500Y-122242995D01*
X60546500Y-122242993D01*
X60546500Y-122105007D01*
X60546500Y-122105004D01*
X60519581Y-121969677D01*
X60519580Y-121969676D01*
X60519580Y-121969672D01*
X60519578Y-121969667D01*
X60466778Y-121842195D01*
X60466771Y-121842182D01*
X60390114Y-121727458D01*
X60390111Y-121727454D01*
X60292545Y-121629888D01*
X60292541Y-121629885D01*
X60177817Y-121553228D01*
X60177804Y-121553221D01*
X60050332Y-121500421D01*
X60050322Y-121500418D01*
X59914995Y-121473500D01*
X59914993Y-121473500D01*
X59777007Y-121473500D01*
X59777005Y-121473500D01*
X59641677Y-121500418D01*
X59641667Y-121500421D01*
X59514195Y-121553221D01*
X59514182Y-121553228D01*
X59399458Y-121629885D01*
X59399454Y-121629888D01*
X59301888Y-121727454D01*
X59301885Y-121727458D01*
X59225228Y-121842182D01*
X59225221Y-121842195D01*
X59172421Y-121969667D01*
X59172418Y-121969677D01*
X59145500Y-122105004D01*
X59145500Y-122105007D01*
X59145500Y-122242993D01*
X59145500Y-122242995D01*
X59145499Y-122242995D01*
X53840500Y-122242995D01*
X53840500Y-114693258D01*
X58955500Y-114693258D01*
X58955500Y-114922741D01*
X58976232Y-115080209D01*
X58985452Y-115150238D01*
X59018413Y-115273251D01*
X59044842Y-115371887D01*
X59132650Y-115583876D01*
X59132657Y-115583890D01*
X59247392Y-115782617D01*
X59387081Y-115964661D01*
X59387089Y-115964670D01*
X59549330Y-116126911D01*
X59549338Y-116126918D01*
X59731382Y-116266607D01*
X59731385Y-116266608D01*
X59731388Y-116266611D01*
X59930112Y-116381344D01*
X59930117Y-116381346D01*
X59930123Y-116381349D01*
X60008429Y-116413784D01*
X60142113Y-116469158D01*
X60303594Y-116512426D01*
X60363254Y-116548791D01*
X60393783Y-116611638D01*
X60395500Y-116632201D01*
X60395500Y-117804336D01*
X60375815Y-117871375D01*
X60323011Y-117917130D01*
X60284754Y-117927626D01*
X60263516Y-117929909D01*
X60128671Y-117980202D01*
X60128664Y-117980206D01*
X60013455Y-118066452D01*
X60013452Y-118066455D01*
X59927206Y-118181664D01*
X59927202Y-118181671D01*
X59876908Y-118316517D01*
X59870529Y-118375853D01*
X59870501Y-118376123D01*
X59870500Y-118376135D01*
X59870500Y-120471870D01*
X59870501Y-120471876D01*
X59876908Y-120531483D01*
X59927202Y-120666328D01*
X59927206Y-120666335D01*
X60013452Y-120781544D01*
X60013455Y-120781547D01*
X60128664Y-120867793D01*
X60128671Y-120867797D01*
X60263517Y-120918091D01*
X60263516Y-120918091D01*
X60270444Y-120918835D01*
X60323127Y-120924500D01*
X61168872Y-120924499D01*
X61228483Y-120918091D01*
X61363331Y-120867796D01*
X61478546Y-120781546D01*
X61564796Y-120666331D01*
X61615091Y-120531483D01*
X61621500Y-120471873D01*
X61621499Y-118376135D01*
X62370500Y-118376135D01*
X62370500Y-120471870D01*
X62370501Y-120471876D01*
X62376908Y-120531483D01*
X62427202Y-120666328D01*
X62427206Y-120666335D01*
X62513452Y-120781544D01*
X62513455Y-120781547D01*
X62628664Y-120867793D01*
X62628671Y-120867797D01*
X62763517Y-120918091D01*
X62763516Y-120918091D01*
X62770444Y-120918835D01*
X62823127Y-120924500D01*
X63668872Y-120924499D01*
X63728483Y-120918091D01*
X63863331Y-120867796D01*
X63978546Y-120781546D01*
X64064796Y-120666331D01*
X64115091Y-120531483D01*
X64121500Y-120471873D01*
X64121499Y-118376135D01*
X64870500Y-118376135D01*
X64870500Y-120471870D01*
X64870501Y-120471876D01*
X64876908Y-120531483D01*
X64927202Y-120666328D01*
X64927206Y-120666335D01*
X65013452Y-120781544D01*
X65013455Y-120781547D01*
X65128664Y-120867793D01*
X65128671Y-120867797D01*
X65263517Y-120918091D01*
X65263516Y-120918091D01*
X65270444Y-120918835D01*
X65323127Y-120924500D01*
X66168872Y-120924499D01*
X66228483Y-120918091D01*
X66363331Y-120867796D01*
X66478546Y-120781546D01*
X66564796Y-120666331D01*
X66615091Y-120531483D01*
X66621500Y-120471873D01*
X66621499Y-118376128D01*
X66615091Y-118316517D01*
X66605791Y-118291583D01*
X66564797Y-118181671D01*
X66564793Y-118181664D01*
X66478547Y-118066455D01*
X66478544Y-118066452D01*
X66363335Y-117980206D01*
X66363328Y-117980202D01*
X66228482Y-117929908D01*
X66228483Y-117929908D01*
X66168883Y-117923501D01*
X66168881Y-117923500D01*
X66168873Y-117923500D01*
X66168864Y-117923500D01*
X65323129Y-117923500D01*
X65323123Y-117923501D01*
X65263516Y-117929908D01*
X65128671Y-117980202D01*
X65128664Y-117980206D01*
X65013455Y-118066452D01*
X65013452Y-118066455D01*
X64927206Y-118181664D01*
X64927202Y-118181671D01*
X64876908Y-118316517D01*
X64870529Y-118375853D01*
X64870501Y-118376123D01*
X64870500Y-118376135D01*
X64121499Y-118376135D01*
X64121499Y-118376128D01*
X64115091Y-118316517D01*
X64105791Y-118291583D01*
X64064797Y-118181671D01*
X64064793Y-118181664D01*
X63978547Y-118066455D01*
X63978544Y-118066452D01*
X63863335Y-117980206D01*
X63863328Y-117980202D01*
X63728483Y-117929908D01*
X63707243Y-117927625D01*
X63705124Y-117926747D01*
X63702853Y-117927074D01*
X63672997Y-117913439D01*
X63642692Y-117900886D01*
X63641384Y-117899002D01*
X63639297Y-117898049D01*
X63621554Y-117870441D01*
X63602845Y-117843493D01*
X63602375Y-117840598D01*
X63601523Y-117839271D01*
X63596500Y-117804336D01*
X63596500Y-117798544D01*
X63616185Y-117731505D01*
X63632819Y-117710863D01*
X64116863Y-117226819D01*
X64178186Y-117193334D01*
X64204544Y-117190500D01*
X70697456Y-117190500D01*
X70764495Y-117210185D01*
X70785137Y-117226819D01*
X74405181Y-120846863D01*
X74438666Y-120908186D01*
X74441500Y-120934544D01*
X74441500Y-122662678D01*
X74456032Y-122735735D01*
X74456033Y-122735739D01*
X74456034Y-122735740D01*
X74511399Y-122818601D01*
X74594260Y-122873966D01*
X74594264Y-122873967D01*
X74667321Y-122888499D01*
X74667324Y-122888500D01*
X74667326Y-122888500D01*
X76716676Y-122888500D01*
X76716677Y-122888499D01*
X76789740Y-122873966D01*
X76872601Y-122818601D01*
X76927966Y-122735740D01*
X76942500Y-122662674D01*
X76942500Y-120613326D01*
X76942500Y-120613323D01*
X76942499Y-120613321D01*
X76927967Y-120540264D01*
X76927966Y-120540260D01*
X76922101Y-120531482D01*
X76872601Y-120457399D01*
X76789740Y-120402034D01*
X76789739Y-120402033D01*
X76789735Y-120402032D01*
X76716677Y-120387500D01*
X76716674Y-120387500D01*
X74988544Y-120387500D01*
X74921505Y-120367815D01*
X74900863Y-120351181D01*
X73814940Y-119265258D01*
X84609500Y-119265258D01*
X84609500Y-119494741D01*
X84633432Y-119676509D01*
X84639452Y-119722238D01*
X84661502Y-119804529D01*
X84698842Y-119943887D01*
X84786650Y-120155876D01*
X84786657Y-120155890D01*
X84901392Y-120354617D01*
X85041081Y-120536661D01*
X85041089Y-120536670D01*
X85203330Y-120698911D01*
X85203338Y-120698918D01*
X85203339Y-120698919D01*
X85249077Y-120734015D01*
X85385382Y-120838607D01*
X85385385Y-120838608D01*
X85385388Y-120838611D01*
X85584112Y-120953344D01*
X85584117Y-120953346D01*
X85584123Y-120953349D01*
X85666504Y-120987472D01*
X85796113Y-121041158D01*
X86017762Y-121100548D01*
X86245266Y-121130500D01*
X86245273Y-121130500D01*
X86474727Y-121130500D01*
X86474734Y-121130500D01*
X86702238Y-121100548D01*
X86923887Y-121041158D01*
X87135888Y-120953344D01*
X87334612Y-120838611D01*
X87516661Y-120698919D01*
X87516665Y-120698914D01*
X87516670Y-120698911D01*
X87678911Y-120536670D01*
X87678914Y-120536665D01*
X87678919Y-120536661D01*
X87818611Y-120354612D01*
X87836559Y-120323525D01*
X96223500Y-120323525D01*
X96223500Y-120468475D01*
X96261016Y-120608485D01*
X96261017Y-120608488D01*
X96333488Y-120734011D01*
X96333490Y-120734013D01*
X96333491Y-120734015D01*
X96435985Y-120836509D01*
X96435986Y-120836510D01*
X96435988Y-120836511D01*
X96561511Y-120908982D01*
X96561512Y-120908982D01*
X96561515Y-120908984D01*
X96701525Y-120946500D01*
X96701528Y-120946500D01*
X96846472Y-120946500D01*
X96846475Y-120946500D01*
X96986485Y-120908984D01*
X97112015Y-120836509D01*
X97165705Y-120782819D01*
X97192632Y-120768115D01*
X97218451Y-120751523D01*
X97224651Y-120750631D01*
X97227028Y-120749334D01*
X97253386Y-120746500D01*
X97501981Y-120746500D01*
X97569020Y-120766185D01*
X97614775Y-120818989D01*
X97618163Y-120827166D01*
X97637663Y-120879449D01*
X97637664Y-120879450D01*
X97718528Y-120987472D01*
X97826549Y-121068335D01*
X97826552Y-121068337D01*
X97912914Y-121100548D01*
X97952978Y-121115491D01*
X97982318Y-121118645D01*
X98008855Y-121121499D01*
X98008870Y-121121500D01*
X98536130Y-121121500D01*
X98536144Y-121121499D01*
X98558023Y-121119146D01*
X98592022Y-121115491D01*
X98718450Y-121068336D01*
X98826472Y-120987472D01*
X98907336Y-120879450D01*
X98929887Y-120818989D01*
X98943818Y-120781638D01*
X98985689Y-120725704D01*
X99051153Y-120701287D01*
X99119426Y-120716139D01*
X99168832Y-120765544D01*
X99176182Y-120781638D01*
X99212662Y-120879447D01*
X99212664Y-120879450D01*
X99293528Y-120987472D01*
X99401549Y-121068335D01*
X99401552Y-121068337D01*
X99487914Y-121100548D01*
X99527978Y-121115491D01*
X99557318Y-121118645D01*
X99583855Y-121121499D01*
X99583870Y-121121500D01*
X100111130Y-121121500D01*
X100111144Y-121121499D01*
X100133023Y-121119146D01*
X100167022Y-121115491D01*
X100293450Y-121068336D01*
X100401472Y-120987472D01*
X100482336Y-120879450D01*
X100529491Y-120753022D01*
X100535309Y-120698911D01*
X100535499Y-120697144D01*
X100535500Y-120697129D01*
X100535500Y-120094870D01*
X100535499Y-120094855D01*
X100530158Y-120045184D01*
X100529491Y-120038978D01*
X100529490Y-120038975D01*
X100482337Y-119912552D01*
X100482333Y-119912545D01*
X100401474Y-119804529D01*
X100372689Y-119782981D01*
X100330818Y-119727047D01*
X100323000Y-119683714D01*
X100323000Y-118662948D01*
X100342685Y-118595909D01*
X100395489Y-118550154D01*
X100403645Y-118546775D01*
X100458778Y-118526212D01*
X100571116Y-118442116D01*
X100655212Y-118329778D01*
X100704251Y-118198299D01*
X100706039Y-118181669D01*
X100710499Y-118140190D01*
X100710500Y-118140173D01*
X100710500Y-117571826D01*
X100710499Y-117571809D01*
X100704251Y-117513700D01*
X100666813Y-117413326D01*
X100655212Y-117382222D01*
X100571116Y-117269884D01*
X100491368Y-117210185D01*
X100458780Y-117185789D01*
X100458778Y-117185788D01*
X100432144Y-117175854D01*
X100327299Y-117136748D01*
X100269190Y-117130500D01*
X100269174Y-117130500D01*
X99675826Y-117130500D01*
X99675809Y-117130500D01*
X99617700Y-117136748D01*
X99486219Y-117185789D01*
X99373883Y-117269884D01*
X99297846Y-117371456D01*
X99241912Y-117413326D01*
X99172220Y-117418310D01*
X99110897Y-117384824D01*
X99080874Y-117336147D01*
X99070454Y-117304701D01*
X99070448Y-117304688D01*
X98979947Y-117157965D01*
X98979944Y-117157961D01*
X98858038Y-117036055D01*
X98858034Y-117036052D01*
X98711311Y-116945551D01*
X98711300Y-116945546D01*
X98547652Y-116891319D01*
X98446654Y-116881000D01*
X98397500Y-116881000D01*
X98397500Y-118830999D01*
X98446640Y-118830999D01*
X98446654Y-118830998D01*
X98547652Y-118820680D01*
X98711300Y-118766453D01*
X98711311Y-118766448D01*
X98858034Y-118675947D01*
X98858038Y-118675944D01*
X98979944Y-118554038D01*
X98979947Y-118554034D01*
X99070448Y-118407311D01*
X99070451Y-118407303D01*
X99080873Y-118375853D01*
X99120645Y-118318407D01*
X99185160Y-118291583D01*
X99253936Y-118303897D01*
X99297846Y-118340543D01*
X99362789Y-118427295D01*
X99373884Y-118442116D01*
X99486222Y-118526212D01*
X99541334Y-118546767D01*
X99597266Y-118588636D01*
X99621684Y-118654101D01*
X99622000Y-118662948D01*
X99622000Y-119556177D01*
X99602315Y-119623216D01*
X99549511Y-119668971D01*
X99533127Y-119674587D01*
X99401552Y-119723662D01*
X99401549Y-119723664D01*
X99293528Y-119804528D01*
X99212664Y-119912549D01*
X99212662Y-119912552D01*
X99176182Y-120010361D01*
X99134311Y-120066295D01*
X99068846Y-120090712D01*
X99000573Y-120075860D01*
X98951168Y-120026455D01*
X98943818Y-120010361D01*
X98907337Y-119912552D01*
X98907335Y-119912549D01*
X98907332Y-119912545D01*
X98826472Y-119804528D01*
X98718450Y-119723664D01*
X98718447Y-119723662D01*
X98592024Y-119676509D01*
X98536144Y-119670500D01*
X98536130Y-119670500D01*
X98008870Y-119670500D01*
X98008855Y-119670500D01*
X97952975Y-119676509D01*
X97826552Y-119723662D01*
X97826549Y-119723664D01*
X97718528Y-119804528D01*
X97637664Y-119912549D01*
X97637663Y-119912550D01*
X97618163Y-119964834D01*
X97604892Y-119982560D01*
X97595694Y-120002703D01*
X97584362Y-120009985D01*
X97576291Y-120020767D01*
X97555545Y-120028504D01*
X97536916Y-120040477D01*
X97514997Y-120043628D01*
X97510827Y-120045184D01*
X97501981Y-120045500D01*
X97253386Y-120045500D01*
X97186347Y-120025815D01*
X97165705Y-120009181D01*
X97112017Y-119955493D01*
X97112011Y-119955488D01*
X96986488Y-119883017D01*
X96986489Y-119883017D01*
X96975006Y-119879940D01*
X96846475Y-119845500D01*
X96701525Y-119845500D01*
X96572993Y-119879940D01*
X96561511Y-119883017D01*
X96435988Y-119955488D01*
X96435982Y-119955493D01*
X96333493Y-120057982D01*
X96333488Y-120057988D01*
X96261017Y-120183511D01*
X96261016Y-120183515D01*
X96223500Y-120323525D01*
X87836559Y-120323525D01*
X87933344Y-120155888D01*
X88021158Y-119943887D01*
X88080548Y-119722238D01*
X88110500Y-119494734D01*
X88110500Y-119265266D01*
X88080548Y-119037762D01*
X88021158Y-118816113D01*
X87933344Y-118604112D01*
X87902191Y-118550154D01*
X87870461Y-118495195D01*
X87853988Y-118427295D01*
X87876841Y-118361268D01*
X87890167Y-118345514D01*
X87992029Y-118243652D01*
X88093028Y-118142654D01*
X97160001Y-118142654D01*
X97170319Y-118243652D01*
X97224546Y-118407300D01*
X97224551Y-118407311D01*
X97315052Y-118554034D01*
X97315055Y-118554038D01*
X97436961Y-118675944D01*
X97436965Y-118675947D01*
X97583688Y-118766448D01*
X97583699Y-118766453D01*
X97747347Y-118820680D01*
X97848351Y-118830999D01*
X97897499Y-118830998D01*
X97897500Y-118830998D01*
X97897500Y-118106000D01*
X97160001Y-118106000D01*
X97160001Y-118142654D01*
X88093028Y-118142654D01*
X88164469Y-118071213D01*
X88210614Y-117991288D01*
X88228777Y-117923501D01*
X88234500Y-117902144D01*
X88234500Y-117569345D01*
X97160000Y-117569345D01*
X97160000Y-117606000D01*
X97897500Y-117606000D01*
X97897500Y-116881000D01*
X97897499Y-116880999D01*
X97848361Y-116881000D01*
X97848343Y-116881001D01*
X97747347Y-116891319D01*
X97583699Y-116945546D01*
X97583688Y-116945551D01*
X97436965Y-117036052D01*
X97436961Y-117036055D01*
X97315055Y-117157961D01*
X97315052Y-117157965D01*
X97224551Y-117304688D01*
X97224546Y-117304699D01*
X97170319Y-117468347D01*
X97160000Y-117569345D01*
X88234500Y-117569345D01*
X88234500Y-113544475D01*
X89389500Y-113544475D01*
X89389500Y-113907517D01*
X89399061Y-113967884D01*
X89404354Y-114001304D01*
X89461950Y-114114342D01*
X89461952Y-114114344D01*
X89461954Y-114114347D01*
X89551652Y-114204045D01*
X89551654Y-114204046D01*
X89551658Y-114204050D01*
X89664694Y-114261645D01*
X89664698Y-114261647D01*
X89673980Y-114264663D01*
X89673182Y-114267116D01*
X89723244Y-114290843D01*
X89760180Y-114350152D01*
X89759188Y-114420014D01*
X89733419Y-114462757D01*
X89734438Y-114463539D01*
X89729488Y-114469988D01*
X89657017Y-114595511D01*
X89657016Y-114595515D01*
X89619500Y-114735525D01*
X89619500Y-114880475D01*
X89653772Y-115008379D01*
X89657017Y-115020488D01*
X89729488Y-115146011D01*
X89729490Y-115146013D01*
X89729491Y-115146015D01*
X89831985Y-115248509D01*
X89831986Y-115248510D01*
X89831988Y-115248511D01*
X89957511Y-115320982D01*
X89957512Y-115320982D01*
X89957515Y-115320984D01*
X90097525Y-115358500D01*
X90103000Y-115358500D01*
X90111685Y-115361050D01*
X90120647Y-115359762D01*
X90144687Y-115370740D01*
X90170039Y-115378185D01*
X90175966Y-115385025D01*
X90184203Y-115388787D01*
X90198492Y-115411021D01*
X90215794Y-115430989D01*
X90218081Y-115441503D01*
X90221977Y-115447565D01*
X90227000Y-115482500D01*
X90227000Y-115506401D01*
X90207315Y-115573440D01*
X90154511Y-115619195D01*
X90146335Y-115622582D01*
X90041221Y-115661788D01*
X89928884Y-115745884D01*
X89844789Y-115858219D01*
X89795748Y-115989700D01*
X89789500Y-116047809D01*
X89789500Y-116616190D01*
X89795748Y-116674299D01*
X89834854Y-116779144D01*
X89844788Y-116805778D01*
X89928884Y-116918116D01*
X90041222Y-117002212D01*
X90115816Y-117030034D01*
X90172700Y-117051251D01*
X90230809Y-117057499D01*
X90230826Y-117057500D01*
X90924174Y-117057500D01*
X90924190Y-117057499D01*
X90982299Y-117051251D01*
X91113778Y-117002212D01*
X91157302Y-116969630D01*
X91202945Y-116935462D01*
X91268409Y-116911044D01*
X91336682Y-116925895D01*
X91382794Y-116969630D01*
X91420054Y-117030037D01*
X91541961Y-117151944D01*
X91541965Y-117151947D01*
X91688688Y-117242448D01*
X91688699Y-117242453D01*
X91852347Y-117296680D01*
X91953351Y-117306999D01*
X92552500Y-117306999D01*
X92651640Y-117306999D01*
X92651654Y-117306998D01*
X92752652Y-117296680D01*
X92916300Y-117242453D01*
X92916311Y-117242448D01*
X93063034Y-117151947D01*
X93063038Y-117151944D01*
X93184944Y-117030038D01*
X93184947Y-117030034D01*
X93275448Y-116883311D01*
X93275453Y-116883300D01*
X93329680Y-116719652D01*
X93339999Y-116618654D01*
X93340000Y-116618641D01*
X93340000Y-116582000D01*
X92552500Y-116582000D01*
X92552500Y-117306999D01*
X91953351Y-117306999D01*
X92052500Y-117306998D01*
X92052500Y-116082000D01*
X92552500Y-116082000D01*
X93339999Y-116082000D01*
X93339999Y-116045360D01*
X93339998Y-116045345D01*
X93329680Y-115944347D01*
X93275453Y-115780699D01*
X93275448Y-115780688D01*
X93184947Y-115633965D01*
X93184944Y-115633961D01*
X93063038Y-115512055D01*
X93063034Y-115512052D01*
X92916311Y-115421551D01*
X92916300Y-115421546D01*
X92752652Y-115367319D01*
X92651654Y-115357000D01*
X92552500Y-115357000D01*
X92552500Y-116082000D01*
X92052500Y-116082000D01*
X92052500Y-115356999D01*
X91953360Y-115357000D01*
X91953344Y-115357001D01*
X91852347Y-115367319D01*
X91688699Y-115421546D01*
X91688688Y-115421551D01*
X91541965Y-115512052D01*
X91541961Y-115512055D01*
X91420054Y-115633962D01*
X91382794Y-115694370D01*
X91330845Y-115741094D01*
X91261883Y-115752315D01*
X91202945Y-115728538D01*
X91113780Y-115661789D01*
X91113778Y-115661788D01*
X91092196Y-115653738D01*
X91008665Y-115622582D01*
X90952732Y-115580711D01*
X90928316Y-115515246D01*
X90928000Y-115506401D01*
X90928000Y-115169358D01*
X90928000Y-115169356D01*
X90904114Y-115080212D01*
X90881042Y-115040250D01*
X90857972Y-115000291D01*
X90857968Y-115000286D01*
X90756819Y-114899137D01*
X90723334Y-114837814D01*
X90720500Y-114811456D01*
X90720500Y-114735527D01*
X90720500Y-114735525D01*
X90682984Y-114595515D01*
X90610509Y-114469985D01*
X90610508Y-114469984D01*
X90606445Y-114462946D01*
X90609410Y-114461233D01*
X90589919Y-114410817D01*
X90603957Y-114342372D01*
X90652771Y-114292382D01*
X90713489Y-114276499D01*
X90846517Y-114276499D01*
X90846518Y-114276499D01*
X90940304Y-114261646D01*
X91053342Y-114204050D01*
X91143050Y-114114342D01*
X91200646Y-114001304D01*
X91200646Y-114001302D01*
X91200647Y-114001301D01*
X91215499Y-113907524D01*
X91215500Y-113907519D01*
X91215499Y-113544482D01*
X91200646Y-113450696D01*
X91143050Y-113337658D01*
X91143046Y-113337654D01*
X91143045Y-113337652D01*
X91053347Y-113247954D01*
X91053344Y-113247952D01*
X91053342Y-113247950D01*
X90973303Y-113207168D01*
X90940301Y-113190352D01*
X90846524Y-113175500D01*
X89758482Y-113175500D01*
X89677519Y-113188323D01*
X89664696Y-113190354D01*
X89551658Y-113247950D01*
X89551657Y-113247951D01*
X89551652Y-113247954D01*
X89461954Y-113337652D01*
X89461951Y-113337657D01*
X89461950Y-113337658D01*
X89449488Y-113362116D01*
X89404352Y-113450698D01*
X89389500Y-113544475D01*
X88234500Y-113544475D01*
X88234500Y-113026001D01*
X91417704Y-113026001D01*
X91417899Y-113028486D01*
X91463718Y-113186198D01*
X91547314Y-113327552D01*
X91547321Y-113327561D01*
X91633460Y-113413700D01*
X91666945Y-113475023D01*
X91668253Y-113520773D01*
X91664500Y-113544475D01*
X91664500Y-113907517D01*
X91674061Y-113967884D01*
X91679354Y-114001304D01*
X91736950Y-114114342D01*
X91736952Y-114114344D01*
X91736954Y-114114347D01*
X91826652Y-114204045D01*
X91826654Y-114204046D01*
X91826658Y-114204050D01*
X91939694Y-114261645D01*
X91939698Y-114261647D01*
X92033475Y-114276499D01*
X92033481Y-114276500D01*
X93121518Y-114276499D01*
X93215304Y-114261646D01*
X93328342Y-114204050D01*
X93328347Y-114204045D01*
X93370436Y-114161957D01*
X93419574Y-114112819D01*
X93480897Y-114079334D01*
X93507255Y-114076500D01*
X94600142Y-114076500D01*
X94600144Y-114076500D01*
X94689288Y-114052614D01*
X94769212Y-114006470D01*
X96877863Y-111897819D01*
X96939186Y-111864334D01*
X96965544Y-111861500D01*
X97927481Y-111861500D01*
X97994520Y-111881185D01*
X98037966Y-111929205D01*
X98089942Y-112031214D01*
X98118768Y-112087788D01*
X98220586Y-112227928D01*
X98343072Y-112350414D01*
X98483212Y-112452232D01*
X98506213Y-112463951D01*
X98511244Y-112466515D01*
X98562040Y-112514490D01*
X98578835Y-112582311D01*
X98556297Y-112648446D01*
X98501582Y-112691897D01*
X98454949Y-112701000D01*
X98162155Y-112701000D01*
X98102627Y-112707401D01*
X98102620Y-112707403D01*
X97967913Y-112757645D01*
X97967906Y-112757649D01*
X97852812Y-112843809D01*
X97852809Y-112843812D01*
X97766649Y-112958906D01*
X97766645Y-112958913D01*
X97716403Y-113093620D01*
X97716401Y-113093627D01*
X97710000Y-113153155D01*
X97710000Y-113801000D01*
X98626988Y-113801000D01*
X98594075Y-113858007D01*
X98560000Y-113985174D01*
X98560000Y-114116826D01*
X98594075Y-114243993D01*
X98626988Y-114301000D01*
X97710000Y-114301000D01*
X97710000Y-114948844D01*
X97716401Y-115008372D01*
X97716403Y-115008379D01*
X97766645Y-115143086D01*
X97766649Y-115143093D01*
X97852809Y-115258187D01*
X97852812Y-115258190D01*
X97967906Y-115344350D01*
X97967913Y-115344354D01*
X98102620Y-115394596D01*
X98102627Y-115394598D01*
X98162155Y-115400999D01*
X98162172Y-115401000D01*
X98810000Y-115401000D01*
X98810000Y-114484012D01*
X98867007Y-114516925D01*
X98994174Y-114551000D01*
X99125826Y-114551000D01*
X99252993Y-114516925D01*
X99310000Y-114484012D01*
X99310000Y-115401000D01*
X99957828Y-115401000D01*
X99957844Y-115400999D01*
X100017372Y-115394598D01*
X100017379Y-115394596D01*
X100152086Y-115344354D01*
X100152093Y-115344350D01*
X100267187Y-115258190D01*
X100267190Y-115258187D01*
X100353350Y-115143093D01*
X100353354Y-115143086D01*
X100403596Y-115008379D01*
X100403598Y-115008372D01*
X100409999Y-114948844D01*
X100410000Y-114948827D01*
X100410000Y-114301000D01*
X99493012Y-114301000D01*
X99525925Y-114243993D01*
X99560000Y-114116826D01*
X99560000Y-113985174D01*
X99525925Y-113858007D01*
X99493012Y-113801000D01*
X100410000Y-113801000D01*
X100410000Y-113153172D01*
X100409999Y-113153155D01*
X100403598Y-113093627D01*
X100403596Y-113093620D01*
X100353354Y-112958913D01*
X100353350Y-112958906D01*
X100267190Y-112843812D01*
X100267187Y-112843809D01*
X100152093Y-112757649D01*
X100152086Y-112757645D01*
X100017379Y-112707403D01*
X100017372Y-112707401D01*
X99957844Y-112701000D01*
X99665051Y-112701000D01*
X99598012Y-112681315D01*
X99552257Y-112628511D01*
X99542313Y-112559353D01*
X99571338Y-112495797D01*
X99608756Y-112466515D01*
X99611471Y-112465131D01*
X99636788Y-112452232D01*
X99776928Y-112350414D01*
X99899414Y-112227928D01*
X100001232Y-112087788D01*
X100079873Y-111933445D01*
X100133402Y-111768701D01*
X100160500Y-111597611D01*
X100160500Y-111424389D01*
X100133402Y-111253299D01*
X100079873Y-111088555D01*
X100001232Y-110934212D01*
X99899414Y-110794072D01*
X99776928Y-110671586D01*
X99636788Y-110569768D01*
X99482445Y-110491127D01*
X99317701Y-110437598D01*
X99317699Y-110437597D01*
X99317698Y-110437597D01*
X99183445Y-110416334D01*
X99146611Y-110410500D01*
X98973389Y-110410500D01*
X98936555Y-110416334D01*
X98802302Y-110437597D01*
X98637552Y-110491128D01*
X98483211Y-110569768D01*
X98415756Y-110618778D01*
X98343072Y-110671586D01*
X98343070Y-110671588D01*
X98343069Y-110671588D01*
X98220588Y-110794069D01*
X98220588Y-110794070D01*
X98220586Y-110794072D01*
X98176859Y-110854256D01*
X98118768Y-110934211D01*
X98037966Y-111092795D01*
X97989991Y-111143591D01*
X97927481Y-111160500D01*
X96855125Y-111160500D01*
X96823034Y-111156275D01*
X96820148Y-111155501D01*
X96820144Y-111155501D01*
X96727856Y-111155501D01*
X96727850Y-111155501D01*
X96638714Y-111179384D01*
X96638713Y-111179385D01*
X96558791Y-111225527D01*
X96558786Y-111225531D01*
X94445137Y-113339181D01*
X94383814Y-113372666D01*
X94357456Y-113375500D01*
X93796724Y-113375500D01*
X93729685Y-113355815D01*
X93683930Y-113303011D01*
X93673986Y-113233853D01*
X93688233Y-113193375D01*
X93688185Y-113193354D01*
X93688486Y-113192658D01*
X93689992Y-113188380D01*
X93691280Y-113186200D01*
X93737100Y-113028486D01*
X93737295Y-113026001D01*
X93737295Y-113026000D01*
X91417705Y-113026000D01*
X91417704Y-113026001D01*
X88234500Y-113026001D01*
X88234500Y-112300500D01*
X88254185Y-112233461D01*
X88306989Y-112187706D01*
X88358500Y-112176500D01*
X89372745Y-112176500D01*
X89439784Y-112196185D01*
X89460426Y-112212819D01*
X89551652Y-112304045D01*
X89551654Y-112304046D01*
X89551658Y-112304050D01*
X89647749Y-112353011D01*
X89664698Y-112361647D01*
X89758475Y-112376499D01*
X89758481Y-112376500D01*
X90846518Y-112376499D01*
X90940304Y-112361646D01*
X91053342Y-112304050D01*
X91143050Y-112214342D01*
X91200646Y-112101304D01*
X91200646Y-112101302D01*
X91200647Y-112101301D01*
X91211282Y-112034147D01*
X91215500Y-112007519D01*
X91215499Y-111644482D01*
X91200646Y-111550696D01*
X91143050Y-111437658D01*
X91143046Y-111437654D01*
X91143045Y-111437652D01*
X91053347Y-111347954D01*
X91053344Y-111347952D01*
X91053342Y-111347950D01*
X90976517Y-111308805D01*
X90940301Y-111290352D01*
X90846524Y-111275500D01*
X89758482Y-111275500D01*
X89677519Y-111288323D01*
X89664696Y-111290354D01*
X89551658Y-111347950D01*
X89551657Y-111347951D01*
X89551652Y-111347954D01*
X89460426Y-111439181D01*
X89399103Y-111472666D01*
X89372745Y-111475500D01*
X88146544Y-111475500D01*
X88079505Y-111455815D01*
X88058863Y-111439181D01*
X87186713Y-110567031D01*
X87186708Y-110567027D01*
X87106790Y-110520887D01*
X87106789Y-110520886D01*
X87106788Y-110520886D01*
X87017644Y-110497000D01*
X87017643Y-110497000D01*
X86658949Y-110497000D01*
X86591910Y-110477315D01*
X86546155Y-110424511D01*
X86542773Y-110416349D01*
X86522212Y-110361222D01*
X86438116Y-110248884D01*
X86355687Y-110187178D01*
X86325780Y-110164789D01*
X86325778Y-110164788D01*
X86194299Y-110115749D01*
X86187031Y-110113038D01*
X86187489Y-110111808D01*
X86133772Y-110081223D01*
X86101384Y-110019313D01*
X86099000Y-109995116D01*
X86099000Y-109264948D01*
X86118685Y-109197909D01*
X86171489Y-109152154D01*
X86179645Y-109148775D01*
X86234778Y-109128212D01*
X86347116Y-109044116D01*
X86431212Y-108931778D01*
X86480251Y-108800299D01*
X86482563Y-108778793D01*
X86486499Y-108742190D01*
X86486500Y-108742173D01*
X86486500Y-108173826D01*
X86486499Y-108173809D01*
X86480251Y-108115700D01*
X86463335Y-108070347D01*
X86431212Y-107984222D01*
X86428715Y-107980887D01*
X86396720Y-107938147D01*
X86347116Y-107871884D01*
X86257004Y-107804426D01*
X86234780Y-107787789D01*
X86234778Y-107787788D01*
X86199996Y-107774815D01*
X86103299Y-107738748D01*
X86045190Y-107732500D01*
X86045174Y-107732500D01*
X85451826Y-107732500D01*
X85451809Y-107732500D01*
X85393700Y-107738748D01*
X85262219Y-107787789D01*
X85149884Y-107871884D01*
X85065789Y-107984219D01*
X85016748Y-108115700D01*
X85010500Y-108173809D01*
X85010500Y-108742190D01*
X85016748Y-108800299D01*
X85065789Y-108931780D01*
X85079523Y-108950126D01*
X85149884Y-109044116D01*
X85262222Y-109128212D01*
X85317334Y-109148767D01*
X85373266Y-109190636D01*
X85397684Y-109256101D01*
X85398000Y-109264948D01*
X85398000Y-110087912D01*
X85378315Y-110154951D01*
X85348312Y-110187178D01*
X85265884Y-110248883D01*
X85181789Y-110361219D01*
X85132748Y-110492700D01*
X85126500Y-110550809D01*
X85126500Y-111144190D01*
X85132748Y-111202299D01*
X85158651Y-111271745D01*
X85181788Y-111333778D01*
X85265884Y-111446116D01*
X85296461Y-111469005D01*
X85367455Y-111522153D01*
X85409326Y-111578087D01*
X85414310Y-111647778D01*
X85380824Y-111709101D01*
X85332150Y-111739124D01*
X85300703Y-111749545D01*
X85300688Y-111749551D01*
X85153965Y-111840052D01*
X85153961Y-111840055D01*
X85032055Y-111961961D01*
X85032052Y-111961965D01*
X84941551Y-112108688D01*
X84941546Y-112108699D01*
X84887319Y-112272347D01*
X84877000Y-112373345D01*
X84877000Y-112422500D01*
X86826999Y-112422500D01*
X86826999Y-112373360D01*
X86826998Y-112373345D01*
X86816680Y-112272347D01*
X86762453Y-112108699D01*
X86762448Y-112108688D01*
X86671947Y-111961965D01*
X86671944Y-111961961D01*
X86550038Y-111840055D01*
X86550034Y-111840052D01*
X86403311Y-111749551D01*
X86403302Y-111749547D01*
X86371850Y-111739125D01*
X86314406Y-111699352D01*
X86287583Y-111634836D01*
X86299898Y-111566060D01*
X86336542Y-111522153D01*
X86438116Y-111446116D01*
X86522212Y-111333778D01*
X86542768Y-111278664D01*
X86556037Y-111260939D01*
X86565236Y-111240797D01*
X86576567Y-111233514D01*
X86584639Y-111222733D01*
X86605384Y-111214995D01*
X86624014Y-111203023D01*
X86645932Y-111199871D01*
X86650103Y-111198316D01*
X86658949Y-111198000D01*
X86774956Y-111198000D01*
X86841995Y-111217685D01*
X86862637Y-111234319D01*
X87497181Y-111868863D01*
X87530666Y-111930186D01*
X87533500Y-111956544D01*
X87533500Y-117659455D01*
X87513815Y-117726494D01*
X87497181Y-117747136D01*
X87394485Y-117849832D01*
X87333162Y-117883317D01*
X87263470Y-117878333D01*
X87244804Y-117869538D01*
X87135891Y-117806657D01*
X87135876Y-117806650D01*
X86923887Y-117718842D01*
X86702238Y-117659452D01*
X86664215Y-117654446D01*
X86474741Y-117629500D01*
X86474734Y-117629500D01*
X86245266Y-117629500D01*
X86245258Y-117629500D01*
X86028715Y-117658009D01*
X86017762Y-117659452D01*
X85924076Y-117684554D01*
X85796112Y-117718842D01*
X85584123Y-117806650D01*
X85584109Y-117806657D01*
X85385382Y-117921392D01*
X85203338Y-118061081D01*
X85041081Y-118223338D01*
X84901392Y-118405382D01*
X84786657Y-118604109D01*
X84786650Y-118604123D01*
X84698842Y-118816112D01*
X84639453Y-119037759D01*
X84639451Y-119037770D01*
X84609500Y-119265258D01*
X73814940Y-119265258D01*
X71109213Y-116559531D01*
X71109208Y-116559527D01*
X71029290Y-116513387D01*
X71029289Y-116513386D01*
X71029288Y-116513386D01*
X70940144Y-116489500D01*
X63961856Y-116489500D01*
X63872712Y-116513386D01*
X63872709Y-116513387D01*
X63792791Y-116559527D01*
X63792786Y-116559531D01*
X62965531Y-117386786D01*
X62965527Y-117386791D01*
X62919387Y-117466709D01*
X62919386Y-117466712D01*
X62895500Y-117555856D01*
X62895500Y-117804336D01*
X62875815Y-117871375D01*
X62823011Y-117917130D01*
X62784754Y-117927626D01*
X62763516Y-117929909D01*
X62628671Y-117980202D01*
X62628664Y-117980206D01*
X62513455Y-118066452D01*
X62513452Y-118066455D01*
X62427206Y-118181664D01*
X62427202Y-118181671D01*
X62376908Y-118316517D01*
X62370529Y-118375853D01*
X62370501Y-118376123D01*
X62370500Y-118376135D01*
X61621499Y-118376135D01*
X61621499Y-118376128D01*
X61615091Y-118316517D01*
X61605791Y-118291583D01*
X61564797Y-118181671D01*
X61564793Y-118181664D01*
X61478547Y-118066455D01*
X61478544Y-118066452D01*
X61363335Y-117980206D01*
X61363328Y-117980202D01*
X61228483Y-117929908D01*
X61207243Y-117927625D01*
X61142692Y-117900886D01*
X61102845Y-117843493D01*
X61096500Y-117804336D01*
X61096500Y-116610764D01*
X61116185Y-116543725D01*
X61168989Y-116497970D01*
X61188399Y-116490992D01*
X61269887Y-116469158D01*
X61481888Y-116381344D01*
X61680612Y-116266611D01*
X61862661Y-116126919D01*
X61862665Y-116126914D01*
X61862670Y-116126911D01*
X62024911Y-115964670D01*
X62024914Y-115964665D01*
X62024919Y-115964661D01*
X62164611Y-115782612D01*
X62279344Y-115583888D01*
X62367158Y-115371887D01*
X62426548Y-115150238D01*
X62456500Y-114922734D01*
X62456500Y-114693266D01*
X62426548Y-114465762D01*
X62367158Y-114244113D01*
X62297730Y-114076499D01*
X62279349Y-114032123D01*
X62279346Y-114032117D01*
X62279344Y-114032112D01*
X62164611Y-113833388D01*
X62164608Y-113833385D01*
X62164607Y-113833382D01*
X62024918Y-113651338D01*
X62024911Y-113651330D01*
X61862670Y-113489089D01*
X61862661Y-113489081D01*
X61680617Y-113349392D01*
X61660291Y-113337657D01*
X61508080Y-113249778D01*
X61481890Y-113234657D01*
X61481876Y-113234650D01*
X61269887Y-113146842D01*
X61212715Y-113131523D01*
X61048238Y-113087452D01*
X61010215Y-113082446D01*
X60820741Y-113057500D01*
X60820734Y-113057500D01*
X60591266Y-113057500D01*
X60591258Y-113057500D01*
X60374715Y-113086009D01*
X60363762Y-113087452D01*
X60270076Y-113112554D01*
X60142112Y-113146842D01*
X59930123Y-113234650D01*
X59930109Y-113234657D01*
X59731382Y-113349392D01*
X59549338Y-113489081D01*
X59387081Y-113651338D01*
X59247392Y-113833382D01*
X59132657Y-114032109D01*
X59132650Y-114032123D01*
X59044842Y-114244112D01*
X58985453Y-114465759D01*
X58985451Y-114465770D01*
X58955500Y-114693258D01*
X53840500Y-114693258D01*
X53840500Y-111870523D01*
X53860185Y-111803484D01*
X53912989Y-111757729D01*
X53982147Y-111747785D01*
X54045703Y-111776810D01*
X54052181Y-111782842D01*
X54061654Y-111792315D01*
X54210875Y-111884356D01*
X54210880Y-111884358D01*
X54377302Y-111939505D01*
X54377309Y-111939506D01*
X54480019Y-111949999D01*
X55879999Y-111949999D01*
X56380000Y-111949999D01*
X57779972Y-111949999D01*
X57779986Y-111949998D01*
X57882697Y-111939505D01*
X58049119Y-111884358D01*
X58049124Y-111884356D01*
X58198345Y-111792315D01*
X58322315Y-111668345D01*
X58414356Y-111519124D01*
X58414358Y-111519119D01*
X58469505Y-111352697D01*
X58469506Y-111352690D01*
X58479999Y-111249986D01*
X58480000Y-111249973D01*
X58480000Y-111025000D01*
X56380000Y-111025000D01*
X56380000Y-111949999D01*
X55879999Y-111949999D01*
X55880000Y-111949998D01*
X55880000Y-110776654D01*
X65918001Y-110776654D01*
X65928319Y-110877652D01*
X65982546Y-111041300D01*
X65982551Y-111041311D01*
X66073052Y-111188034D01*
X66073055Y-111188038D01*
X66194961Y-111309944D01*
X66194965Y-111309947D01*
X66341688Y-111400448D01*
X66341699Y-111400453D01*
X66505347Y-111454680D01*
X66606351Y-111464999D01*
X66705500Y-111464998D01*
X66705500Y-110740000D01*
X65918001Y-110740000D01*
X65918001Y-110776654D01*
X55880000Y-110776654D01*
X55880000Y-110525000D01*
X56380000Y-110525000D01*
X58479999Y-110525000D01*
X58479999Y-110300028D01*
X58479998Y-110300011D01*
X58471089Y-110212797D01*
X58470123Y-110203345D01*
X65918000Y-110203345D01*
X65918000Y-110240000D01*
X66705500Y-110240000D01*
X66705500Y-109514999D01*
X66606360Y-109515000D01*
X66606344Y-109515001D01*
X66505347Y-109525319D01*
X66341699Y-109579546D01*
X66341688Y-109579551D01*
X66194965Y-109670052D01*
X66194961Y-109670055D01*
X66073055Y-109791961D01*
X66073052Y-109791965D01*
X65982551Y-109938688D01*
X65982546Y-109938699D01*
X65928319Y-110102347D01*
X65918000Y-110203345D01*
X58470123Y-110203345D01*
X58469505Y-110197302D01*
X58414358Y-110030880D01*
X58414356Y-110030875D01*
X58322315Y-109881654D01*
X58198345Y-109757684D01*
X58049124Y-109665643D01*
X58049119Y-109665641D01*
X57882697Y-109610494D01*
X57882690Y-109610493D01*
X57779986Y-109600000D01*
X56380000Y-109600000D01*
X56380000Y-110525000D01*
X55880000Y-110525000D01*
X55880000Y-109600000D01*
X54480028Y-109600000D01*
X54480012Y-109600001D01*
X54377302Y-109610494D01*
X54210880Y-109665641D01*
X54210875Y-109665643D01*
X54061654Y-109757684D01*
X54052181Y-109767158D01*
X53990858Y-109800643D01*
X53921166Y-109795659D01*
X53865233Y-109753787D01*
X53840816Y-109688323D01*
X53840500Y-109679477D01*
X53840500Y-108605859D01*
X53860185Y-108538820D01*
X53912989Y-108493065D01*
X53982147Y-108483121D01*
X54045703Y-108512146D01*
X54080681Y-108562525D01*
X54083470Y-108570000D01*
X54086204Y-108577332D01*
X54086206Y-108577335D01*
X54172452Y-108692544D01*
X54172455Y-108692547D01*
X54287664Y-108778793D01*
X54287671Y-108778797D01*
X54422517Y-108829091D01*
X54422516Y-108829091D01*
X54429444Y-108829835D01*
X54482127Y-108835500D01*
X57277872Y-108835499D01*
X57337483Y-108829091D01*
X57472331Y-108778796D01*
X57587546Y-108692546D01*
X57673796Y-108577331D01*
X57724091Y-108442483D01*
X57727450Y-108411244D01*
X57754188Y-108346693D01*
X57811581Y-108306845D01*
X57850739Y-108300500D01*
X60501500Y-108300500D01*
X60510185Y-108303050D01*
X60519147Y-108301762D01*
X60543187Y-108312740D01*
X60568539Y-108320185D01*
X60574466Y-108327025D01*
X60582703Y-108330787D01*
X60596992Y-108353021D01*
X60614294Y-108372989D01*
X60616581Y-108383503D01*
X60620477Y-108389565D01*
X60625500Y-108424500D01*
X60625500Y-108622327D01*
X60616062Y-108669778D01*
X60615033Y-108672261D01*
X60600500Y-108745323D01*
X60600500Y-109119678D01*
X60615032Y-109192735D01*
X60615033Y-109192739D01*
X60620876Y-109201483D01*
X60670399Y-109275601D01*
X60746356Y-109326353D01*
X60753260Y-109330966D01*
X60764544Y-109335640D01*
X60764081Y-109336756D01*
X60814770Y-109363270D01*
X60849345Y-109423985D01*
X60851958Y-109439247D01*
X60857401Y-109489873D01*
X60857403Y-109489879D01*
X60907645Y-109624586D01*
X60907649Y-109624593D01*
X60993809Y-109739687D01*
X60993812Y-109739690D01*
X61108906Y-109825850D01*
X61108913Y-109825854D01*
X61243620Y-109876096D01*
X61243627Y-109876098D01*
X61303155Y-109882499D01*
X61303172Y-109882500D01*
X61351000Y-109882500D01*
X61351000Y-109344000D01*
X61353550Y-109335314D01*
X61352262Y-109326353D01*
X61363240Y-109302312D01*
X61370685Y-109276961D01*
X61377525Y-109271033D01*
X61381287Y-109262797D01*
X61403521Y-109248507D01*
X61423489Y-109231206D01*
X61434003Y-109228918D01*
X61440065Y-109225023D01*
X61475000Y-109220000D01*
X61477000Y-109220000D01*
X61544039Y-109239685D01*
X61589794Y-109292489D01*
X61601000Y-109344000D01*
X61601000Y-109882500D01*
X61648828Y-109882500D01*
X61648841Y-109882499D01*
X61712743Y-109875628D01*
X61739257Y-109875628D01*
X61803158Y-109882499D01*
X61803172Y-109882500D01*
X61851000Y-109882500D01*
X62101000Y-109882500D01*
X62148828Y-109882500D01*
X62148844Y-109882499D01*
X62208372Y-109876098D01*
X62208379Y-109876096D01*
X62343086Y-109825854D01*
X62343093Y-109825850D01*
X62458187Y-109739690D01*
X62458190Y-109739687D01*
X62544350Y-109624593D01*
X62544354Y-109624586D01*
X62594596Y-109489879D01*
X62594598Y-109489872D01*
X62600999Y-109430344D01*
X62601000Y-109430327D01*
X62601000Y-109345000D01*
X62101000Y-109345000D01*
X62101000Y-109882500D01*
X61851000Y-109882500D01*
X61851000Y-109344000D01*
X61853550Y-109335314D01*
X61852262Y-109326353D01*
X61863240Y-109302312D01*
X61870685Y-109276961D01*
X61877525Y-109271033D01*
X61881287Y-109262797D01*
X61903521Y-109248507D01*
X61923489Y-109231206D01*
X61934003Y-109228918D01*
X61940065Y-109225023D01*
X61975000Y-109220000D01*
X61976000Y-109220000D01*
X61976000Y-109219000D01*
X61995685Y-109151961D01*
X62048489Y-109106206D01*
X62100000Y-109095000D01*
X62601000Y-109095000D01*
X62601000Y-109009672D01*
X62600999Y-109009655D01*
X62594598Y-108950127D01*
X62594598Y-108950126D01*
X62593369Y-108946831D01*
X62593173Y-108944096D01*
X62592814Y-108942576D01*
X62593060Y-108942517D01*
X62588382Y-108877140D01*
X62621860Y-108815821D01*
X63100862Y-108336818D01*
X63162185Y-108303334D01*
X63188543Y-108300500D01*
X66090713Y-108300500D01*
X66157752Y-108320185D01*
X66203507Y-108372989D01*
X66206895Y-108381168D01*
X66222785Y-108423773D01*
X66222787Y-108423777D01*
X66243929Y-108452019D01*
X66306884Y-108536116D01*
X66419222Y-108620212D01*
X66511594Y-108654665D01*
X66550700Y-108669251D01*
X66608809Y-108675499D01*
X66608826Y-108675500D01*
X67302174Y-108675500D01*
X67302190Y-108675499D01*
X67360299Y-108669251D01*
X67378938Y-108662299D01*
X67491778Y-108620212D01*
X67604116Y-108536116D01*
X67688212Y-108423778D01*
X67701819Y-108387295D01*
X67743690Y-108331364D01*
X67809154Y-108306947D01*
X67877427Y-108321799D01*
X67926832Y-108371205D01*
X67934178Y-108387288D01*
X67947788Y-108423777D01*
X67947789Y-108423780D01*
X67981351Y-108468612D01*
X68031884Y-108536116D01*
X68144222Y-108620212D01*
X68236594Y-108654665D01*
X68275700Y-108669251D01*
X68333809Y-108675499D01*
X68333826Y-108675500D01*
X69027174Y-108675500D01*
X69027190Y-108675499D01*
X69085299Y-108669251D01*
X69103938Y-108662299D01*
X69216778Y-108620212D01*
X69329116Y-108536116D01*
X69413212Y-108423778D01*
X69413213Y-108423776D01*
X69417226Y-108416427D01*
X69466630Y-108367021D01*
X69534902Y-108352168D01*
X69600367Y-108376583D01*
X69613735Y-108388167D01*
X69748281Y-108522712D01*
X69813538Y-108587969D01*
X69813541Y-108587970D01*
X69813544Y-108587973D01*
X69893456Y-108634111D01*
X69893457Y-108634111D01*
X69893462Y-108634114D01*
X69982606Y-108658000D01*
X70313051Y-108658000D01*
X70380090Y-108677685D01*
X70425845Y-108730489D01*
X70429226Y-108738650D01*
X70449788Y-108793778D01*
X70449789Y-108793780D01*
X70481020Y-108835499D01*
X70533884Y-108906116D01*
X70646222Y-108990212D01*
X70718234Y-109017071D01*
X70777700Y-109039251D01*
X70835809Y-109045499D01*
X70835826Y-109045500D01*
X71404174Y-109045500D01*
X71404190Y-109045499D01*
X71462299Y-109039251D01*
X71473487Y-109035078D01*
X71593778Y-108990212D01*
X71706116Y-108906116D01*
X71790212Y-108793778D01*
X71810768Y-108738664D01*
X71852639Y-108682733D01*
X71918103Y-108658316D01*
X71926949Y-108658000D01*
X72550956Y-108658000D01*
X72617995Y-108677685D01*
X72638637Y-108694319D01*
X73076636Y-109132318D01*
X73110121Y-109193641D01*
X73105137Y-109263333D01*
X73076636Y-109307680D01*
X72638637Y-109745681D01*
X72577314Y-109779166D01*
X72550956Y-109782000D01*
X71926949Y-109782000D01*
X71859910Y-109762315D01*
X71814155Y-109709511D01*
X71810773Y-109701349D01*
X71790212Y-109646222D01*
X71706116Y-109533884D01*
X71638612Y-109483351D01*
X71593780Y-109449789D01*
X71593778Y-109449788D01*
X71548765Y-109432999D01*
X71462299Y-109400748D01*
X71404190Y-109394500D01*
X71404174Y-109394500D01*
X70835826Y-109394500D01*
X70835809Y-109394500D01*
X70777700Y-109400748D01*
X70646219Y-109449789D01*
X70533884Y-109533884D01*
X70449789Y-109646219D01*
X70449788Y-109646222D01*
X70429231Y-109701335D01*
X70387361Y-109757267D01*
X70321897Y-109781684D01*
X70313051Y-109782000D01*
X69907356Y-109782000D01*
X69818212Y-109805886D01*
X69818211Y-109805886D01*
X69818209Y-109805887D01*
X69818206Y-109805888D01*
X69738294Y-109852026D01*
X69738284Y-109852034D01*
X69583276Y-110007040D01*
X69521953Y-110040524D01*
X69452261Y-110035539D01*
X69396330Y-109993669D01*
X69349650Y-109931315D01*
X69329116Y-109903884D01*
X69234184Y-109832818D01*
X69216780Y-109819789D01*
X69216778Y-109819788D01*
X69168092Y-109801629D01*
X69085299Y-109770748D01*
X69027190Y-109764500D01*
X69027174Y-109764500D01*
X68333826Y-109764500D01*
X68333809Y-109764500D01*
X68275700Y-109770748D01*
X68144219Y-109819789D01*
X68055054Y-109886539D01*
X67989590Y-109910956D01*
X67921317Y-109896104D01*
X67875204Y-109852369D01*
X67837943Y-109791960D01*
X67716038Y-109670055D01*
X67716034Y-109670052D01*
X67569311Y-109579551D01*
X67569300Y-109579546D01*
X67405652Y-109525319D01*
X67304654Y-109515000D01*
X67205500Y-109515000D01*
X67205500Y-111464999D01*
X67304640Y-111464999D01*
X67304654Y-111464998D01*
X67405652Y-111454680D01*
X67569300Y-111400453D01*
X67569311Y-111400448D01*
X67716034Y-111309947D01*
X67716038Y-111309944D01*
X67837945Y-111188037D01*
X67875204Y-111127631D01*
X67927152Y-111080906D01*
X67996114Y-111069683D01*
X68055052Y-111093460D01*
X68144222Y-111160212D01*
X68218816Y-111188034D01*
X68275700Y-111209251D01*
X68333809Y-111215499D01*
X68333826Y-111215500D01*
X69027174Y-111215500D01*
X69027190Y-111215499D01*
X69085299Y-111209251D01*
X69103938Y-111202299D01*
X69216778Y-111160212D01*
X69329116Y-111076116D01*
X69413212Y-110963778D01*
X69413214Y-110963773D01*
X69429105Y-110921168D01*
X69470976Y-110865234D01*
X69536440Y-110840816D01*
X69545287Y-110840500D01*
X69642142Y-110840500D01*
X69642144Y-110840500D01*
X69731288Y-110816614D01*
X69733700Y-110815220D01*
X69733719Y-110815216D01*
X69733717Y-110815211D01*
X69811212Y-110770470D01*
X70062362Y-110519318D01*
X70089289Y-110504615D01*
X70115108Y-110488023D01*
X70121308Y-110487131D01*
X70123685Y-110485834D01*
X70150043Y-110483000D01*
X70313051Y-110483000D01*
X70380090Y-110502685D01*
X70425845Y-110555489D01*
X70429226Y-110563650D01*
X70441884Y-110597586D01*
X70449789Y-110618780D01*
X70465988Y-110640419D01*
X70533884Y-110731116D01*
X70646222Y-110815212D01*
X70738594Y-110849665D01*
X70777700Y-110864251D01*
X70835809Y-110870499D01*
X70835826Y-110870500D01*
X71404174Y-110870500D01*
X71404190Y-110870499D01*
X71462299Y-110864251D01*
X71593778Y-110815212D01*
X71706116Y-110731116D01*
X71790212Y-110618778D01*
X71810768Y-110563664D01*
X71852639Y-110507733D01*
X71918103Y-110483316D01*
X71926949Y-110483000D01*
X72793642Y-110483000D01*
X72793644Y-110483000D01*
X72882788Y-110459114D01*
X72962712Y-110412970D01*
X73443863Y-109931819D01*
X73505186Y-109898334D01*
X73531544Y-109895500D01*
X74683345Y-109895500D01*
X74750384Y-109915185D01*
X74796139Y-109967989D01*
X74806083Y-110037147D01*
X74806050Y-110037376D01*
X74802500Y-110061743D01*
X74802500Y-110328260D01*
X74812426Y-110396391D01*
X74863803Y-110501485D01*
X74946514Y-110584196D01*
X74946515Y-110584196D01*
X74946517Y-110584198D01*
X75051607Y-110635573D01*
X75084878Y-110640420D01*
X75148377Y-110669562D01*
X75186042Y-110728411D01*
X75191000Y-110763124D01*
X75191000Y-111969050D01*
X75171315Y-112036089D01*
X75118511Y-112081844D01*
X75110335Y-112085231D01*
X75055221Y-112105788D01*
X74942884Y-112189884D01*
X74858789Y-112302219D01*
X74809748Y-112433700D01*
X74803500Y-112491809D01*
X74803500Y-113060190D01*
X74809748Y-113118299D01*
X74858789Y-113249780D01*
X74892351Y-113294612D01*
X74942884Y-113362116D01*
X75055222Y-113446212D01*
X75110334Y-113466767D01*
X75128058Y-113480035D01*
X75148203Y-113489235D01*
X75155484Y-113500565D01*
X75166266Y-113508636D01*
X75174004Y-113529383D01*
X75185977Y-113548013D01*
X75189128Y-113569930D01*
X75190684Y-113574101D01*
X75191000Y-113582948D01*
X75191000Y-113747050D01*
X75171315Y-113814089D01*
X75118511Y-113859844D01*
X75110335Y-113863231D01*
X75055221Y-113883788D01*
X74942884Y-113967884D01*
X74858789Y-114080219D01*
X74809748Y-114211700D01*
X74803500Y-114269809D01*
X74803500Y-114838190D01*
X74809748Y-114896299D01*
X74829347Y-114948844D01*
X74858788Y-115027778D01*
X74942884Y-115140116D01*
X75055222Y-115224212D01*
X75129816Y-115252034D01*
X75186700Y-115273251D01*
X75244809Y-115279499D01*
X75244826Y-115279500D01*
X75938174Y-115279500D01*
X75938190Y-115279499D01*
X75996299Y-115273251D01*
X76127778Y-115224212D01*
X76201054Y-115169358D01*
X76216945Y-115157462D01*
X76282409Y-115133044D01*
X76350682Y-115147895D01*
X76396794Y-115191630D01*
X76434054Y-115252037D01*
X76555961Y-115373944D01*
X76555965Y-115373947D01*
X76702688Y-115464448D01*
X76702699Y-115464453D01*
X76866347Y-115518680D01*
X76967351Y-115528999D01*
X77566500Y-115528999D01*
X77665640Y-115528999D01*
X77665654Y-115528998D01*
X77766652Y-115518680D01*
X77930300Y-115464453D01*
X77930311Y-115464448D01*
X78077034Y-115373947D01*
X78077038Y-115373944D01*
X78198944Y-115252038D01*
X78198947Y-115252034D01*
X78289448Y-115105311D01*
X78289453Y-115105300D01*
X78343680Y-114941652D01*
X78353999Y-114840654D01*
X78354000Y-114840641D01*
X78354000Y-114804000D01*
X77566500Y-114804000D01*
X77566500Y-115528999D01*
X76967351Y-115528999D01*
X77066500Y-115528998D01*
X77066500Y-114678000D01*
X77086185Y-114610961D01*
X77138989Y-114565206D01*
X77190500Y-114554000D01*
X77316500Y-114554000D01*
X77316500Y-114428000D01*
X77336185Y-114360961D01*
X77388989Y-114315206D01*
X77440500Y-114304000D01*
X78353999Y-114304000D01*
X78353999Y-114267360D01*
X78353998Y-114267345D01*
X78343680Y-114166347D01*
X78289453Y-114002699D01*
X78289448Y-114002688D01*
X78198947Y-113855965D01*
X78198944Y-113855961D01*
X78077038Y-113734055D01*
X78077034Y-113734052D01*
X77930311Y-113643551D01*
X77930298Y-113643545D01*
X77919219Y-113639874D01*
X77861775Y-113600100D01*
X77834954Y-113535583D01*
X77847271Y-113466807D01*
X77883912Y-113422904D01*
X77965116Y-113362116D01*
X78049212Y-113249778D01*
X78049892Y-113247954D01*
X78065105Y-113207168D01*
X78078373Y-113189442D01*
X78087574Y-113169297D01*
X78098906Y-113162014D01*
X78106976Y-113151234D01*
X78127721Y-113143495D01*
X78146352Y-113131523D01*
X78168269Y-113128371D01*
X78172440Y-113126816D01*
X78181287Y-113126500D01*
X78260614Y-113126500D01*
X78327653Y-113146185D01*
X78348295Y-113162819D01*
X78401985Y-113216509D01*
X78401986Y-113216510D01*
X78401988Y-113216511D01*
X78527511Y-113288982D01*
X78527512Y-113288982D01*
X78527515Y-113288984D01*
X78667525Y-113326500D01*
X78667528Y-113326500D01*
X78812472Y-113326500D01*
X78812475Y-113326500D01*
X78952485Y-113288984D01*
X79078015Y-113216509D01*
X79180509Y-113114015D01*
X79252984Y-112988485D01*
X79257494Y-112971654D01*
X84877001Y-112971654D01*
X84887319Y-113072652D01*
X84941546Y-113236300D01*
X84941551Y-113236311D01*
X85032052Y-113383034D01*
X85032055Y-113383038D01*
X85153961Y-113504944D01*
X85153965Y-113504947D01*
X85300688Y-113595448D01*
X85300699Y-113595453D01*
X85464347Y-113649680D01*
X85565352Y-113659999D01*
X85602000Y-113659999D01*
X86102000Y-113659999D01*
X86138640Y-113659999D01*
X86138654Y-113659998D01*
X86239652Y-113649680D01*
X86403300Y-113595453D01*
X86403311Y-113595448D01*
X86550034Y-113504947D01*
X86550038Y-113504944D01*
X86671944Y-113383038D01*
X86671947Y-113383034D01*
X86762448Y-113236311D01*
X86762453Y-113236300D01*
X86816680Y-113072652D01*
X86826999Y-112971654D01*
X86827000Y-112971641D01*
X86827000Y-112922500D01*
X86102000Y-112922500D01*
X86102000Y-113659999D01*
X85602000Y-113659999D01*
X85602000Y-112922500D01*
X84877001Y-112922500D01*
X84877001Y-112971654D01*
X79257494Y-112971654D01*
X79290500Y-112848475D01*
X79290500Y-112703525D01*
X79252984Y-112563515D01*
X79231323Y-112525998D01*
X79180511Y-112437988D01*
X79180506Y-112437982D01*
X79078017Y-112335493D01*
X79078011Y-112335488D01*
X78952488Y-112263017D01*
X78952489Y-112263017D01*
X78941006Y-112259940D01*
X78812475Y-112225500D01*
X78667525Y-112225500D01*
X78538993Y-112259940D01*
X78527511Y-112263017D01*
X78401988Y-112335488D01*
X78401982Y-112335493D01*
X78348295Y-112389181D01*
X78321367Y-112403884D01*
X78295549Y-112420477D01*
X78289348Y-112421368D01*
X78286972Y-112422666D01*
X78260614Y-112425500D01*
X78181287Y-112425500D01*
X78114248Y-112405815D01*
X78068493Y-112353011D01*
X78065105Y-112344832D01*
X78049214Y-112302226D01*
X78049212Y-112302222D01*
X78047923Y-112300500D01*
X77965116Y-112189884D01*
X77856667Y-112108699D01*
X77852780Y-112105789D01*
X77852778Y-112105788D01*
X77826144Y-112095854D01*
X77721299Y-112056748D01*
X77663190Y-112050500D01*
X77663174Y-112050500D01*
X77069826Y-112050500D01*
X77069809Y-112050500D01*
X77011700Y-112056748D01*
X76880219Y-112105789D01*
X76767884Y-112189884D01*
X76683789Y-112302219D01*
X76634748Y-112433700D01*
X76628500Y-112491809D01*
X76628500Y-113060190D01*
X76634748Y-113118299D01*
X76683789Y-113249780D01*
X76717351Y-113294612D01*
X76767884Y-113362116D01*
X76818403Y-113399934D01*
X76860273Y-113455867D01*
X76865257Y-113525559D01*
X76831772Y-113586882D01*
X76783095Y-113616906D01*
X76702699Y-113643546D01*
X76702688Y-113643551D01*
X76555965Y-113734052D01*
X76555961Y-113734055D01*
X76434054Y-113855962D01*
X76396794Y-113916370D01*
X76344845Y-113963094D01*
X76275883Y-113974315D01*
X76216945Y-113950538D01*
X76127782Y-113883790D01*
X76127779Y-113883789D01*
X76127778Y-113883788D01*
X76040125Y-113851095D01*
X75996297Y-113834748D01*
X75988757Y-113832967D01*
X75989281Y-113830747D01*
X75968457Y-113821237D01*
X75938127Y-113808649D01*
X75936845Y-113806800D01*
X75934797Y-113805865D01*
X75917031Y-113778221D01*
X75898318Y-113751229D01*
X75897858Y-113748387D01*
X75897023Y-113747087D01*
X75892000Y-113712152D01*
X75892000Y-113582948D01*
X75911685Y-113515909D01*
X75964489Y-113470154D01*
X75972645Y-113466775D01*
X76027778Y-113446212D01*
X76140116Y-113362116D01*
X76224212Y-113249778D01*
X76273251Y-113118299D01*
X76273712Y-113114011D01*
X76279499Y-113060190D01*
X76279500Y-113060173D01*
X76279500Y-112491826D01*
X76279499Y-112491809D01*
X76273251Y-112433700D01*
X76250739Y-112373345D01*
X76224212Y-112302222D01*
X76140116Y-112189884D01*
X76027778Y-112105788D01*
X76015748Y-112101301D01*
X75972665Y-112085231D01*
X75916732Y-112043359D01*
X75892316Y-111977894D01*
X75892000Y-111969050D01*
X75892000Y-110769500D01*
X75911685Y-110702461D01*
X75964489Y-110656706D01*
X76016000Y-110645500D01*
X76611261Y-110645500D01*
X76633971Y-110642191D01*
X76679393Y-110635573D01*
X76784483Y-110584198D01*
X76867198Y-110501483D01*
X76918573Y-110396393D01*
X76918776Y-110395001D01*
X78785988Y-110395001D01*
X78793442Y-110451627D01*
X78793444Y-110451633D01*
X78853899Y-110597585D01*
X78950075Y-110722924D01*
X79075413Y-110819100D01*
X79221365Y-110879554D01*
X79221369Y-110879555D01*
X79338676Y-110894999D01*
X79890499Y-110894999D01*
X80290500Y-110894999D01*
X80842324Y-110894999D01*
X80959628Y-110879557D01*
X80959633Y-110879555D01*
X81105585Y-110819100D01*
X81230924Y-110722924D01*
X81327100Y-110597586D01*
X81387555Y-110451631D01*
X81395012Y-110395000D01*
X80290500Y-110395000D01*
X80290500Y-110894999D01*
X79890499Y-110894999D01*
X79890500Y-110894998D01*
X79890500Y-110395000D01*
X78785990Y-110395000D01*
X78785988Y-110395001D01*
X76918776Y-110395001D01*
X76928500Y-110328260D01*
X76928500Y-110061740D01*
X76918776Y-109995000D01*
X78785987Y-109995000D01*
X81395010Y-109995000D01*
X81395011Y-109994998D01*
X81387558Y-109938377D01*
X81387555Y-109938368D01*
X81378892Y-109917453D01*
X81371423Y-109847983D01*
X81378892Y-109822546D01*
X81387556Y-109801629D01*
X81395012Y-109745000D01*
X78785990Y-109745000D01*
X78785988Y-109745001D01*
X78793442Y-109801627D01*
X78793443Y-109801629D01*
X78802108Y-109822549D01*
X78809576Y-109892018D01*
X78802109Y-109917449D01*
X78793443Y-109938370D01*
X78785987Y-109995000D01*
X76918776Y-109995000D01*
X76918573Y-109993607D01*
X76880969Y-109916686D01*
X76878285Y-109908459D01*
X76877492Y-109881842D01*
X76873010Y-109855587D01*
X76876370Y-109844142D01*
X76876206Y-109838621D01*
X76879695Y-109832818D01*
X76884769Y-109815540D01*
X76918573Y-109746393D01*
X76928500Y-109678260D01*
X76928500Y-109411740D01*
X76918776Y-109345000D01*
X78785987Y-109345000D01*
X79333358Y-109345000D01*
X79342326Y-109345325D01*
X79344739Y-109345500D01*
X79344740Y-109345500D01*
X80836261Y-109345500D01*
X80838674Y-109345325D01*
X80847642Y-109345000D01*
X81395010Y-109345000D01*
X81409243Y-109328770D01*
X81411134Y-109316648D01*
X81457515Y-109264393D01*
X81523306Y-109245500D01*
X81651142Y-109245500D01*
X81651144Y-109245500D01*
X81740288Y-109221614D01*
X81745876Y-109218387D01*
X81745880Y-109218386D01*
X81820205Y-109175474D01*
X81820204Y-109175474D01*
X81820212Y-109175470D01*
X82150862Y-108844818D01*
X82212185Y-108811334D01*
X82238543Y-108808500D01*
X83108713Y-108808500D01*
X83175752Y-108828185D01*
X83221507Y-108880989D01*
X83224895Y-108889168D01*
X83240785Y-108931773D01*
X83240787Y-108931777D01*
X83240788Y-108931778D01*
X83324884Y-109044116D01*
X83437222Y-109128212D01*
X83511816Y-109156034D01*
X83568700Y-109177251D01*
X83626809Y-109183499D01*
X83626826Y-109183500D01*
X84220174Y-109183500D01*
X84220190Y-109183499D01*
X84278299Y-109177251D01*
X84309697Y-109165540D01*
X84409778Y-109128212D01*
X84522116Y-109044116D01*
X84606212Y-108931778D01*
X84655251Y-108800299D01*
X84657563Y-108778793D01*
X84661499Y-108742190D01*
X84661500Y-108742173D01*
X84661500Y-108173826D01*
X84661499Y-108173809D01*
X84655251Y-108115700D01*
X84638335Y-108070347D01*
X84606212Y-107984222D01*
X84603715Y-107980887D01*
X84571720Y-107938147D01*
X84522116Y-107871884D01*
X84432004Y-107804426D01*
X84409780Y-107787789D01*
X84409778Y-107787788D01*
X84374996Y-107774815D01*
X84278299Y-107738748D01*
X84220190Y-107732500D01*
X84220174Y-107732500D01*
X83626826Y-107732500D01*
X83626809Y-107732500D01*
X83568700Y-107738748D01*
X83437219Y-107787789D01*
X83324884Y-107871884D01*
X83240787Y-107984222D01*
X83240785Y-107984226D01*
X83224895Y-108026832D01*
X83183024Y-108082766D01*
X83117560Y-108107184D01*
X83108713Y-108107500D01*
X82238544Y-108107500D01*
X82171505Y-108087815D01*
X82150863Y-108071181D01*
X82044213Y-107964531D01*
X82044208Y-107964527D01*
X81964290Y-107918387D01*
X81964289Y-107918386D01*
X81964288Y-107918386D01*
X81875144Y-107894500D01*
X81875143Y-107894500D01*
X81099544Y-107894500D01*
X81032505Y-107874815D01*
X81011863Y-107858181D01*
X81009485Y-107855803D01*
X80904391Y-107804426D01*
X80836261Y-107794500D01*
X80836260Y-107794500D01*
X79344740Y-107794500D01*
X79344739Y-107794500D01*
X79276608Y-107804426D01*
X79171514Y-107855803D01*
X79088803Y-107938514D01*
X79037426Y-108043608D01*
X79027500Y-108111739D01*
X79027500Y-108378260D01*
X79037426Y-108446392D01*
X79037426Y-108446393D01*
X79071230Y-108515541D01*
X79082988Y-108584414D01*
X79071230Y-108624459D01*
X79037426Y-108693606D01*
X79037426Y-108693607D01*
X79027500Y-108761739D01*
X79027500Y-108896514D01*
X79007815Y-108963553D01*
X78978987Y-108994889D01*
X78950078Y-109017071D01*
X78853899Y-109142413D01*
X78793444Y-109288368D01*
X78785987Y-109345000D01*
X76918776Y-109345000D01*
X76918573Y-109343607D01*
X76880969Y-109266686D01*
X76878285Y-109258459D01*
X76877492Y-109231842D01*
X76873010Y-109205587D01*
X76876370Y-109194142D01*
X76876206Y-109188621D01*
X76879695Y-109182818D01*
X76884769Y-109165540D01*
X76918573Y-109096393D01*
X76928500Y-109028260D01*
X76928500Y-108761740D01*
X76926108Y-108745326D01*
X76918573Y-108693608D01*
X76918572Y-108693606D01*
X76884768Y-108624458D01*
X76873010Y-108555587D01*
X76884769Y-108515540D01*
X76918573Y-108446393D01*
X76928500Y-108378260D01*
X76928500Y-108111740D01*
X76924278Y-108082766D01*
X76918573Y-108043608D01*
X76918573Y-108043607D01*
X76867198Y-107938517D01*
X76867196Y-107938515D01*
X76867196Y-107938514D01*
X76784485Y-107855803D01*
X76679391Y-107804426D01*
X76611261Y-107794500D01*
X76611260Y-107794500D01*
X76119500Y-107794500D01*
X76052461Y-107774815D01*
X76006706Y-107722011D01*
X75995500Y-107670500D01*
X75995500Y-106470948D01*
X76015185Y-106403909D01*
X76067989Y-106358154D01*
X76076145Y-106354775D01*
X76131278Y-106334212D01*
X76243616Y-106250116D01*
X76327712Y-106137778D01*
X76376751Y-106006299D01*
X76377212Y-106002011D01*
X76382999Y-105948190D01*
X76383000Y-105948173D01*
X76383000Y-105379826D01*
X76382999Y-105379809D01*
X76376751Y-105321700D01*
X76348591Y-105246202D01*
X76327712Y-105190222D01*
X76243616Y-105077884D01*
X76131278Y-104993788D01*
X76126484Y-104992000D01*
X76076165Y-104973231D01*
X76058440Y-104959962D01*
X76038297Y-104950763D01*
X76031014Y-104939430D01*
X76020232Y-104931359D01*
X76012494Y-104910613D01*
X76000523Y-104891985D01*
X75997371Y-104870063D01*
X75995816Y-104865894D01*
X75995500Y-104857050D01*
X75995500Y-104691643D01*
X76015185Y-104624604D01*
X76067989Y-104578849D01*
X76076146Y-104575469D01*
X76127778Y-104556212D01*
X76216945Y-104489462D01*
X76282409Y-104465044D01*
X76350682Y-104479895D01*
X76396794Y-104523630D01*
X76434054Y-104584037D01*
X76555961Y-104705944D01*
X76555965Y-104705947D01*
X76702688Y-104796448D01*
X76702699Y-104796453D01*
X76854838Y-104846867D01*
X76912283Y-104886640D01*
X76939106Y-104951155D01*
X76926791Y-105019931D01*
X76890146Y-105063839D01*
X76871384Y-105077883D01*
X76787289Y-105190219D01*
X76738248Y-105321700D01*
X76732000Y-105379809D01*
X76732000Y-105948190D01*
X76738248Y-106006299D01*
X76787289Y-106137780D01*
X76820851Y-106182612D01*
X76871384Y-106250116D01*
X76983722Y-106334212D01*
X77070006Y-106366394D01*
X77115200Y-106383251D01*
X77173309Y-106389499D01*
X77173326Y-106389500D01*
X77766674Y-106389500D01*
X77766690Y-106389499D01*
X77824799Y-106383251D01*
X77836585Y-106378855D01*
X77956278Y-106334212D01*
X78068616Y-106250116D01*
X78152712Y-106137778D01*
X78162038Y-106112773D01*
X78203907Y-106056841D01*
X78269371Y-106032422D01*
X78337644Y-106047272D01*
X78365901Y-106068425D01*
X78401985Y-106104509D01*
X78401986Y-106104510D01*
X78401988Y-106104511D01*
X78527511Y-106176982D01*
X78527512Y-106176982D01*
X78527515Y-106176984D01*
X78667525Y-106214500D01*
X78667528Y-106214500D01*
X78812472Y-106214500D01*
X78812475Y-106214500D01*
X78952485Y-106176984D01*
X79058140Y-106115984D01*
X88188000Y-106115984D01*
X88188000Y-106308015D01*
X88218040Y-106497684D01*
X88277383Y-106680321D01*
X88364561Y-106851415D01*
X88385798Y-106880646D01*
X89008000Y-106258445D01*
X89008000Y-106264661D01*
X89035259Y-106366394D01*
X89087920Y-106457606D01*
X89162394Y-106532080D01*
X89253606Y-106584741D01*
X89355339Y-106612000D01*
X89361554Y-106612000D01*
X88739351Y-107234200D01*
X88739352Y-107234201D01*
X88768577Y-107255434D01*
X88939678Y-107342616D01*
X89122315Y-107401959D01*
X89311985Y-107432000D01*
X89504015Y-107432000D01*
X89693684Y-107401959D01*
X89876321Y-107342616D01*
X90047419Y-107255436D01*
X90076646Y-107234201D01*
X90076646Y-107234200D01*
X89454447Y-106612000D01*
X89460661Y-106612000D01*
X89562394Y-106584741D01*
X89653606Y-106532080D01*
X89728080Y-106457606D01*
X89780741Y-106366394D01*
X89808000Y-106264661D01*
X89808000Y-106258446D01*
X90430200Y-106880646D01*
X90430201Y-106880646D01*
X90451436Y-106851419D01*
X90538616Y-106680321D01*
X90597959Y-106497684D01*
X90628000Y-106308015D01*
X90628000Y-106115984D01*
X90597959Y-105926315D01*
X90538616Y-105743678D01*
X90451434Y-105572577D01*
X90430201Y-105543352D01*
X90430200Y-105543351D01*
X89808000Y-106165552D01*
X89808000Y-106159339D01*
X89780741Y-106057606D01*
X89728080Y-105966394D01*
X89653606Y-105891920D01*
X89562394Y-105839259D01*
X89460661Y-105812000D01*
X89454447Y-105812000D01*
X90076646Y-105189798D01*
X90047415Y-105168561D01*
X89876321Y-105081383D01*
X89693684Y-105022040D01*
X89504015Y-104992000D01*
X89311985Y-104992000D01*
X89122315Y-105022040D01*
X88939678Y-105081383D01*
X88768578Y-105168564D01*
X88739352Y-105189798D01*
X88739351Y-105189798D01*
X89361554Y-105812000D01*
X89355339Y-105812000D01*
X89253606Y-105839259D01*
X89162394Y-105891920D01*
X89087920Y-105966394D01*
X89035259Y-106057606D01*
X89008000Y-106159339D01*
X89008000Y-106165553D01*
X88385798Y-105543351D01*
X88385798Y-105543352D01*
X88364564Y-105572578D01*
X88277383Y-105743678D01*
X88218040Y-105926315D01*
X88188000Y-106115984D01*
X79058140Y-106115984D01*
X79078015Y-106104509D01*
X79180509Y-106002015D01*
X79252984Y-105876485D01*
X79290500Y-105736475D01*
X79290500Y-105591525D01*
X79252984Y-105451515D01*
X79211584Y-105379809D01*
X79180511Y-105325988D01*
X79180506Y-105325982D01*
X79078017Y-105223493D01*
X79078011Y-105223488D01*
X78952488Y-105151017D01*
X78952489Y-105151017D01*
X78941006Y-105147940D01*
X78812475Y-105113500D01*
X78667525Y-105113500D01*
X78538993Y-105147940D01*
X78527511Y-105151017D01*
X78401988Y-105223488D01*
X78401981Y-105223494D01*
X78365900Y-105259575D01*
X78304577Y-105293060D01*
X78234885Y-105288074D01*
X78178952Y-105246202D01*
X78162038Y-105215225D01*
X78152714Y-105190226D01*
X78152712Y-105190222D01*
X78136499Y-105168564D01*
X78068616Y-105077884D01*
X77956278Y-104993788D01*
X77956277Y-104993787D01*
X77949178Y-104988473D01*
X77950696Y-104986444D01*
X77910755Y-104946507D01*
X77895899Y-104878235D01*
X77920313Y-104812769D01*
X77954487Y-104781535D01*
X78077039Y-104705943D01*
X78198944Y-104584038D01*
X78198947Y-104584034D01*
X78289448Y-104437311D01*
X78289453Y-104437300D01*
X78343680Y-104273652D01*
X78353999Y-104172654D01*
X78354000Y-104172641D01*
X78354000Y-104136000D01*
X77440500Y-104136000D01*
X77373461Y-104116315D01*
X77327706Y-104063511D01*
X77316500Y-104012000D01*
X77316500Y-103886000D01*
X77190500Y-103886000D01*
X77123461Y-103866315D01*
X77077706Y-103813511D01*
X77066500Y-103762000D01*
X77066500Y-103636000D01*
X77566500Y-103636000D01*
X78353999Y-103636000D01*
X78353999Y-103599360D01*
X78353998Y-103599345D01*
X78343680Y-103498347D01*
X78289453Y-103334699D01*
X78289448Y-103334688D01*
X78198947Y-103187965D01*
X78198944Y-103187961D01*
X78077038Y-103066055D01*
X78077034Y-103066052D01*
X77930311Y-102975551D01*
X77930300Y-102975546D01*
X77766652Y-102921319D01*
X77665654Y-102911000D01*
X77566500Y-102911000D01*
X77566500Y-103636000D01*
X77066500Y-103636000D01*
X77066500Y-102910999D01*
X76967360Y-102911000D01*
X76967344Y-102911001D01*
X76866347Y-102921319D01*
X76702699Y-102975546D01*
X76702688Y-102975551D01*
X76555965Y-103066052D01*
X76555961Y-103066055D01*
X76434054Y-103187962D01*
X76396794Y-103248370D01*
X76344845Y-103295094D01*
X76275883Y-103306315D01*
X76216945Y-103282538D01*
X76127782Y-103215790D01*
X76127779Y-103215789D01*
X76127778Y-103215788D01*
X76083484Y-103199267D01*
X75996299Y-103166748D01*
X75938190Y-103160500D01*
X75938174Y-103160500D01*
X75244826Y-103160500D01*
X75244809Y-103160500D01*
X75186700Y-103166748D01*
X75055219Y-103215789D01*
X74942884Y-103299884D01*
X74858789Y-103412219D01*
X74809748Y-103543700D01*
X74803500Y-103601809D01*
X74803500Y-104170190D01*
X74809748Y-104228299D01*
X74858789Y-104359780D01*
X74860451Y-104362000D01*
X74942884Y-104472116D01*
X75055222Y-104556212D01*
X75186701Y-104605251D01*
X75186702Y-104605251D01*
X75187863Y-104605525D01*
X75188147Y-104605485D01*
X75188636Y-104605708D01*
X75194243Y-104607033D01*
X75193979Y-104608148D01*
X75217987Y-104619112D01*
X75248298Y-104631665D01*
X75249609Y-104633554D01*
X75251703Y-104634510D01*
X75269442Y-104662113D01*
X75288151Y-104689054D01*
X75288621Y-104691956D01*
X75289477Y-104693288D01*
X75294500Y-104728223D01*
X75294500Y-104857050D01*
X75274815Y-104924089D01*
X75222011Y-104969844D01*
X75213835Y-104973231D01*
X75158721Y-104993788D01*
X75046384Y-105077884D01*
X74962289Y-105190219D01*
X74913248Y-105321700D01*
X74907000Y-105379809D01*
X74907000Y-105948190D01*
X74913248Y-106006299D01*
X74962289Y-106137780D01*
X74995851Y-106182612D01*
X75046384Y-106250116D01*
X75158722Y-106334212D01*
X75213834Y-106354767D01*
X75269766Y-106396636D01*
X75294184Y-106462101D01*
X75294500Y-106470948D01*
X75294500Y-107670500D01*
X75274815Y-107737539D01*
X75222011Y-107783294D01*
X75170500Y-107794500D01*
X75119739Y-107794500D01*
X75051608Y-107804426D01*
X74946514Y-107855803D01*
X74863803Y-107938514D01*
X74812426Y-108043608D01*
X74803164Y-108107184D01*
X74802500Y-108111740D01*
X74802500Y-108378260D01*
X74806050Y-108402624D01*
X74796235Y-108471801D01*
X74750579Y-108524690D01*
X74683576Y-108544500D01*
X73531544Y-108544500D01*
X73464505Y-108524815D01*
X73443863Y-108508181D01*
X72962713Y-108027031D01*
X72962708Y-108027027D01*
X72882791Y-107980887D01*
X72882789Y-107980886D01*
X72880015Y-107980143D01*
X72880015Y-107980142D01*
X72801108Y-107959000D01*
X72793644Y-107957000D01*
X72793643Y-107957000D01*
X71926949Y-107957000D01*
X71859910Y-107937315D01*
X71814155Y-107884511D01*
X71810773Y-107876349D01*
X71790212Y-107821222D01*
X71788394Y-107818794D01*
X71761819Y-107783294D01*
X71706116Y-107708884D01*
X71625318Y-107648399D01*
X71593780Y-107624789D01*
X71593778Y-107624788D01*
X71547966Y-107607701D01*
X71462299Y-107575748D01*
X71404190Y-107569500D01*
X71404174Y-107569500D01*
X70835826Y-107569500D01*
X70835809Y-107569500D01*
X70777700Y-107575748D01*
X70646219Y-107624789D01*
X70533884Y-107708884D01*
X70449789Y-107821219D01*
X70449788Y-107821222D01*
X70429231Y-107876335D01*
X70415962Y-107894060D01*
X70406764Y-107914203D01*
X70395432Y-107921485D01*
X70387361Y-107932267D01*
X70366615Y-107940004D01*
X70347986Y-107951977D01*
X70326067Y-107955128D01*
X70321897Y-107956684D01*
X70313051Y-107957000D01*
X70225293Y-107957000D01*
X70158254Y-107937315D01*
X70137612Y-107920681D01*
X70021358Y-107804427D01*
X69886462Y-107669530D01*
X69886461Y-107669529D01*
X69886458Y-107669527D01*
X69806540Y-107623387D01*
X69806539Y-107623386D01*
X69806538Y-107623386D01*
X69717394Y-107599500D01*
X69717393Y-107599500D01*
X69545287Y-107599500D01*
X69478248Y-107579815D01*
X69432493Y-107527011D01*
X69429105Y-107518832D01*
X69413214Y-107476226D01*
X69413212Y-107476222D01*
X69399209Y-107457516D01*
X69329116Y-107363884D01*
X69216778Y-107279788D01*
X69194482Y-107271472D01*
X69111665Y-107240582D01*
X69055732Y-107198711D01*
X69031316Y-107133246D01*
X69031000Y-107124401D01*
X69031000Y-106734358D01*
X69031000Y-106734356D01*
X69007114Y-106645212D01*
X68987939Y-106612000D01*
X68960973Y-106565294D01*
X68960970Y-106565291D01*
X68960969Y-106565288D01*
X68895712Y-106500031D01*
X66971142Y-104575461D01*
X65030167Y-102634485D01*
X64996682Y-102573162D01*
X65001666Y-102503470D01*
X65010457Y-102484811D01*
X65073344Y-102375888D01*
X65161158Y-102163887D01*
X65220548Y-101942238D01*
X65250500Y-101714734D01*
X65250500Y-101485266D01*
X65249216Y-101475517D01*
X65248346Y-101468905D01*
X65220548Y-101257762D01*
X65161158Y-101036113D01*
X65096006Y-100878822D01*
X65073349Y-100824123D01*
X65073346Y-100824117D01*
X65073344Y-100824112D01*
X65013204Y-100719947D01*
X74192000Y-100719947D01*
X74192000Y-100956052D01*
X74228934Y-101189247D01*
X74301897Y-101413802D01*
X74409087Y-101624174D01*
X74469338Y-101707104D01*
X74469340Y-101707105D01*
X75014421Y-101162024D01*
X75027359Y-101193258D01*
X75109437Y-101316097D01*
X75213903Y-101420563D01*
X75336742Y-101502641D01*
X75367974Y-101515578D01*
X74822893Y-102060658D01*
X74905828Y-102120914D01*
X75116197Y-102228102D01*
X75340752Y-102301065D01*
X75340751Y-102301065D01*
X75573948Y-102338000D01*
X75810052Y-102338000D01*
X76043247Y-102301065D01*
X76208846Y-102247258D01*
X88927500Y-102247258D01*
X88927500Y-102476741D01*
X88941196Y-102580767D01*
X88957452Y-102704238D01*
X88993855Y-102840097D01*
X89016842Y-102925887D01*
X89104650Y-103137876D01*
X89104657Y-103137890D01*
X89168443Y-103248370D01*
X89210114Y-103320548D01*
X89219392Y-103336617D01*
X89359081Y-103518661D01*
X89359089Y-103518670D01*
X89521330Y-103680911D01*
X89521338Y-103680918D01*
X89703382Y-103820607D01*
X89703385Y-103820608D01*
X89703388Y-103820611D01*
X89902112Y-103935344D01*
X89902117Y-103935346D01*
X89902123Y-103935349D01*
X89962829Y-103960494D01*
X90114113Y-104023158D01*
X90335762Y-104082548D01*
X90563266Y-104112500D01*
X90563273Y-104112500D01*
X90792727Y-104112500D01*
X90792734Y-104112500D01*
X91020238Y-104082548D01*
X91241887Y-104023158D01*
X91241887Y-104023157D01*
X91245809Y-104022107D01*
X91246301Y-104023946D01*
X91308387Y-104021275D01*
X91366281Y-104053963D01*
X91815181Y-104502863D01*
X91848666Y-104564186D01*
X91851500Y-104590544D01*
X91851500Y-107679917D01*
X91831815Y-107746956D01*
X91779011Y-107792711D01*
X91751692Y-107801534D01*
X91664921Y-107818794D01*
X91664911Y-107818797D01*
X91488299Y-107891951D01*
X91329339Y-107998164D01*
X91194164Y-108133339D01*
X91087951Y-108292299D01*
X91014797Y-108468911D01*
X91014794Y-108468921D01*
X90977500Y-108656411D01*
X90977500Y-108656414D01*
X90977500Y-108847586D01*
X90977500Y-108847588D01*
X90977499Y-108847588D01*
X91014794Y-109035078D01*
X91014797Y-109035088D01*
X91087951Y-109211700D01*
X91194164Y-109370660D01*
X91329339Y-109505835D01*
X91488299Y-109612048D01*
X91664911Y-109685202D01*
X91664916Y-109685204D01*
X91751694Y-109702465D01*
X91813601Y-109734848D01*
X91848176Y-109795563D01*
X91851500Y-109824081D01*
X91851500Y-111271745D01*
X91831815Y-111338784D01*
X91815181Y-111359426D01*
X91736954Y-111437652D01*
X91736951Y-111437657D01*
X91736950Y-111437658D01*
X91732640Y-111446117D01*
X91679352Y-111550698D01*
X91664500Y-111644475D01*
X91664500Y-112007522D01*
X91668254Y-112031224D01*
X91659296Y-112100517D01*
X91633462Y-112138298D01*
X91547318Y-112224442D01*
X91547314Y-112224447D01*
X91463718Y-112365801D01*
X91417899Y-112523513D01*
X91417704Y-112525998D01*
X91417705Y-112526000D01*
X93737295Y-112526000D01*
X93737295Y-112525998D01*
X93737100Y-112523513D01*
X93691281Y-112365801D01*
X93607685Y-112224447D01*
X93607678Y-112224438D01*
X93521538Y-112138298D01*
X93488053Y-112076975D01*
X93486746Y-112031219D01*
X93490500Y-112007519D01*
X93490499Y-111644482D01*
X93475646Y-111550696D01*
X93418050Y-111437658D01*
X93418046Y-111437654D01*
X93418045Y-111437652D01*
X93328347Y-111347954D01*
X93328344Y-111347952D01*
X93328342Y-111347950D01*
X93251517Y-111308805D01*
X93215301Y-111290352D01*
X93121524Y-111275500D01*
X93121519Y-111275500D01*
X92676500Y-111275500D01*
X92609461Y-111255815D01*
X92563706Y-111203011D01*
X92552500Y-111151500D01*
X92552500Y-109571358D01*
X92572185Y-109504319D01*
X92588819Y-109483677D01*
X92701834Y-109370661D01*
X92701835Y-109370660D01*
X92701837Y-109370658D01*
X92808046Y-109211704D01*
X92815321Y-109194142D01*
X92871712Y-109058000D01*
X92881204Y-109035084D01*
X92911856Y-108880989D01*
X92918500Y-108847588D01*
X92918500Y-108744654D01*
X97160001Y-108744654D01*
X97170319Y-108845652D01*
X97224546Y-109009300D01*
X97224551Y-109009311D01*
X97315052Y-109156034D01*
X97315055Y-109156038D01*
X97436961Y-109277944D01*
X97436965Y-109277947D01*
X97583688Y-109368448D01*
X97583699Y-109368453D01*
X97747347Y-109422680D01*
X97848351Y-109432999D01*
X97897499Y-109432998D01*
X97897500Y-109432998D01*
X97897500Y-108708000D01*
X97160001Y-108708000D01*
X97160001Y-108744654D01*
X92918500Y-108744654D01*
X92918500Y-108656411D01*
X92881205Y-108468921D01*
X92881204Y-108468920D01*
X92881204Y-108468916D01*
X92881202Y-108468911D01*
X92808048Y-108292299D01*
X92701835Y-108133339D01*
X92588819Y-108020323D01*
X92555334Y-107959000D01*
X92552500Y-107932642D01*
X92552500Y-106307588D01*
X93517499Y-106307588D01*
X93554794Y-106495078D01*
X93554797Y-106495088D01*
X93627951Y-106671700D01*
X93734164Y-106830660D01*
X93869339Y-106965835D01*
X94028299Y-107072048D01*
X94204911Y-107145202D01*
X94204916Y-107145204D01*
X94204920Y-107145204D01*
X94204921Y-107145205D01*
X94392411Y-107182500D01*
X94392414Y-107182500D01*
X94583588Y-107182500D01*
X94709729Y-107157408D01*
X94771084Y-107145204D01*
X94859394Y-107108625D01*
X94947700Y-107072048D01*
X94947701Y-107072047D01*
X94947704Y-107072046D01*
X95106658Y-106965837D01*
X95241837Y-106830658D01*
X95348046Y-106671704D01*
X95359020Y-106645212D01*
X95384625Y-106583394D01*
X95421204Y-106495084D01*
X95446802Y-106366394D01*
X95458500Y-106307588D01*
X95458500Y-106116411D01*
X95421205Y-105928921D01*
X95421204Y-105928920D01*
X95421204Y-105928916D01*
X95420127Y-105926315D01*
X95348048Y-105752299D01*
X95241835Y-105593339D01*
X95106660Y-105458164D01*
X94947700Y-105351951D01*
X94771088Y-105278797D01*
X94771078Y-105278794D01*
X94583588Y-105241500D01*
X94583586Y-105241500D01*
X94392414Y-105241500D01*
X94392412Y-105241500D01*
X94204921Y-105278794D01*
X94204911Y-105278797D01*
X94028299Y-105351951D01*
X93869339Y-105458164D01*
X93734164Y-105593339D01*
X93627951Y-105752299D01*
X93554797Y-105928911D01*
X93554794Y-105928921D01*
X93517500Y-106116411D01*
X93517500Y-106116414D01*
X93517500Y-106307586D01*
X93517500Y-106307588D01*
X93517499Y-106307588D01*
X92552500Y-106307588D01*
X92552500Y-104347858D01*
X92552500Y-104347856D01*
X92528614Y-104258712D01*
X92511055Y-104228299D01*
X92482469Y-104178787D01*
X91997312Y-103693630D01*
X91963827Y-103632307D01*
X91968811Y-103562615D01*
X91994786Y-103522205D01*
X91994235Y-103521722D01*
X91996910Y-103518669D01*
X91996919Y-103518661D01*
X92136611Y-103336612D01*
X92251344Y-103137888D01*
X92339158Y-102925887D01*
X92398548Y-102704238D01*
X92428500Y-102476734D01*
X92428500Y-102247266D01*
X92426346Y-102230905D01*
X92996000Y-102230905D01*
X92996000Y-102493094D01*
X93030220Y-102753009D01*
X93030222Y-102753020D01*
X93098075Y-103006255D01*
X93198404Y-103248471D01*
X93198409Y-103248482D01*
X93329488Y-103475516D01*
X93329494Y-103475524D01*
X93416080Y-103588365D01*
X94318421Y-102686024D01*
X94331359Y-102717258D01*
X94413437Y-102840097D01*
X94517903Y-102944563D01*
X94640742Y-103026641D01*
X94671974Y-103039577D01*
X93769633Y-103941917D01*
X93769633Y-103941918D01*
X93882475Y-104028505D01*
X93882483Y-104028511D01*
X94109517Y-104159590D01*
X94109528Y-104159595D01*
X94351744Y-104259924D01*
X94604979Y-104327777D01*
X94604990Y-104327779D01*
X94864905Y-104361999D01*
X94864920Y-104362000D01*
X95127080Y-104362000D01*
X95127094Y-104361999D01*
X95387009Y-104327779D01*
X95387020Y-104327777D01*
X95640255Y-104259924D01*
X95882471Y-104159595D01*
X95882482Y-104159590D01*
X96109516Y-104028511D01*
X96109534Y-104028499D01*
X96222365Y-103941919D01*
X96222365Y-103941917D01*
X95320025Y-103039578D01*
X95351258Y-103026641D01*
X95474097Y-102944563D01*
X95578563Y-102840097D01*
X95660641Y-102717258D01*
X95673577Y-102686025D01*
X96575917Y-103588365D01*
X96575919Y-103588365D01*
X96662499Y-103475534D01*
X96662511Y-103475516D01*
X96793590Y-103248482D01*
X96793595Y-103248471D01*
X96893924Y-103006255D01*
X96961777Y-102753020D01*
X96961779Y-102753009D01*
X96995999Y-102493094D01*
X96996000Y-102493080D01*
X96996000Y-102230919D01*
X96995999Y-102230905D01*
X96961779Y-101970990D01*
X96961777Y-101970979D01*
X96893924Y-101717744D01*
X96793595Y-101475528D01*
X96793590Y-101475517D01*
X96662511Y-101248483D01*
X96662505Y-101248475D01*
X96575918Y-101135633D01*
X96575917Y-101135633D01*
X95673577Y-102037973D01*
X95660641Y-102006742D01*
X95578563Y-101883903D01*
X95474097Y-101779437D01*
X95351258Y-101697359D01*
X95320023Y-101684421D01*
X96222365Y-100782080D01*
X96109524Y-100695494D01*
X96109516Y-100695488D01*
X95882482Y-100564409D01*
X95882471Y-100564404D01*
X95640255Y-100464075D01*
X95387020Y-100396222D01*
X95387009Y-100396220D01*
X95127094Y-100362000D01*
X94864905Y-100362000D01*
X94604990Y-100396220D01*
X94604979Y-100396222D01*
X94351744Y-100464075D01*
X94109528Y-100564404D01*
X94109517Y-100564409D01*
X93882471Y-100695496D01*
X93769633Y-100782079D01*
X93769633Y-100782080D01*
X94671974Y-101684421D01*
X94640742Y-101697359D01*
X94517903Y-101779437D01*
X94413437Y-101883903D01*
X94331359Y-102006742D01*
X94318421Y-102037974D01*
X93416080Y-101135633D01*
X93416079Y-101135633D01*
X93329496Y-101248471D01*
X93198409Y-101475517D01*
X93198404Y-101475528D01*
X93098075Y-101717744D01*
X93030222Y-101970979D01*
X93030220Y-101970990D01*
X92996000Y-102230905D01*
X92426346Y-102230905D01*
X92398548Y-102019762D01*
X92339158Y-101798113D01*
X92267108Y-101624169D01*
X92251349Y-101586123D01*
X92251346Y-101586117D01*
X92251344Y-101586112D01*
X92136611Y-101387388D01*
X92136608Y-101387385D01*
X92136607Y-101387382D01*
X92027154Y-101244742D01*
X91996919Y-101205339D01*
X91996918Y-101205338D01*
X91996911Y-101205330D01*
X91834670Y-101043089D01*
X91834661Y-101043081D01*
X91685218Y-100928408D01*
X91652616Y-100903392D01*
X91652615Y-100903391D01*
X91652612Y-100903389D01*
X91453888Y-100788656D01*
X91453876Y-100788650D01*
X91241887Y-100700842D01*
X91221905Y-100695488D01*
X91020238Y-100641452D01*
X90982215Y-100636446D01*
X90792741Y-100611500D01*
X90792734Y-100611500D01*
X90563266Y-100611500D01*
X90563258Y-100611500D01*
X90346715Y-100640009D01*
X90335762Y-100641452D01*
X90242076Y-100666554D01*
X90114112Y-100700842D01*
X89902123Y-100788650D01*
X89902109Y-100788657D01*
X89703382Y-100903392D01*
X89521338Y-101043081D01*
X89359081Y-101205338D01*
X89219392Y-101387382D01*
X89104657Y-101586109D01*
X89104650Y-101586123D01*
X89016842Y-101798112D01*
X89016842Y-101798113D01*
X88967757Y-101981305D01*
X88957453Y-102019759D01*
X88957451Y-102019770D01*
X88927500Y-102247258D01*
X76208846Y-102247258D01*
X76267802Y-102228102D01*
X76454998Y-102132722D01*
X76478163Y-102120918D01*
X76478169Y-102120914D01*
X76561104Y-102060658D01*
X76561105Y-102060658D01*
X76016024Y-101515578D01*
X76047258Y-101502641D01*
X76170097Y-101420563D01*
X76274563Y-101316097D01*
X76356641Y-101193258D01*
X76369578Y-101162024D01*
X76914658Y-101707105D01*
X76914658Y-101707104D01*
X76974914Y-101624169D01*
X76974918Y-101624163D01*
X77082102Y-101413802D01*
X77155065Y-101189247D01*
X77192000Y-100956052D01*
X77192000Y-100719947D01*
X77155065Y-100486752D01*
X77082102Y-100262197D01*
X76974914Y-100051828D01*
X76914658Y-99968894D01*
X76914658Y-99968893D01*
X76369577Y-100513974D01*
X76356641Y-100482742D01*
X76274563Y-100359903D01*
X76170097Y-100255437D01*
X76047258Y-100173359D01*
X76016024Y-100160421D01*
X76561105Y-99615340D01*
X76561104Y-99615338D01*
X76478174Y-99555087D01*
X76267802Y-99447897D01*
X76043247Y-99374934D01*
X76043248Y-99374934D01*
X75810052Y-99338000D01*
X75573948Y-99338000D01*
X75340752Y-99374934D01*
X75116197Y-99447897D01*
X74905830Y-99555084D01*
X74822894Y-99615340D01*
X75367975Y-100160421D01*
X75336742Y-100173359D01*
X75213903Y-100255437D01*
X75109437Y-100359903D01*
X75027359Y-100482742D01*
X75014421Y-100513975D01*
X74469340Y-99968894D01*
X74409084Y-100051830D01*
X74301897Y-100262197D01*
X74228934Y-100486752D01*
X74192000Y-100719947D01*
X65013204Y-100719947D01*
X64958611Y-100625388D01*
X64958608Y-100625385D01*
X64958607Y-100625382D01*
X64818918Y-100443338D01*
X64818911Y-100443330D01*
X64656670Y-100281089D01*
X64656661Y-100281081D01*
X64474617Y-100141392D01*
X64432060Y-100116822D01*
X64275888Y-100026656D01*
X64275876Y-100026650D01*
X64063887Y-99938842D01*
X64043905Y-99933488D01*
X63842238Y-99879452D01*
X63804215Y-99874446D01*
X63614741Y-99849500D01*
X63614734Y-99849500D01*
X63385266Y-99849500D01*
X63385258Y-99849500D01*
X63168715Y-99878009D01*
X63157762Y-99879452D01*
X63064076Y-99904554D01*
X62936112Y-99938842D01*
X62724123Y-100026650D01*
X62724109Y-100026657D01*
X62525382Y-100141392D01*
X62343338Y-100281081D01*
X62181081Y-100443338D01*
X62041392Y-100625382D01*
X61926657Y-100824109D01*
X61926650Y-100824123D01*
X61838842Y-101036112D01*
X61838842Y-101036113D01*
X61781941Y-101248475D01*
X61779453Y-101257759D01*
X61779451Y-101257770D01*
X61749500Y-101485258D01*
X61749500Y-101714741D01*
X61758018Y-101779437D01*
X61779452Y-101942238D01*
X61833308Y-102143233D01*
X61838842Y-102163887D01*
X61926650Y-102375876D01*
X61926657Y-102375890D01*
X62041392Y-102574617D01*
X62181081Y-102756661D01*
X62181089Y-102756670D01*
X62343330Y-102918911D01*
X62343338Y-102918918D01*
X62525382Y-103058607D01*
X62525385Y-103058608D01*
X62525388Y-103058611D01*
X62724112Y-103173344D01*
X62724117Y-103173346D01*
X62724123Y-103173349D01*
X62815480Y-103211190D01*
X62936113Y-103261158D01*
X63157762Y-103320548D01*
X63385266Y-103350500D01*
X63385273Y-103350500D01*
X63614727Y-103350500D01*
X63614734Y-103350500D01*
X63842238Y-103320548D01*
X64063887Y-103261158D01*
X64260017Y-103179918D01*
X64275879Y-103173348D01*
X64275880Y-103173346D01*
X64275888Y-103173344D01*
X64384805Y-103110460D01*
X64452703Y-103093988D01*
X64518730Y-103116840D01*
X64534485Y-103130167D01*
X68293681Y-106889362D01*
X68308384Y-106916289D01*
X68324977Y-106942108D01*
X68325868Y-106948308D01*
X68327166Y-106950685D01*
X68330000Y-106977043D01*
X68330000Y-107124401D01*
X68310315Y-107191440D01*
X68257511Y-107237195D01*
X68249335Y-107240582D01*
X68144221Y-107279788D01*
X68031884Y-107363884D01*
X67947788Y-107476221D01*
X67934181Y-107512703D01*
X67892309Y-107568636D01*
X67826845Y-107593052D01*
X67758572Y-107578200D01*
X67709167Y-107528794D01*
X67701819Y-107512703D01*
X67697154Y-107500198D01*
X67688212Y-107476222D01*
X67604116Y-107363884D01*
X67504856Y-107289578D01*
X67491780Y-107279789D01*
X67491778Y-107279788D01*
X67465144Y-107269854D01*
X67360299Y-107230748D01*
X67302190Y-107224500D01*
X67302174Y-107224500D01*
X66608826Y-107224500D01*
X66608809Y-107224500D01*
X66550700Y-107230748D01*
X66419219Y-107279789D01*
X66306884Y-107363884D01*
X66222787Y-107476222D01*
X66222785Y-107476226D01*
X66206895Y-107518832D01*
X66165024Y-107574766D01*
X66099560Y-107599184D01*
X66090713Y-107599500D01*
X63188544Y-107599500D01*
X63159106Y-107590855D01*
X63129116Y-107584332D01*
X63124099Y-107580576D01*
X63121505Y-107579815D01*
X63100862Y-107563181D01*
X63032818Y-107495136D01*
X62999334Y-107433812D01*
X62996500Y-107407455D01*
X62996500Y-106629823D01*
X62996499Y-106629821D01*
X62981967Y-106556764D01*
X62981966Y-106556760D01*
X62926601Y-106473899D01*
X62871235Y-106436905D01*
X62843739Y-106418533D01*
X62843735Y-106418532D01*
X62770677Y-106404000D01*
X62770674Y-106404000D01*
X61721326Y-106404000D01*
X61721324Y-106404000D01*
X61636283Y-106420916D01*
X61635462Y-106416791D01*
X61588897Y-106421764D01*
X61585733Y-106420835D01*
X61585717Y-106420916D01*
X61500676Y-106404000D01*
X61500674Y-106404000D01*
X60451326Y-106404000D01*
X60451323Y-106404000D01*
X60378264Y-106418532D01*
X60378260Y-106418533D01*
X60295399Y-106473899D01*
X60240033Y-106556760D01*
X60240032Y-106556764D01*
X60225500Y-106629821D01*
X60225500Y-107475500D01*
X60205815Y-107542539D01*
X60153011Y-107588294D01*
X60101500Y-107599500D01*
X57850739Y-107599500D01*
X57783700Y-107579815D01*
X57737945Y-107527011D01*
X57727449Y-107488754D01*
X57726102Y-107476226D01*
X57724091Y-107457517D01*
X57673796Y-107322669D01*
X57673795Y-107322668D01*
X57673793Y-107322664D01*
X57587547Y-107207455D01*
X57587544Y-107207452D01*
X57472335Y-107121206D01*
X57472328Y-107121202D01*
X57337482Y-107070908D01*
X57337483Y-107070908D01*
X57277883Y-107064501D01*
X57277881Y-107064500D01*
X57277873Y-107064500D01*
X57277864Y-107064500D01*
X54482129Y-107064500D01*
X54482123Y-107064501D01*
X54422516Y-107070908D01*
X54287671Y-107121202D01*
X54287664Y-107121206D01*
X54172455Y-107207452D01*
X54172452Y-107207455D01*
X54086206Y-107322664D01*
X54086202Y-107322671D01*
X54080682Y-107337473D01*
X54038811Y-107393407D01*
X53973346Y-107417824D01*
X53905073Y-107402972D01*
X53855668Y-107353567D01*
X53840500Y-107294140D01*
X53840500Y-106220523D01*
X53860185Y-106153484D01*
X53912989Y-106107729D01*
X53982147Y-106097785D01*
X54045703Y-106126810D01*
X54052181Y-106132842D01*
X54061654Y-106142315D01*
X54210875Y-106234356D01*
X54210880Y-106234358D01*
X54377302Y-106289505D01*
X54377309Y-106289506D01*
X54480019Y-106299999D01*
X55879999Y-106299999D01*
X56380000Y-106299999D01*
X57779972Y-106299999D01*
X57779986Y-106299998D01*
X57882697Y-106289505D01*
X58049119Y-106234358D01*
X58049124Y-106234356D01*
X58198345Y-106142315D01*
X58322315Y-106018345D01*
X58414356Y-105869124D01*
X58414358Y-105869119D01*
X58469505Y-105702697D01*
X58469506Y-105702690D01*
X58479999Y-105599986D01*
X58480000Y-105599973D01*
X58480000Y-105375000D01*
X56380000Y-105375000D01*
X56380000Y-106299999D01*
X55879999Y-106299999D01*
X55880000Y-106299998D01*
X55880000Y-104875000D01*
X56380000Y-104875000D01*
X58479999Y-104875000D01*
X58479999Y-104650028D01*
X58479998Y-104650013D01*
X58469505Y-104547302D01*
X58414358Y-104380880D01*
X58414356Y-104380875D01*
X58322315Y-104231654D01*
X58198345Y-104107684D01*
X58049124Y-104015643D01*
X58049119Y-104015641D01*
X57882697Y-103960494D01*
X57882690Y-103960493D01*
X57779986Y-103950000D01*
X56380000Y-103950000D01*
X56380000Y-104875000D01*
X55880000Y-104875000D01*
X55880000Y-103950000D01*
X54480028Y-103950000D01*
X54480012Y-103950001D01*
X54377302Y-103960494D01*
X54210880Y-104015641D01*
X54210875Y-104015643D01*
X54061654Y-104107684D01*
X54052181Y-104117158D01*
X53990858Y-104150643D01*
X53921166Y-104145659D01*
X53865233Y-104103787D01*
X53840816Y-104038323D01*
X53840500Y-104029477D01*
X53840500Y-101468905D01*
X56420000Y-101468905D01*
X56420000Y-101731094D01*
X56454220Y-101991009D01*
X56454222Y-101991020D01*
X56522075Y-102244255D01*
X56622404Y-102486471D01*
X56622409Y-102486482D01*
X56753488Y-102713516D01*
X56753494Y-102713524D01*
X56840080Y-102826365D01*
X57742421Y-101924024D01*
X57755359Y-101955258D01*
X57837437Y-102078097D01*
X57941903Y-102182563D01*
X58064742Y-102264641D01*
X58095974Y-102277577D01*
X57193633Y-103179917D01*
X57193633Y-103179918D01*
X57306475Y-103266505D01*
X57306483Y-103266511D01*
X57533517Y-103397590D01*
X57533528Y-103397595D01*
X57775744Y-103497924D01*
X58028979Y-103565777D01*
X58028990Y-103565779D01*
X58288905Y-103599999D01*
X58288920Y-103600000D01*
X58551080Y-103600000D01*
X58551094Y-103599999D01*
X58811009Y-103565779D01*
X58811020Y-103565777D01*
X59064255Y-103497924D01*
X59306471Y-103397595D01*
X59306482Y-103397590D01*
X59533516Y-103266511D01*
X59533534Y-103266499D01*
X59646365Y-103179919D01*
X59646365Y-103179917D01*
X58744025Y-102277578D01*
X58775258Y-102264641D01*
X58898097Y-102182563D01*
X59002563Y-102078097D01*
X59084641Y-101955258D01*
X59097578Y-101924025D01*
X59999917Y-102826365D01*
X59999919Y-102826365D01*
X60086499Y-102713534D01*
X60086511Y-102713516D01*
X60217590Y-102486482D01*
X60217595Y-102486471D01*
X60317924Y-102244255D01*
X60385777Y-101991020D01*
X60385779Y-101991009D01*
X60419999Y-101731094D01*
X60420000Y-101731080D01*
X60420000Y-101468919D01*
X60419999Y-101468905D01*
X60385779Y-101208990D01*
X60385777Y-101208979D01*
X60317924Y-100955744D01*
X60217595Y-100713528D01*
X60217590Y-100713517D01*
X60086511Y-100486483D01*
X60086505Y-100486475D01*
X59999918Y-100373633D01*
X59999917Y-100373633D01*
X59097577Y-101275973D01*
X59084641Y-101244742D01*
X59002563Y-101121903D01*
X58898097Y-101017437D01*
X58775258Y-100935359D01*
X58744023Y-100922421D01*
X59646365Y-100020080D01*
X59533524Y-99933494D01*
X59533516Y-99933488D01*
X59306482Y-99802409D01*
X59306466Y-99802401D01*
X59245527Y-99777160D01*
X59245526Y-99777160D01*
X59064255Y-99702075D01*
X58811020Y-99634222D01*
X58811009Y-99634220D01*
X58551094Y-99600000D01*
X58288905Y-99600000D01*
X58028990Y-99634220D01*
X58028979Y-99634222D01*
X57775744Y-99702075D01*
X57533528Y-99802404D01*
X57533517Y-99802409D01*
X57306471Y-99933496D01*
X57193633Y-100020079D01*
X57193633Y-100020080D01*
X58095974Y-100922421D01*
X58064742Y-100935359D01*
X57941903Y-101017437D01*
X57837437Y-101121903D01*
X57755359Y-101244742D01*
X57742421Y-101275974D01*
X56840080Y-100373633D01*
X56840079Y-100373633D01*
X56753496Y-100486471D01*
X56622409Y-100713517D01*
X56622404Y-100713528D01*
X56522075Y-100955744D01*
X56454222Y-101208979D01*
X56454220Y-101208990D01*
X56420000Y-101468905D01*
X53840500Y-101468905D01*
X53840500Y-97144500D01*
X53860185Y-97077461D01*
X53912989Y-97031706D01*
X53964500Y-97020500D01*
X100975500Y-97020500D01*
X101042539Y-97040185D01*
G37*
%TD.AperFunction*%
%TD*%
M02*
