M48
; DRILL file {KiCad 9.0.5} date 2025-11-29T16:59:56-0600
; FORMAT={3:3/ absolute / metric / keep zeros}
; #@! TF.CreationDate,2025-11-29T16:59:56-06:00
; #@! TF.GenerationSoftware,Kicad,Pcbnew,9.0.5
; #@! TF.FileFunction,Plated,1,2,PTH
FMAT,2
METRIC
; #@! TA.AperFunction,Plated,PTH,ViaDrill
T1C0.300
; #@! TA.AperFunction,Plated,PTH,ComponentDrill
T2C0.800
; #@! TA.AperFunction,Plated,PTH,ComponentDrill
T3C1.000
; #@! TA.AperFunction,Plated,PTH,ComponentDrill
T4C1.500
%
G90
G05
T1
X058166Y-107188
X058166Y-108712
X059182Y-107188
X059182Y-108712
X059690Y-106426
X060198Y-108712
X060198Y-109728
X060452Y-105918
X060960Y-110236
X061468Y-105918
X061976Y-110236
X062484Y-105918
X062992Y-109728
X063246Y-108712
X063500Y-106172
X063500Y-107188
X064262Y-108712
X064770Y-107188
X065278Y-108712
X065786Y-107188
X066040Y-108966
X066802Y-106934
X067056Y-108966
X068072Y-108966
X069088Y-108966
X069596Y-106934
X070104Y-108966
X070358Y-107442
X070358Y-111252
X071120Y-111506
X071374Y-107188
X072898Y-107442
X072898Y-110998
X073660Y-108204
X073660Y-110236
X074422Y-108204
X074422Y-110236
X076454Y-111252
X076708Y-107188
X077216Y-102616
X077216Y-115824
X077470Y-107696
X077470Y-108458
X077470Y-109220
X077470Y-109982
X077470Y-110744
X078486Y-109474
X078486Y-110236
X078740Y-103886
X078740Y-105664
X078740Y-112776
X078740Y-114554
X081788Y-109982
X081788Y-110744
X090170Y-114808
X091440Y-112776
X092202Y-117856
X093726Y-116332
X093980Y-112776
X096520Y-108458
X096774Y-120396
X097790Y-110236
X100330Y-110236
T2
X089408Y-106212
X091948Y-108752
X094488Y-106212
T3
X099060Y-111511
X099060Y-114051
T4
X058420Y-101600
X060706Y-114808
X063500Y-101600
X075692Y-100838
X075692Y-121638
X086360Y-119380
X090678Y-102362
X094996Y-102362
X099314Y-102362
M30
