%TF.GenerationSoftware,KiCad,Pcbnew,9.0.5*%
%TF.CreationDate,2025-11-29T16:59:50-06:00*%
%TF.ProjectId,RFIndicator,5246496e-6469-4636-9174-6f722e6b6963,rev?*%
%TF.SameCoordinates,Original*%
%TF.FileFunction,Copper,L2,Bot*%
%TF.FilePolarity,Positive*%
%FSLAX46Y46*%
G04 Gerber Fmt 4.6, Leading zero omitted, Abs format (unit mm)*
G04 Created by KiCad (PCBNEW 9.0.5) date 2025-11-29 16:59:50*
%MOMM*%
%LPD*%
G01*
G04 APERTURE LIST*
G04 Aperture macros list*
%AMRoundRect*
0 Rectangle with rounded corners*
0 $1 Rounding radius*
0 $2 $3 $4 $5 $6 $7 $8 $9 X,Y pos of 4 corners*
0 Add a 4 corners polygon primitive as box body*
4,1,4,$2,$3,$4,$5,$6,$7,$8,$9,$2,$3,0*
0 Add four circle primitives for the rounded corners*
1,1,$1+$1,$2,$3*
1,1,$1+$1,$4,$5*
1,1,$1+$1,$6,$7*
1,1,$1+$1,$8,$9*
0 Add four rect primitives between the rounded corners*
20,1,$1+$1,$2,$3,$4,$5,0*
20,1,$1+$1,$4,$5,$6,$7,0*
20,1,$1+$1,$6,$7,$8,$9,0*
20,1,$1+$1,$8,$9,$2,$3,0*%
G04 Aperture macros list end*
%TA.AperFunction,ComponentPad*%
%ADD10R,1.700000X1.700000*%
%TD*%
%TA.AperFunction,ComponentPad*%
%ADD11C,1.700000*%
%TD*%
%TA.AperFunction,ComponentPad*%
%ADD12C,1.440000*%
%TD*%
%TA.AperFunction,ComponentPad*%
%ADD13C,3.000000*%
%TD*%
%TA.AperFunction,SMDPad,CuDef*%
%ADD14RoundRect,0.250000X-1.600000X0.425000X-1.600000X-0.425000X1.600000X-0.425000X1.600000X0.425000X0*%
%TD*%
%TA.AperFunction,ComponentPad*%
%ADD15R,2.000000X2.000000*%
%TD*%
%TA.AperFunction,ComponentPad*%
%ADD16C,2.000000*%
%TD*%
%TA.AperFunction,ViaPad*%
%ADD17C,0.600000*%
%TD*%
%TA.AperFunction,Conductor*%
%ADD18C,0.200000*%
%TD*%
G04 APERTURE END LIST*
D10*
%TO.P,J2,1,Pin_1*%
%TO.N,GND*%
X99060000Y-114051000D03*
D11*
%TO.P,J2,2,Pin_2*%
%TO.N,Net-(D1-A)*%
X99060000Y-111511000D03*
%TD*%
D12*
%TO.P,RV1,1,1*%
%TO.N,VCC*%
X94488000Y-106212000D03*
%TO.P,RV1,2,2*%
%TO.N,Net-(U1-+)*%
X91948000Y-108752000D03*
%TO.P,RV1,3,3*%
%TO.N,GND*%
X89408000Y-106212000D03*
%TD*%
D13*
%TO.P,TP5,1,1*%
%TO.N,Net-(D1-A)*%
X99314000Y-102362000D03*
%TD*%
%TO.P,TP4,1,1*%
%TO.N,Net-(U1-+)*%
X90678000Y-102362000D03*
%TD*%
%TO.P,TP6,1,1*%
%TO.N,GND*%
X94996000Y-102362000D03*
%TD*%
%TO.P,TP7,1,1*%
%TO.N,GND*%
X58420000Y-101600000D03*
%TD*%
%TO.P,TP3,1,1*%
%TO.N,Net-(U1--)*%
X86360000Y-119380000D03*
%TD*%
%TO.P,TP2,1,1*%
%TO.N,Net-(U2-INHI)*%
X63500000Y-101600000D03*
%TD*%
%TO.P,TP1,1,1*%
%TO.N,VCC*%
X60706000Y-114808000D03*
%TD*%
D14*
%TO.P,J1,2,Ext*%
%TO.N,GND*%
X56130000Y-105125000D03*
X56130000Y-110775000D03*
%TD*%
D15*
%TO.P,BT1,1,+*%
%TO.N,Net-(BT1-+)*%
X75692000Y-121638000D03*
D16*
%TO.P,BT1,2,-*%
%TO.N,GND*%
X75692000Y-100838000D03*
%TD*%
D17*
%TO.N,GND*%
X78740000Y-103886000D03*
X77216000Y-102616000D03*
X77216000Y-115824000D03*
X78740000Y-114554000D03*
X78486000Y-110236000D03*
X78486000Y-109474000D03*
X81788000Y-110744000D03*
X81788000Y-109982000D03*
X93980000Y-112776000D03*
X91440000Y-112776000D03*
X92202000Y-117856000D03*
X93726000Y-116332000D03*
X100330000Y-110236000D03*
X97790000Y-110236000D03*
X96520000Y-108458000D03*
X58166000Y-108712000D03*
X59182000Y-108712000D03*
X60198000Y-108712000D03*
X60198000Y-109728000D03*
X60960000Y-110236000D03*
X61976000Y-110236000D03*
X62992000Y-109728000D03*
X63246000Y-108712000D03*
X64262000Y-108712000D03*
X65278000Y-108712000D03*
X66040000Y-108966000D03*
X67056000Y-108966000D03*
X68072000Y-108966000D03*
X69088000Y-108966000D03*
X70104000Y-108966000D03*
X70358000Y-111252000D03*
X71120000Y-111506000D03*
X72898000Y-110998000D03*
X73660000Y-110236000D03*
X74422000Y-110236000D03*
X76454000Y-111252000D03*
X77470000Y-110744000D03*
X77470000Y-109982000D03*
X77470000Y-109220000D03*
X77470000Y-108458000D03*
X77470000Y-107696000D03*
X76708000Y-107188000D03*
X74422000Y-108204000D03*
X73660000Y-108204000D03*
X72898000Y-107442000D03*
X71374000Y-107188000D03*
X70358000Y-107442000D03*
X69596000Y-106934000D03*
X66802000Y-106934000D03*
X65786000Y-107188000D03*
X64770000Y-107188000D03*
X63500000Y-107188000D03*
X63500000Y-106172000D03*
X62484000Y-105918000D03*
X61468000Y-105918000D03*
X60452000Y-105918000D03*
X59690000Y-106426000D03*
X59182000Y-107188000D03*
X58166000Y-107188000D03*
%TO.N,VCC*%
X96774000Y-120396000D03*
X90170000Y-114808000D03*
X78740000Y-105664000D03*
X78740000Y-112776000D03*
%TD*%
D18*
%TO.N,VCC*%
X86106000Y-114808000D02*
X90170000Y-114808000D01*
X79502000Y-117094000D02*
X83820000Y-117094000D01*
X83820000Y-117094000D02*
X86106000Y-114808000D01*
X78740000Y-112776000D02*
X79502000Y-112776000D01*
X79502000Y-112776000D02*
X79502000Y-106426000D01*
X79502000Y-106426000D02*
X78740000Y-105664000D01*
X79502000Y-117094000D02*
X79502000Y-112776000D01*
X72390000Y-117094000D02*
X79502000Y-117094000D01*
X70104000Y-114808000D02*
X72390000Y-117094000D01*
X60706000Y-114808000D02*
X70104000Y-114808000D01*
X94742000Y-114300000D02*
X94742000Y-106426000D01*
X94234000Y-114808000D02*
X94742000Y-114300000D01*
X95758000Y-116332000D02*
X95758000Y-119380000D01*
X95758000Y-119380000D02*
X96774000Y-120396000D01*
X94234000Y-114808000D02*
X95758000Y-116332000D01*
X90170000Y-114808000D02*
X94234000Y-114808000D01*
%TO.N,Net-(D1-A)*%
X99060000Y-103124000D02*
X99314000Y-102870000D01*
X99060000Y-111511000D02*
X99060000Y-103124000D01*
%TD*%
%TA.AperFunction,Conductor*%
%TO.N,GND*%
G36*
X101042539Y-97040185D02*
G01*
X101088294Y-97092989D01*
X101099500Y-97144500D01*
X101099500Y-101490802D01*
X101079815Y-101557841D01*
X101027011Y-101603596D01*
X100957853Y-101613540D01*
X100894297Y-101584515D01*
X100868113Y-101552802D01*
X100819675Y-101468905D01*
X100772611Y-101387388D01*
X100772608Y-101387385D01*
X100772607Y-101387382D01*
X100663154Y-101244742D01*
X100632919Y-101205339D01*
X100632918Y-101205338D01*
X100632911Y-101205330D01*
X100470670Y-101043089D01*
X100470661Y-101043081D01*
X100288617Y-100903392D01*
X100246060Y-100878822D01*
X100089888Y-100788656D01*
X100089876Y-100788650D01*
X99877887Y-100700842D01*
X99857905Y-100695488D01*
X99656238Y-100641452D01*
X99618215Y-100636446D01*
X99428741Y-100611500D01*
X99428734Y-100611500D01*
X99199266Y-100611500D01*
X99199258Y-100611500D01*
X98982715Y-100640009D01*
X98971762Y-100641452D01*
X98878076Y-100666554D01*
X98750112Y-100700842D01*
X98538123Y-100788650D01*
X98538109Y-100788657D01*
X98339382Y-100903392D01*
X98157338Y-101043081D01*
X97995081Y-101205338D01*
X97855392Y-101387382D01*
X97740657Y-101586109D01*
X97740650Y-101586123D01*
X97652842Y-101798112D01*
X97652842Y-101798113D01*
X97603757Y-101981305D01*
X97593453Y-102019759D01*
X97593451Y-102019770D01*
X97563500Y-102247258D01*
X97563500Y-102476741D01*
X97577196Y-102580767D01*
X97593452Y-102704238D01*
X97629855Y-102840097D01*
X97652842Y-102925887D01*
X97740650Y-103137876D01*
X97740657Y-103137890D01*
X97804501Y-103248471D01*
X97846114Y-103320548D01*
X97855392Y-103336617D01*
X97995081Y-103518661D01*
X97995089Y-103518670D01*
X98157330Y-103680911D01*
X98157338Y-103680918D01*
X98339382Y-103820607D01*
X98339385Y-103820608D01*
X98339388Y-103820611D01*
X98538112Y-103935344D01*
X98538117Y-103935346D01*
X98538123Y-103935349D01*
X98632952Y-103974628D01*
X98687356Y-104018468D01*
X98709421Y-104084762D01*
X98709500Y-104089189D01*
X98709500Y-110378481D01*
X98689815Y-110445520D01*
X98641795Y-110488966D01*
X98483211Y-110569768D01*
X98403256Y-110627859D01*
X98343072Y-110671586D01*
X98343070Y-110671588D01*
X98343069Y-110671588D01*
X98220588Y-110794069D01*
X98220588Y-110794070D01*
X98220586Y-110794072D01*
X98176859Y-110854256D01*
X98118768Y-110934211D01*
X98040128Y-111088552D01*
X97986597Y-111253302D01*
X97970856Y-111352690D01*
X97959500Y-111424389D01*
X97959500Y-111597611D01*
X97986598Y-111768701D01*
X98040127Y-111933445D01*
X98118768Y-112087788D01*
X98220586Y-112227928D01*
X98343072Y-112350414D01*
X98483212Y-112452232D01*
X98506213Y-112463951D01*
X98511244Y-112466515D01*
X98562040Y-112514490D01*
X98578835Y-112582311D01*
X98556297Y-112648446D01*
X98501582Y-112691897D01*
X98454949Y-112701000D01*
X98162155Y-112701000D01*
X98102627Y-112707401D01*
X98102620Y-112707403D01*
X97967913Y-112757645D01*
X97967906Y-112757649D01*
X97852812Y-112843809D01*
X97852809Y-112843812D01*
X97766649Y-112958906D01*
X97766645Y-112958913D01*
X97716403Y-113093620D01*
X97716401Y-113093627D01*
X97710000Y-113153155D01*
X97710000Y-113801000D01*
X98626988Y-113801000D01*
X98594075Y-113858007D01*
X98560000Y-113985174D01*
X98560000Y-114116826D01*
X98594075Y-114243993D01*
X98626988Y-114301000D01*
X97710000Y-114301000D01*
X97710000Y-114948844D01*
X97716401Y-115008372D01*
X97716403Y-115008379D01*
X97766645Y-115143086D01*
X97766649Y-115143093D01*
X97852809Y-115258187D01*
X97852812Y-115258190D01*
X97967906Y-115344350D01*
X97967913Y-115344354D01*
X98102620Y-115394596D01*
X98102627Y-115394598D01*
X98162155Y-115400999D01*
X98162172Y-115401000D01*
X98810000Y-115401000D01*
X98810000Y-114484012D01*
X98867007Y-114516925D01*
X98994174Y-114551000D01*
X99125826Y-114551000D01*
X99252993Y-114516925D01*
X99310000Y-114484012D01*
X99310000Y-115401000D01*
X99957828Y-115401000D01*
X99957844Y-115400999D01*
X100017372Y-115394598D01*
X100017379Y-115394596D01*
X100152086Y-115344354D01*
X100152093Y-115344350D01*
X100267187Y-115258190D01*
X100267190Y-115258187D01*
X100353350Y-115143093D01*
X100353354Y-115143086D01*
X100403596Y-115008379D01*
X100403598Y-115008372D01*
X100409999Y-114948844D01*
X100410000Y-114948827D01*
X100410000Y-114301000D01*
X99493012Y-114301000D01*
X99525925Y-114243993D01*
X99560000Y-114116826D01*
X99560000Y-113985174D01*
X99525925Y-113858007D01*
X99493012Y-113801000D01*
X100410000Y-113801000D01*
X100410000Y-113153172D01*
X100409999Y-113153155D01*
X100403598Y-113093627D01*
X100403596Y-113093620D01*
X100353354Y-112958913D01*
X100353350Y-112958906D01*
X100267190Y-112843812D01*
X100267187Y-112843809D01*
X100152093Y-112757649D01*
X100152086Y-112757645D01*
X100017379Y-112707403D01*
X100017372Y-112707401D01*
X99957844Y-112701000D01*
X99665051Y-112701000D01*
X99598012Y-112681315D01*
X99552257Y-112628511D01*
X99542313Y-112559353D01*
X99571338Y-112495797D01*
X99608756Y-112466515D01*
X99611471Y-112465131D01*
X99636788Y-112452232D01*
X99776928Y-112350414D01*
X99899414Y-112227928D01*
X100001232Y-112087788D01*
X100079873Y-111933445D01*
X100133402Y-111768701D01*
X100160500Y-111597611D01*
X100160500Y-111424389D01*
X100133402Y-111253299D01*
X100079873Y-111088555D01*
X100001232Y-110934212D01*
X99899414Y-110794072D01*
X99776928Y-110671586D01*
X99636788Y-110569768D01*
X99478205Y-110488966D01*
X99427409Y-110440991D01*
X99410500Y-110378481D01*
X99410500Y-104223645D01*
X99430185Y-104156606D01*
X99482989Y-104110851D01*
X99518313Y-104100706D01*
X99656238Y-104082548D01*
X99877887Y-104023158D01*
X100089888Y-103935344D01*
X100288612Y-103820611D01*
X100470661Y-103680919D01*
X100470665Y-103680914D01*
X100470670Y-103680911D01*
X100632911Y-103518670D01*
X100632914Y-103518665D01*
X100632919Y-103518661D01*
X100772611Y-103336612D01*
X100868113Y-103171196D01*
X100918680Y-103122981D01*
X100987287Y-103109758D01*
X101052152Y-103135726D01*
X101092680Y-103192641D01*
X101099500Y-103233197D01*
X101099500Y-123835500D01*
X101079815Y-123902539D01*
X101027011Y-123948294D01*
X100975500Y-123959500D01*
X53964500Y-123959500D01*
X53897461Y-123939815D01*
X53851706Y-123887011D01*
X53840500Y-123835500D01*
X53840500Y-122242995D01*
X59145499Y-122242995D01*
X59172418Y-122378322D01*
X59172421Y-122378332D01*
X59225221Y-122505804D01*
X59225228Y-122505817D01*
X59301885Y-122620541D01*
X59301888Y-122620545D01*
X59399454Y-122718111D01*
X59399458Y-122718114D01*
X59514182Y-122794771D01*
X59514195Y-122794778D01*
X59641667Y-122847578D01*
X59641672Y-122847580D01*
X59641676Y-122847580D01*
X59641677Y-122847581D01*
X59777004Y-122874500D01*
X59777007Y-122874500D01*
X59914995Y-122874500D01*
X60006041Y-122856389D01*
X60050328Y-122847580D01*
X60177811Y-122794775D01*
X60292542Y-122718114D01*
X60390114Y-122620542D01*
X60466775Y-122505811D01*
X60519580Y-122378328D01*
X60546500Y-122242995D01*
X65945499Y-122242995D01*
X65972418Y-122378322D01*
X65972421Y-122378332D01*
X66025221Y-122505804D01*
X66025228Y-122505817D01*
X66101885Y-122620541D01*
X66101888Y-122620545D01*
X66199454Y-122718111D01*
X66199458Y-122718114D01*
X66314182Y-122794771D01*
X66314195Y-122794778D01*
X66441667Y-122847578D01*
X66441672Y-122847580D01*
X66441676Y-122847580D01*
X66441677Y-122847581D01*
X66577004Y-122874500D01*
X66577007Y-122874500D01*
X66714995Y-122874500D01*
X66806041Y-122856389D01*
X66850328Y-122847580D01*
X66977811Y-122794775D01*
X67092542Y-122718114D01*
X67190114Y-122620542D01*
X67266775Y-122505811D01*
X67319580Y-122378328D01*
X67346500Y-122242993D01*
X67346500Y-122105007D01*
X67346500Y-122105004D01*
X67319581Y-121969677D01*
X67319580Y-121969676D01*
X67319580Y-121969672D01*
X67319578Y-121969667D01*
X67266778Y-121842195D01*
X67266771Y-121842182D01*
X67190114Y-121727458D01*
X67190111Y-121727454D01*
X67092545Y-121629888D01*
X67092541Y-121629885D01*
X66977817Y-121553228D01*
X66977804Y-121553221D01*
X66850332Y-121500421D01*
X66850322Y-121500418D01*
X66714995Y-121473500D01*
X66714993Y-121473500D01*
X66577007Y-121473500D01*
X66577005Y-121473500D01*
X66441677Y-121500418D01*
X66441667Y-121500421D01*
X66314195Y-121553221D01*
X66314182Y-121553228D01*
X66199458Y-121629885D01*
X66199454Y-121629888D01*
X66101888Y-121727454D01*
X66101885Y-121727458D01*
X66025228Y-121842182D01*
X66025221Y-121842195D01*
X65972421Y-121969667D01*
X65972418Y-121969677D01*
X65945500Y-122105004D01*
X65945500Y-122105007D01*
X65945500Y-122242993D01*
X65945500Y-122242995D01*
X65945499Y-122242995D01*
X60546500Y-122242995D01*
X60546500Y-122242993D01*
X60546500Y-122105007D01*
X60546500Y-122105004D01*
X60519581Y-121969677D01*
X60519580Y-121969676D01*
X60519580Y-121969672D01*
X60519578Y-121969667D01*
X60466778Y-121842195D01*
X60466771Y-121842182D01*
X60390114Y-121727458D01*
X60390111Y-121727454D01*
X60292545Y-121629888D01*
X60292541Y-121629885D01*
X60177817Y-121553228D01*
X60177804Y-121553221D01*
X60050332Y-121500421D01*
X60050322Y-121500418D01*
X59914995Y-121473500D01*
X59914993Y-121473500D01*
X59777007Y-121473500D01*
X59777005Y-121473500D01*
X59641677Y-121500418D01*
X59641667Y-121500421D01*
X59514195Y-121553221D01*
X59514182Y-121553228D01*
X59399458Y-121629885D01*
X59399454Y-121629888D01*
X59301888Y-121727454D01*
X59301885Y-121727458D01*
X59225228Y-121842182D01*
X59225221Y-121842195D01*
X59172421Y-121969667D01*
X59172418Y-121969677D01*
X59145500Y-122105004D01*
X59145500Y-122105007D01*
X59145500Y-122242993D01*
X59145500Y-122242995D01*
X59145499Y-122242995D01*
X53840500Y-122242995D01*
X53840500Y-120613321D01*
X74441500Y-120613321D01*
X74441500Y-122662678D01*
X74456032Y-122735735D01*
X74456033Y-122735739D01*
X74456034Y-122735740D01*
X74511399Y-122818601D01*
X74594260Y-122873966D01*
X74594264Y-122873967D01*
X74667321Y-122888499D01*
X74667324Y-122888500D01*
X74667326Y-122888500D01*
X76716676Y-122888500D01*
X76716677Y-122888499D01*
X76789740Y-122873966D01*
X76872601Y-122818601D01*
X76927966Y-122735740D01*
X76942500Y-122662674D01*
X76942500Y-120613326D01*
X76942500Y-120613323D01*
X76942499Y-120613321D01*
X76927967Y-120540264D01*
X76927966Y-120540260D01*
X76925561Y-120536661D01*
X76872601Y-120457399D01*
X76789740Y-120402034D01*
X76789739Y-120402033D01*
X76789735Y-120402032D01*
X76716677Y-120387500D01*
X76716674Y-120387500D01*
X74667326Y-120387500D01*
X74667323Y-120387500D01*
X74594264Y-120402032D01*
X74594260Y-120402033D01*
X74511399Y-120457399D01*
X74456033Y-120540260D01*
X74456032Y-120540264D01*
X74441500Y-120613321D01*
X53840500Y-120613321D01*
X53840500Y-119265258D01*
X84609500Y-119265258D01*
X84609500Y-119494741D01*
X84634446Y-119684215D01*
X84639452Y-119722238D01*
X84639453Y-119722240D01*
X84698842Y-119943887D01*
X84786650Y-120155876D01*
X84786656Y-120155888D01*
X84872666Y-120304863D01*
X84901392Y-120354617D01*
X85041081Y-120536661D01*
X85041089Y-120536670D01*
X85203330Y-120698911D01*
X85203338Y-120698918D01*
X85203339Y-120698919D01*
X85249077Y-120734015D01*
X85385382Y-120838607D01*
X85385385Y-120838608D01*
X85385388Y-120838611D01*
X85584112Y-120953344D01*
X85584117Y-120953346D01*
X85584123Y-120953349D01*
X85675480Y-120991190D01*
X85796113Y-121041158D01*
X86017762Y-121100548D01*
X86245266Y-121130500D01*
X86245273Y-121130500D01*
X86474727Y-121130500D01*
X86474734Y-121130500D01*
X86702238Y-121100548D01*
X86923887Y-121041158D01*
X87135888Y-120953344D01*
X87334612Y-120838611D01*
X87516661Y-120698919D01*
X87516665Y-120698914D01*
X87516670Y-120698911D01*
X87678911Y-120536670D01*
X87678914Y-120536665D01*
X87678919Y-120536661D01*
X87818611Y-120354612D01*
X87933344Y-120155888D01*
X88021158Y-119943887D01*
X88080548Y-119722238D01*
X88110500Y-119494734D01*
X88110500Y-119265266D01*
X88080548Y-119037762D01*
X88021158Y-118816113D01*
X87933344Y-118604112D01*
X87818611Y-118405388D01*
X87818608Y-118405385D01*
X87818607Y-118405382D01*
X87678918Y-118223338D01*
X87678911Y-118223330D01*
X87516670Y-118061089D01*
X87516661Y-118061081D01*
X87334617Y-117921392D01*
X87135890Y-117806657D01*
X87135876Y-117806650D01*
X86923887Y-117718842D01*
X86702238Y-117659452D01*
X86664215Y-117654446D01*
X86474741Y-117629500D01*
X86474734Y-117629500D01*
X86245266Y-117629500D01*
X86245258Y-117629500D01*
X86028715Y-117658009D01*
X86017762Y-117659452D01*
X85924076Y-117684554D01*
X85796112Y-117718842D01*
X85584123Y-117806650D01*
X85584109Y-117806657D01*
X85385382Y-117921392D01*
X85203338Y-118061081D01*
X85041081Y-118223338D01*
X84901392Y-118405382D01*
X84786657Y-118604109D01*
X84786650Y-118604123D01*
X84698842Y-118816112D01*
X84639453Y-119037759D01*
X84639451Y-119037770D01*
X84609500Y-119265258D01*
X53840500Y-119265258D01*
X53840500Y-114693258D01*
X58955500Y-114693258D01*
X58955500Y-114922741D01*
X58980446Y-115112215D01*
X58985452Y-115150238D01*
X59031202Y-115320982D01*
X59044842Y-115371887D01*
X59132650Y-115583876D01*
X59132657Y-115583890D01*
X59247392Y-115782617D01*
X59387081Y-115964661D01*
X59387089Y-115964670D01*
X59549330Y-116126911D01*
X59549338Y-116126918D01*
X59731382Y-116266607D01*
X59731385Y-116266608D01*
X59731388Y-116266611D01*
X59930112Y-116381344D01*
X59930117Y-116381346D01*
X59930123Y-116381349D01*
X60021480Y-116419190D01*
X60142113Y-116469158D01*
X60363762Y-116528548D01*
X60591266Y-116558500D01*
X60591273Y-116558500D01*
X60820727Y-116558500D01*
X60820734Y-116558500D01*
X61048238Y-116528548D01*
X61269887Y-116469158D01*
X61481888Y-116381344D01*
X61680612Y-116266611D01*
X61862661Y-116126919D01*
X61862665Y-116126914D01*
X61862670Y-116126911D01*
X62024911Y-115964670D01*
X62024914Y-115964665D01*
X62024919Y-115964661D01*
X62164611Y-115782612D01*
X62279344Y-115583888D01*
X62367158Y-115371887D01*
X62399708Y-115250407D01*
X62436073Y-115190746D01*
X62498920Y-115160217D01*
X62519483Y-115158500D01*
X69907456Y-115158500D01*
X69974495Y-115178185D01*
X69995137Y-115194819D01*
X72174788Y-117374470D01*
X72254712Y-117420614D01*
X72343856Y-117444500D01*
X72343858Y-117444500D01*
X83866142Y-117444500D01*
X83866144Y-117444500D01*
X83955288Y-117420614D01*
X84035212Y-117374470D01*
X86214863Y-115194819D01*
X86276186Y-115161334D01*
X86302544Y-115158500D01*
X89690614Y-115158500D01*
X89757653Y-115178185D01*
X89778295Y-115194819D01*
X89831985Y-115248509D01*
X89831986Y-115248510D01*
X89831988Y-115248511D01*
X89957511Y-115320982D01*
X89957512Y-115320982D01*
X89957515Y-115320984D01*
X90097525Y-115358500D01*
X90097528Y-115358500D01*
X90242472Y-115358500D01*
X90242475Y-115358500D01*
X90382485Y-115320984D01*
X90508015Y-115248509D01*
X90561705Y-115194819D01*
X90623028Y-115161334D01*
X90649386Y-115158500D01*
X94037456Y-115158500D01*
X94104495Y-115178185D01*
X94125137Y-115194819D01*
X95371181Y-116440863D01*
X95404666Y-116502186D01*
X95407500Y-116528544D01*
X95407500Y-119426144D01*
X95421540Y-119478542D01*
X95421540Y-119478543D01*
X95431384Y-119515285D01*
X95431385Y-119515286D01*
X95477527Y-119595208D01*
X95477531Y-119595213D01*
X96187181Y-120304863D01*
X96220666Y-120366186D01*
X96223500Y-120392544D01*
X96223500Y-120468475D01*
X96261016Y-120608485D01*
X96261017Y-120608488D01*
X96333488Y-120734011D01*
X96333490Y-120734013D01*
X96333491Y-120734015D01*
X96435985Y-120836509D01*
X96435986Y-120836510D01*
X96435988Y-120836511D01*
X96561511Y-120908982D01*
X96561512Y-120908982D01*
X96561515Y-120908984D01*
X96701525Y-120946500D01*
X96701528Y-120946500D01*
X96846472Y-120946500D01*
X96846475Y-120946500D01*
X96986485Y-120908984D01*
X97112015Y-120836509D01*
X97214509Y-120734015D01*
X97286984Y-120608485D01*
X97324500Y-120468475D01*
X97324500Y-120323525D01*
X97286984Y-120183515D01*
X97271033Y-120155888D01*
X97214511Y-120057988D01*
X97214506Y-120057982D01*
X97112017Y-119955493D01*
X97112011Y-119955488D01*
X96986488Y-119883017D01*
X96986489Y-119883017D01*
X96975006Y-119879940D01*
X96846475Y-119845500D01*
X96846472Y-119845500D01*
X96770544Y-119845500D01*
X96703505Y-119825815D01*
X96682863Y-119809181D01*
X96144819Y-119271137D01*
X96111334Y-119209814D01*
X96108500Y-119183456D01*
X96108500Y-116285858D01*
X96108500Y-116285856D01*
X96084614Y-116196712D01*
X96038469Y-116116787D01*
X94817363Y-114895681D01*
X94783878Y-114834358D01*
X94788862Y-114764666D01*
X94817363Y-114720319D01*
X94844424Y-114693258D01*
X95022469Y-114515213D01*
X95068614Y-114435288D01*
X95068747Y-114434793D01*
X95068761Y-114434743D01*
X95082086Y-114385011D01*
X95092500Y-114346144D01*
X95092500Y-107031358D01*
X95112185Y-106964319D01*
X95128819Y-106943677D01*
X95241834Y-106830661D01*
X95241835Y-106830660D01*
X95241837Y-106830658D01*
X95348046Y-106671704D01*
X95421204Y-106495084D01*
X95444124Y-106379858D01*
X95458500Y-106307588D01*
X95458500Y-106116411D01*
X95421205Y-105928921D01*
X95421204Y-105928920D01*
X95421204Y-105928916D01*
X95399488Y-105876488D01*
X95348048Y-105752299D01*
X95241835Y-105593339D01*
X95106660Y-105458164D01*
X94947700Y-105351951D01*
X94771088Y-105278797D01*
X94771078Y-105278794D01*
X94583588Y-105241500D01*
X94583586Y-105241500D01*
X94392414Y-105241500D01*
X94392412Y-105241500D01*
X94204921Y-105278794D01*
X94204911Y-105278797D01*
X94028299Y-105351951D01*
X93869339Y-105458164D01*
X93734164Y-105593339D01*
X93627951Y-105752299D01*
X93554797Y-105928911D01*
X93554794Y-105928921D01*
X93517500Y-106116411D01*
X93517500Y-106116414D01*
X93517500Y-106307586D01*
X93517500Y-106307588D01*
X93517499Y-106307588D01*
X93554794Y-106495078D01*
X93554797Y-106495088D01*
X93627951Y-106671700D01*
X93734164Y-106830660D01*
X93869339Y-106965835D01*
X94028299Y-107072048D01*
X94204911Y-107145202D01*
X94204916Y-107145204D01*
X94291694Y-107162465D01*
X94353601Y-107194848D01*
X94388176Y-107255563D01*
X94391500Y-107284081D01*
X94391500Y-114103456D01*
X94371815Y-114170495D01*
X94355181Y-114191137D01*
X94125137Y-114421181D01*
X94063814Y-114454666D01*
X94037456Y-114457500D01*
X90649386Y-114457500D01*
X90582347Y-114437815D01*
X90561705Y-114421181D01*
X90508017Y-114367493D01*
X90508011Y-114367488D01*
X90382488Y-114295017D01*
X90382489Y-114295017D01*
X90371006Y-114291940D01*
X90242475Y-114257500D01*
X90097525Y-114257500D01*
X89968993Y-114291940D01*
X89957511Y-114295017D01*
X89831988Y-114367488D01*
X89831982Y-114367493D01*
X89778295Y-114421181D01*
X89716972Y-114454666D01*
X89690614Y-114457500D01*
X86059856Y-114457500D01*
X85970712Y-114481386D01*
X85970709Y-114481387D01*
X85890791Y-114527527D01*
X85890786Y-114527531D01*
X83711137Y-116707181D01*
X83649814Y-116740666D01*
X83623456Y-116743500D01*
X79976500Y-116743500D01*
X79909461Y-116723815D01*
X79863706Y-116671011D01*
X79852500Y-116619500D01*
X79852500Y-108847588D01*
X90977499Y-108847588D01*
X91014794Y-109035078D01*
X91014797Y-109035088D01*
X91087951Y-109211700D01*
X91194164Y-109370660D01*
X91329339Y-109505835D01*
X91488299Y-109612048D01*
X91664911Y-109685202D01*
X91664916Y-109685204D01*
X91664920Y-109685204D01*
X91664921Y-109685205D01*
X91852411Y-109722500D01*
X91852414Y-109722500D01*
X92043588Y-109722500D01*
X92169729Y-109697408D01*
X92231084Y-109685204D01*
X92319394Y-109648625D01*
X92407700Y-109612048D01*
X92407701Y-109612047D01*
X92407704Y-109612046D01*
X92566658Y-109505837D01*
X92701837Y-109370658D01*
X92808046Y-109211704D01*
X92881204Y-109035084D01*
X92918500Y-108847586D01*
X92918500Y-108656414D01*
X92918500Y-108656411D01*
X92881205Y-108468921D01*
X92881204Y-108468920D01*
X92881204Y-108468916D01*
X92881202Y-108468911D01*
X92808048Y-108292299D01*
X92701835Y-108133339D01*
X92566660Y-107998164D01*
X92407700Y-107891951D01*
X92231088Y-107818797D01*
X92231078Y-107818794D01*
X92043588Y-107781500D01*
X92043586Y-107781500D01*
X91852414Y-107781500D01*
X91852412Y-107781500D01*
X91664921Y-107818794D01*
X91664911Y-107818797D01*
X91488299Y-107891951D01*
X91329339Y-107998164D01*
X91194164Y-108133339D01*
X91087951Y-108292299D01*
X91014797Y-108468911D01*
X91014794Y-108468921D01*
X90977500Y-108656411D01*
X90977500Y-108656414D01*
X90977500Y-108847586D01*
X90977500Y-108847588D01*
X90977499Y-108847588D01*
X79852500Y-108847588D01*
X79852500Y-106379858D01*
X79852500Y-106379856D01*
X79828614Y-106290712D01*
X79820160Y-106276069D01*
X79782470Y-106210788D01*
X79687666Y-106115984D01*
X88188000Y-106115984D01*
X88188000Y-106308015D01*
X88218040Y-106497684D01*
X88277383Y-106680321D01*
X88364561Y-106851415D01*
X88385798Y-106880646D01*
X89008000Y-106258445D01*
X89008000Y-106264661D01*
X89035259Y-106366394D01*
X89087920Y-106457606D01*
X89162394Y-106532080D01*
X89253606Y-106584741D01*
X89355339Y-106612000D01*
X89361554Y-106612000D01*
X88739351Y-107234200D01*
X88739352Y-107234201D01*
X88768577Y-107255434D01*
X88939678Y-107342616D01*
X89122315Y-107401959D01*
X89311985Y-107432000D01*
X89504015Y-107432000D01*
X89693684Y-107401959D01*
X89876321Y-107342616D01*
X90047419Y-107255436D01*
X90076646Y-107234201D01*
X90076646Y-107234200D01*
X89454447Y-106612000D01*
X89460661Y-106612000D01*
X89562394Y-106584741D01*
X89653606Y-106532080D01*
X89728080Y-106457606D01*
X89780741Y-106366394D01*
X89808000Y-106264661D01*
X89808000Y-106258446D01*
X90430200Y-106880646D01*
X90430201Y-106880646D01*
X90451436Y-106851419D01*
X90538616Y-106680321D01*
X90597959Y-106497684D01*
X90628000Y-106308015D01*
X90628000Y-106115984D01*
X90597959Y-105926315D01*
X90538616Y-105743678D01*
X90451434Y-105572577D01*
X90430201Y-105543352D01*
X90430200Y-105543351D01*
X89808000Y-106165552D01*
X89808000Y-106159339D01*
X89780741Y-106057606D01*
X89728080Y-105966394D01*
X89653606Y-105891920D01*
X89562394Y-105839259D01*
X89460661Y-105812000D01*
X89454447Y-105812000D01*
X90076646Y-105189798D01*
X90047415Y-105168561D01*
X89876321Y-105081383D01*
X89693684Y-105022040D01*
X89504015Y-104992000D01*
X89311985Y-104992000D01*
X89122315Y-105022040D01*
X88939678Y-105081383D01*
X88768578Y-105168564D01*
X88739352Y-105189798D01*
X88739351Y-105189798D01*
X89361554Y-105812000D01*
X89355339Y-105812000D01*
X89253606Y-105839259D01*
X89162394Y-105891920D01*
X89087920Y-105966394D01*
X89035259Y-106057606D01*
X89008000Y-106159339D01*
X89008000Y-106165553D01*
X88385798Y-105543351D01*
X88385798Y-105543352D01*
X88364564Y-105572578D01*
X88277383Y-105743678D01*
X88218040Y-105926315D01*
X88188000Y-106115984D01*
X79687666Y-106115984D01*
X79326819Y-105755137D01*
X79293334Y-105693814D01*
X79290500Y-105667456D01*
X79290500Y-105591527D01*
X79290500Y-105591525D01*
X79252984Y-105451515D01*
X79195502Y-105351954D01*
X79180511Y-105325988D01*
X79180506Y-105325982D01*
X79078017Y-105223493D01*
X79078011Y-105223488D01*
X78952488Y-105151017D01*
X78952489Y-105151017D01*
X78941006Y-105147940D01*
X78812475Y-105113500D01*
X78667525Y-105113500D01*
X78538993Y-105147940D01*
X78527511Y-105151017D01*
X78401988Y-105223488D01*
X78401982Y-105223493D01*
X78299493Y-105325982D01*
X78299488Y-105325988D01*
X78227017Y-105451511D01*
X78227016Y-105451515D01*
X78189500Y-105591525D01*
X78189500Y-105736475D01*
X78225042Y-105869119D01*
X78227017Y-105876488D01*
X78299488Y-106002011D01*
X78299490Y-106002013D01*
X78299491Y-106002015D01*
X78401985Y-106104509D01*
X78401986Y-106104510D01*
X78401988Y-106104511D01*
X78527511Y-106176982D01*
X78527512Y-106176982D01*
X78527515Y-106176984D01*
X78667525Y-106214500D01*
X78743456Y-106214500D01*
X78810495Y-106234185D01*
X78831137Y-106250819D01*
X79115181Y-106534863D01*
X79148666Y-106596186D01*
X79151500Y-106622544D01*
X79151500Y-112163142D01*
X79131815Y-112230181D01*
X79079011Y-112275936D01*
X79009853Y-112285880D01*
X78965502Y-112270531D01*
X78959244Y-112266918D01*
X78952485Y-112263016D01*
X78812475Y-112225500D01*
X78667525Y-112225500D01*
X78538993Y-112259940D01*
X78527511Y-112263017D01*
X78401988Y-112335488D01*
X78401982Y-112335493D01*
X78299493Y-112437982D01*
X78299488Y-112437988D01*
X78227017Y-112563511D01*
X78227016Y-112563515D01*
X78189500Y-112703525D01*
X78189500Y-112848475D01*
X78219092Y-112958913D01*
X78227017Y-112988488D01*
X78299488Y-113114011D01*
X78299490Y-113114013D01*
X78299491Y-113114015D01*
X78401985Y-113216509D01*
X78401986Y-113216510D01*
X78401988Y-113216511D01*
X78527511Y-113288982D01*
X78527512Y-113288982D01*
X78527515Y-113288984D01*
X78667525Y-113326500D01*
X78667528Y-113326500D01*
X78812472Y-113326500D01*
X78812475Y-113326500D01*
X78952485Y-113288984D01*
X78965498Y-113281471D01*
X79033398Y-113264997D01*
X79099426Y-113287849D01*
X79142617Y-113342769D01*
X79151500Y-113388857D01*
X79151500Y-116619500D01*
X79131815Y-116686539D01*
X79079011Y-116732294D01*
X79027500Y-116743500D01*
X72586544Y-116743500D01*
X72519505Y-116723815D01*
X72498863Y-116707181D01*
X70319213Y-114527531D01*
X70319208Y-114527527D01*
X70239290Y-114481387D01*
X70239289Y-114481386D01*
X70239288Y-114481386D01*
X70150144Y-114457500D01*
X70150143Y-114457500D01*
X62519483Y-114457500D01*
X62452444Y-114437815D01*
X62406689Y-114385011D01*
X62399708Y-114365593D01*
X62394496Y-114346142D01*
X62367158Y-114244113D01*
X62345215Y-114191137D01*
X62279347Y-114032118D01*
X62279342Y-114032109D01*
X62252244Y-113985174D01*
X62164611Y-113833388D01*
X62164608Y-113833385D01*
X62164607Y-113833382D01*
X62024918Y-113651338D01*
X62024911Y-113651330D01*
X61862670Y-113489089D01*
X61862661Y-113489081D01*
X61680617Y-113349392D01*
X61481890Y-113234657D01*
X61481876Y-113234650D01*
X61269887Y-113146842D01*
X61255638Y-113143024D01*
X61048238Y-113087452D01*
X61010215Y-113082446D01*
X60820741Y-113057500D01*
X60820734Y-113057500D01*
X60591266Y-113057500D01*
X60591258Y-113057500D01*
X60374715Y-113086009D01*
X60363762Y-113087452D01*
X60270076Y-113112554D01*
X60142112Y-113146842D01*
X59930123Y-113234650D01*
X59930109Y-113234657D01*
X59731382Y-113349392D01*
X59549338Y-113489081D01*
X59387081Y-113651338D01*
X59247392Y-113833382D01*
X59132657Y-114032109D01*
X59132650Y-114032123D01*
X59044842Y-114244112D01*
X59041255Y-114257500D01*
X58993618Y-114435288D01*
X58985453Y-114465759D01*
X58985451Y-114465770D01*
X58955500Y-114693258D01*
X53840500Y-114693258D01*
X53840500Y-111870523D01*
X53860185Y-111803484D01*
X53912989Y-111757729D01*
X53982147Y-111747785D01*
X54045703Y-111776810D01*
X54052181Y-111782842D01*
X54061654Y-111792315D01*
X54210875Y-111884356D01*
X54210880Y-111884358D01*
X54377302Y-111939505D01*
X54377309Y-111939506D01*
X54480019Y-111949999D01*
X55879999Y-111949999D01*
X56380000Y-111949999D01*
X57779972Y-111949999D01*
X57779986Y-111949998D01*
X57882697Y-111939505D01*
X58049119Y-111884358D01*
X58049124Y-111884356D01*
X58198345Y-111792315D01*
X58322315Y-111668345D01*
X58414356Y-111519124D01*
X58414358Y-111519119D01*
X58469505Y-111352697D01*
X58469506Y-111352690D01*
X58479999Y-111249986D01*
X58480000Y-111249973D01*
X58480000Y-111025000D01*
X56380000Y-111025000D01*
X56380000Y-111949999D01*
X55879999Y-111949999D01*
X55880000Y-111949998D01*
X55880000Y-110525000D01*
X56380000Y-110525000D01*
X58479999Y-110525000D01*
X58479999Y-110300028D01*
X58479998Y-110300013D01*
X58469505Y-110197302D01*
X58414358Y-110030880D01*
X58414356Y-110030875D01*
X58322315Y-109881654D01*
X58198345Y-109757684D01*
X58049124Y-109665643D01*
X58049119Y-109665641D01*
X57882697Y-109610494D01*
X57882690Y-109610493D01*
X57779986Y-109600000D01*
X56380000Y-109600000D01*
X56380000Y-110525000D01*
X55880000Y-110525000D01*
X55880000Y-109600000D01*
X54480028Y-109600000D01*
X54480012Y-109600001D01*
X54377302Y-109610494D01*
X54210880Y-109665641D01*
X54210875Y-109665643D01*
X54061654Y-109757684D01*
X54052181Y-109767158D01*
X53990858Y-109800643D01*
X53921166Y-109795659D01*
X53865233Y-109753787D01*
X53840816Y-109688323D01*
X53840500Y-109679477D01*
X53840500Y-106220523D01*
X53860185Y-106153484D01*
X53912989Y-106107729D01*
X53982147Y-106097785D01*
X54045703Y-106126810D01*
X54052181Y-106132842D01*
X54061654Y-106142315D01*
X54210875Y-106234356D01*
X54210880Y-106234358D01*
X54377302Y-106289505D01*
X54377309Y-106289506D01*
X54480019Y-106299999D01*
X55879999Y-106299999D01*
X56380000Y-106299999D01*
X57779972Y-106299999D01*
X57779986Y-106299998D01*
X57882697Y-106289505D01*
X58049119Y-106234358D01*
X58049124Y-106234356D01*
X58198345Y-106142315D01*
X58322315Y-106018345D01*
X58414356Y-105869124D01*
X58414358Y-105869119D01*
X58469505Y-105702697D01*
X58469506Y-105702690D01*
X58479999Y-105599986D01*
X58480000Y-105599973D01*
X58480000Y-105375000D01*
X56380000Y-105375000D01*
X56380000Y-106299999D01*
X55879999Y-106299999D01*
X55880000Y-106299998D01*
X55880000Y-104875000D01*
X56380000Y-104875000D01*
X58479999Y-104875000D01*
X58479999Y-104650028D01*
X58479998Y-104650013D01*
X58469505Y-104547302D01*
X58414358Y-104380880D01*
X58414356Y-104380875D01*
X58322315Y-104231654D01*
X58198345Y-104107684D01*
X58049124Y-104015643D01*
X58049119Y-104015641D01*
X57882697Y-103960494D01*
X57882690Y-103960493D01*
X57779986Y-103950000D01*
X56380000Y-103950000D01*
X56380000Y-104875000D01*
X55880000Y-104875000D01*
X55880000Y-103950000D01*
X54480028Y-103950000D01*
X54480012Y-103950001D01*
X54377302Y-103960494D01*
X54210880Y-104015641D01*
X54210875Y-104015643D01*
X54061654Y-104107684D01*
X54052181Y-104117158D01*
X53990858Y-104150643D01*
X53921166Y-104145659D01*
X53865233Y-104103787D01*
X53840816Y-104038323D01*
X53840500Y-104029477D01*
X53840500Y-101468905D01*
X56420000Y-101468905D01*
X56420000Y-101731094D01*
X56454220Y-101991009D01*
X56454222Y-101991020D01*
X56522075Y-102244255D01*
X56622404Y-102486471D01*
X56622409Y-102486482D01*
X56753488Y-102713516D01*
X56753494Y-102713524D01*
X56840080Y-102826365D01*
X57742421Y-101924024D01*
X57755359Y-101955258D01*
X57837437Y-102078097D01*
X57941903Y-102182563D01*
X58064742Y-102264641D01*
X58095974Y-102277577D01*
X57193633Y-103179917D01*
X57193633Y-103179918D01*
X57306475Y-103266505D01*
X57306483Y-103266511D01*
X57533517Y-103397590D01*
X57533528Y-103397595D01*
X57775744Y-103497924D01*
X58028979Y-103565777D01*
X58028990Y-103565779D01*
X58288905Y-103599999D01*
X58288920Y-103600000D01*
X58551080Y-103600000D01*
X58551094Y-103599999D01*
X58811009Y-103565779D01*
X58811020Y-103565777D01*
X59064255Y-103497924D01*
X59306471Y-103397595D01*
X59306482Y-103397590D01*
X59533516Y-103266511D01*
X59533534Y-103266499D01*
X59646365Y-103179919D01*
X59646365Y-103179917D01*
X58744025Y-102277578D01*
X58775258Y-102264641D01*
X58898097Y-102182563D01*
X59002563Y-102078097D01*
X59084641Y-101955258D01*
X59097578Y-101924025D01*
X59999917Y-102826365D01*
X59999919Y-102826365D01*
X60086499Y-102713534D01*
X60086511Y-102713516D01*
X60217590Y-102486482D01*
X60217595Y-102486471D01*
X60317924Y-102244255D01*
X60385777Y-101991020D01*
X60385779Y-101991009D01*
X60419999Y-101731094D01*
X60420000Y-101731080D01*
X60420000Y-101485258D01*
X61749500Y-101485258D01*
X61749500Y-101714741D01*
X61758018Y-101779437D01*
X61779452Y-101942238D01*
X61833308Y-102143233D01*
X61838842Y-102163887D01*
X61926650Y-102375876D01*
X61926657Y-102375890D01*
X62041392Y-102574617D01*
X62181081Y-102756661D01*
X62181089Y-102756670D01*
X62343330Y-102918911D01*
X62343338Y-102918918D01*
X62525382Y-103058607D01*
X62525385Y-103058608D01*
X62525388Y-103058611D01*
X62724112Y-103173344D01*
X62724117Y-103173346D01*
X62724123Y-103173349D01*
X62815480Y-103211190D01*
X62936113Y-103261158D01*
X63157762Y-103320548D01*
X63385266Y-103350500D01*
X63385273Y-103350500D01*
X63614727Y-103350500D01*
X63614734Y-103350500D01*
X63842238Y-103320548D01*
X64063887Y-103261158D01*
X64275888Y-103173344D01*
X64474612Y-103058611D01*
X64656661Y-102918919D01*
X64656665Y-102918914D01*
X64656670Y-102918911D01*
X64818911Y-102756670D01*
X64818914Y-102756665D01*
X64818919Y-102756661D01*
X64958611Y-102574612D01*
X65073344Y-102375888D01*
X65161158Y-102163887D01*
X65220548Y-101942238D01*
X65250500Y-101714734D01*
X65250500Y-101485266D01*
X65249216Y-101475517D01*
X65248346Y-101468905D01*
X65220548Y-101257762D01*
X65161158Y-101036113D01*
X65096006Y-100878822D01*
X65073349Y-100824123D01*
X65073346Y-100824117D01*
X65073344Y-100824112D01*
X65013204Y-100719947D01*
X74192000Y-100719947D01*
X74192000Y-100956052D01*
X74228934Y-101189247D01*
X74301897Y-101413802D01*
X74409087Y-101624174D01*
X74469338Y-101707104D01*
X74469340Y-101707105D01*
X75014421Y-101162024D01*
X75027359Y-101193258D01*
X75109437Y-101316097D01*
X75213903Y-101420563D01*
X75336742Y-101502641D01*
X75367974Y-101515578D01*
X74822893Y-102060658D01*
X74905828Y-102120914D01*
X75116197Y-102228102D01*
X75340752Y-102301065D01*
X75340751Y-102301065D01*
X75573948Y-102338000D01*
X75810052Y-102338000D01*
X76043247Y-102301065D01*
X76208846Y-102247258D01*
X88927500Y-102247258D01*
X88927500Y-102476741D01*
X88941196Y-102580767D01*
X88957452Y-102704238D01*
X88993855Y-102840097D01*
X89016842Y-102925887D01*
X89104650Y-103137876D01*
X89104657Y-103137890D01*
X89168501Y-103248471D01*
X89210114Y-103320548D01*
X89219392Y-103336617D01*
X89359081Y-103518661D01*
X89359089Y-103518670D01*
X89521330Y-103680911D01*
X89521338Y-103680918D01*
X89703382Y-103820607D01*
X89703385Y-103820608D01*
X89703388Y-103820611D01*
X89902112Y-103935344D01*
X89902117Y-103935346D01*
X89902123Y-103935349D01*
X89962829Y-103960494D01*
X90114113Y-104023158D01*
X90335762Y-104082548D01*
X90563266Y-104112500D01*
X90563273Y-104112500D01*
X90792727Y-104112500D01*
X90792734Y-104112500D01*
X91020238Y-104082548D01*
X91241887Y-104023158D01*
X91453888Y-103935344D01*
X91652612Y-103820611D01*
X91834661Y-103680919D01*
X91834665Y-103680914D01*
X91834670Y-103680911D01*
X91996911Y-103518670D01*
X91996914Y-103518665D01*
X91996919Y-103518661D01*
X92136611Y-103336612D01*
X92251344Y-103137888D01*
X92339158Y-102925887D01*
X92398548Y-102704238D01*
X92428500Y-102476734D01*
X92428500Y-102247266D01*
X92426346Y-102230905D01*
X92996000Y-102230905D01*
X92996000Y-102493094D01*
X93030220Y-102753009D01*
X93030222Y-102753020D01*
X93098075Y-103006255D01*
X93198404Y-103248471D01*
X93198409Y-103248482D01*
X93329488Y-103475516D01*
X93329494Y-103475524D01*
X93416080Y-103588365D01*
X94318421Y-102686024D01*
X94331359Y-102717258D01*
X94413437Y-102840097D01*
X94517903Y-102944563D01*
X94640742Y-103026641D01*
X94671974Y-103039577D01*
X93769633Y-103941917D01*
X93769633Y-103941918D01*
X93882475Y-104028505D01*
X93882483Y-104028511D01*
X94109517Y-104159590D01*
X94109528Y-104159595D01*
X94351744Y-104259924D01*
X94604979Y-104327777D01*
X94604990Y-104327779D01*
X94864905Y-104361999D01*
X94864920Y-104362000D01*
X95127080Y-104362000D01*
X95127094Y-104361999D01*
X95387009Y-104327779D01*
X95387020Y-104327777D01*
X95640255Y-104259924D01*
X95882471Y-104159595D01*
X95882482Y-104159590D01*
X96109516Y-104028511D01*
X96109534Y-104028499D01*
X96222365Y-103941919D01*
X96222365Y-103941917D01*
X95320025Y-103039578D01*
X95351258Y-103026641D01*
X95474097Y-102944563D01*
X95578563Y-102840097D01*
X95660641Y-102717258D01*
X95673577Y-102686025D01*
X96575917Y-103588365D01*
X96575919Y-103588365D01*
X96662499Y-103475534D01*
X96662511Y-103475516D01*
X96793590Y-103248482D01*
X96793595Y-103248471D01*
X96893924Y-103006255D01*
X96961777Y-102753020D01*
X96961779Y-102753009D01*
X96995999Y-102493094D01*
X96996000Y-102493080D01*
X96996000Y-102230919D01*
X96995999Y-102230905D01*
X96961779Y-101970990D01*
X96961777Y-101970979D01*
X96893924Y-101717744D01*
X96793595Y-101475528D01*
X96793590Y-101475517D01*
X96662511Y-101248483D01*
X96662505Y-101248475D01*
X96575918Y-101135633D01*
X96575917Y-101135633D01*
X95673577Y-102037973D01*
X95660641Y-102006742D01*
X95578563Y-101883903D01*
X95474097Y-101779437D01*
X95351258Y-101697359D01*
X95320023Y-101684421D01*
X96222365Y-100782080D01*
X96109524Y-100695494D01*
X96109516Y-100695488D01*
X95882482Y-100564409D01*
X95882471Y-100564404D01*
X95640255Y-100464075D01*
X95387020Y-100396222D01*
X95387009Y-100396220D01*
X95127094Y-100362000D01*
X94864905Y-100362000D01*
X94604990Y-100396220D01*
X94604979Y-100396222D01*
X94351744Y-100464075D01*
X94109528Y-100564404D01*
X94109517Y-100564409D01*
X93882471Y-100695496D01*
X93769633Y-100782079D01*
X93769633Y-100782080D01*
X94671974Y-101684421D01*
X94640742Y-101697359D01*
X94517903Y-101779437D01*
X94413437Y-101883903D01*
X94331359Y-102006742D01*
X94318421Y-102037974D01*
X93416080Y-101135633D01*
X93416079Y-101135633D01*
X93329496Y-101248471D01*
X93198409Y-101475517D01*
X93198404Y-101475528D01*
X93098075Y-101717744D01*
X93030222Y-101970979D01*
X93030220Y-101970990D01*
X92996000Y-102230905D01*
X92426346Y-102230905D01*
X92398548Y-102019762D01*
X92339158Y-101798113D01*
X92267108Y-101624169D01*
X92251349Y-101586123D01*
X92251346Y-101586117D01*
X92251344Y-101586112D01*
X92136611Y-101387388D01*
X92136608Y-101387385D01*
X92136607Y-101387382D01*
X92027154Y-101244742D01*
X91996919Y-101205339D01*
X91996918Y-101205338D01*
X91996911Y-101205330D01*
X91834670Y-101043089D01*
X91834661Y-101043081D01*
X91685218Y-100928408D01*
X91652616Y-100903392D01*
X91652615Y-100903391D01*
X91652612Y-100903389D01*
X91453888Y-100788656D01*
X91453876Y-100788650D01*
X91241887Y-100700842D01*
X91221905Y-100695488D01*
X91020238Y-100641452D01*
X90982215Y-100636446D01*
X90792741Y-100611500D01*
X90792734Y-100611500D01*
X90563266Y-100611500D01*
X90563258Y-100611500D01*
X90346715Y-100640009D01*
X90335762Y-100641452D01*
X90242076Y-100666554D01*
X90114112Y-100700842D01*
X89902123Y-100788650D01*
X89902109Y-100788657D01*
X89703382Y-100903392D01*
X89521338Y-101043081D01*
X89359081Y-101205338D01*
X89219392Y-101387382D01*
X89104657Y-101586109D01*
X89104650Y-101586123D01*
X89016842Y-101798112D01*
X89016842Y-101798113D01*
X88967757Y-101981305D01*
X88957453Y-102019759D01*
X88957451Y-102019770D01*
X88927500Y-102247258D01*
X76208846Y-102247258D01*
X76267802Y-102228102D01*
X76454998Y-102132722D01*
X76478163Y-102120918D01*
X76478169Y-102120914D01*
X76561104Y-102060658D01*
X76561105Y-102060658D01*
X76016024Y-101515578D01*
X76047258Y-101502641D01*
X76170097Y-101420563D01*
X76274563Y-101316097D01*
X76356641Y-101193258D01*
X76369578Y-101162024D01*
X76914658Y-101707105D01*
X76914658Y-101707104D01*
X76974914Y-101624169D01*
X76974918Y-101624163D01*
X77082102Y-101413802D01*
X77155065Y-101189247D01*
X77192000Y-100956052D01*
X77192000Y-100719947D01*
X77155065Y-100486752D01*
X77082102Y-100262197D01*
X76974914Y-100051828D01*
X76914658Y-99968894D01*
X76914658Y-99968893D01*
X76369577Y-100513974D01*
X76356641Y-100482742D01*
X76274563Y-100359903D01*
X76170097Y-100255437D01*
X76047258Y-100173359D01*
X76016024Y-100160421D01*
X76561105Y-99615340D01*
X76561104Y-99615338D01*
X76478174Y-99555087D01*
X76267802Y-99447897D01*
X76043247Y-99374934D01*
X76043248Y-99374934D01*
X75810052Y-99338000D01*
X75573948Y-99338000D01*
X75340752Y-99374934D01*
X75116197Y-99447897D01*
X74905830Y-99555084D01*
X74822894Y-99615340D01*
X75367975Y-100160421D01*
X75336742Y-100173359D01*
X75213903Y-100255437D01*
X75109437Y-100359903D01*
X75027359Y-100482742D01*
X75014421Y-100513975D01*
X74469340Y-99968894D01*
X74409084Y-100051830D01*
X74301897Y-100262197D01*
X74228934Y-100486752D01*
X74192000Y-100719947D01*
X65013204Y-100719947D01*
X64958611Y-100625388D01*
X64958608Y-100625385D01*
X64958607Y-100625382D01*
X64818918Y-100443338D01*
X64818911Y-100443330D01*
X64656670Y-100281089D01*
X64656661Y-100281081D01*
X64474617Y-100141392D01*
X64432060Y-100116822D01*
X64275888Y-100026656D01*
X64275876Y-100026650D01*
X64063887Y-99938842D01*
X64043905Y-99933488D01*
X63842238Y-99879452D01*
X63804215Y-99874446D01*
X63614741Y-99849500D01*
X63614734Y-99849500D01*
X63385266Y-99849500D01*
X63385258Y-99849500D01*
X63168715Y-99878009D01*
X63157762Y-99879452D01*
X63064076Y-99904554D01*
X62936112Y-99938842D01*
X62724123Y-100026650D01*
X62724109Y-100026657D01*
X62525382Y-100141392D01*
X62343338Y-100281081D01*
X62181081Y-100443338D01*
X62041392Y-100625382D01*
X61926657Y-100824109D01*
X61926650Y-100824123D01*
X61838842Y-101036112D01*
X61838842Y-101036113D01*
X61781941Y-101248475D01*
X61779453Y-101257759D01*
X61779451Y-101257770D01*
X61749500Y-101485258D01*
X60420000Y-101485258D01*
X60420000Y-101468919D01*
X60419999Y-101468905D01*
X60385779Y-101208990D01*
X60385777Y-101208979D01*
X60317924Y-100955744D01*
X60217595Y-100713528D01*
X60217590Y-100713517D01*
X60086511Y-100486483D01*
X60086505Y-100486475D01*
X59999918Y-100373633D01*
X59999917Y-100373633D01*
X59097577Y-101275973D01*
X59084641Y-101244742D01*
X59002563Y-101121903D01*
X58898097Y-101017437D01*
X58775258Y-100935359D01*
X58744023Y-100922421D01*
X59646365Y-100020080D01*
X59533524Y-99933494D01*
X59533516Y-99933488D01*
X59306482Y-99802409D01*
X59306466Y-99802401D01*
X59245527Y-99777160D01*
X59245526Y-99777160D01*
X59064255Y-99702075D01*
X58811020Y-99634222D01*
X58811009Y-99634220D01*
X58551094Y-99600000D01*
X58288905Y-99600000D01*
X58028990Y-99634220D01*
X58028979Y-99634222D01*
X57775744Y-99702075D01*
X57533528Y-99802404D01*
X57533517Y-99802409D01*
X57306471Y-99933496D01*
X57193633Y-100020079D01*
X57193633Y-100020080D01*
X58095974Y-100922421D01*
X58064742Y-100935359D01*
X57941903Y-101017437D01*
X57837437Y-101121903D01*
X57755359Y-101244742D01*
X57742421Y-101275974D01*
X56840080Y-100373633D01*
X56840079Y-100373633D01*
X56753496Y-100486471D01*
X56622409Y-100713517D01*
X56622404Y-100713528D01*
X56522075Y-100955744D01*
X56454222Y-101208979D01*
X56454220Y-101208990D01*
X56420000Y-101468905D01*
X53840500Y-101468905D01*
X53840500Y-97144500D01*
X53860185Y-97077461D01*
X53912989Y-97031706D01*
X53964500Y-97020500D01*
X100975500Y-97020500D01*
X101042539Y-97040185D01*
G37*
%TD.AperFunction*%
%TD*%
M02*
