ISO-10303-21;
HEADER;
FILE_DESCRIPTION (( 'STEP AP214' ),
    '1' );
FILE_NAME ('CUI_DEVICES_CMT-1209-590T.step',
    '2024-05-13T16:26:29',
    ( '' ),
    ( '' ),
    'SwSTEP 2.0',
    'SolidWorks 2024',
    '' );
FILE_SCHEMA (( 'AUTOMOTIVE_DESIGN' ));
ENDSEC;

DATA;
#1 = ORIENTED_EDGE ( 'NONE', *, *, #217, .F. ) ;
#2 = VERTEX_POINT ( 'NONE', #687 ) ;
#3 = AXIS2_PLACEMENT_3D ( 'NONE', #310, #819, #41 ) ;
#4 = VERTEX_POINT ( 'NONE', #136 ) ;
#5 = CARTESIAN_POINT ( 'NONE',  ( 0.2253399688386614474, 0.3346456692913385988, -0.07086614173228347746 ) ) ;
#6 = EDGE_CURVE ( 'NONE', #846, #483, #26, .T. ) ;
#7 = VECTOR ( 'NONE', #81, 39.37007874015748143 ) ;
#8 = DIRECTION ( 'NONE',  ( 0.000000000000000000, 1.000000000000000000, 0.000000000000000000 ) ) ;
#9 = VERTEX_POINT ( 'NONE', #705 ) ;
#10 = DIRECTION ( 'NONE',  ( 1.000000000000000000, 0.000000000000000000, 0.000000000000000000 ) ) ;
#11 = DIRECTION ( 'NONE',  ( 0.000000000000000000, 0.000000000000000000, 1.000000000000000000 ) ) ;
#12 = ORIENTED_EDGE ( 'NONE', *, *, #274, .T. ) ;
#13 = DIRECTION ( 'NONE',  ( 0.000000000000000000, 0.000000000000000000, 1.000000000000000000 ) ) ;
#14 = DIRECTION ( 'NONE',  ( 0.000000000000000000, 0.000000000000000000, 1.000000000000000000 ) ) ;
#15 = DIRECTION ( 'NONE',  ( 0.000000000000000000, 1.000000000000000000, 0.000000000000000000 ) ) ;
#16 = LENGTH_MEASURE_WITH_UNIT ( LENGTH_MEASURE( 0.02539999999999999897 ), #293 );
#17 = DIRECTION ( 'NONE',  ( 0.000000000000000000, 0.000000000000000000, 1.000000000000000000 ) ) ;
#18 = FACE_OUTER_BOUND ( 'NONE', #246, .T. ) ;
#19 = CARTESIAN_POINT ( 'NONE',  ( 0.000000000000000000, 0.3543307086614173596, 0.000000000000000000 ) ) ;
#20 = CIRCLE ( 'NONE', #747, 0.2224409448818897850 ) ;
#21 = ORIENTED_EDGE ( 'NONE', *, *, #619, .F. ) ;
#22 = DIRECTION ( 'NONE',  ( 0.000000000000000000, 1.000000000000000000, 0.000000000000000000 ) ) ;
#23 = CIRCLE ( 'NONE', #95, 0.01181102362204724393 ) ;
#24 = ORIENTED_EDGE ( 'NONE', *, *, #322, .F. ) ;
#25 = FACE_OUTER_BOUND ( 'NONE', #316, .T. ) ;
#26 = CIRCLE ( 'NONE', #327, 0.2362204724409449064 ) ;
#27 = ORIENTED_EDGE ( 'NONE', *, *, #156, .F. ) ;
#28 = CARTESIAN_POINT ( 'NONE',  ( -0.05129810541099254217, 0.3543307086614173596, -0.2305832083684020151 ) ) ;
#29 = DIRECTION ( 'NONE',  ( 0.000000000000000000, 1.000000000000000000, 0.000000000000000000 ) ) ;
#30 = ORIENTED_EDGE ( 'NONE', *, *, #274, .F. ) ;
#31 = EDGE_CURVE ( 'NONE', #379, #128, #356, .T. ) ;
#32 = CARTESIAN_POINT ( 'NONE',  ( -0.09842519685039370636, 0.3346456692913385988, 0.000000000000000000 ) ) ;
#33 = ORIENTED_EDGE ( 'NONE', *, *, #403, .F. ) ;
#34 = LINE ( 'NONE', #114, #91 ) ;
#35 = EDGE_LOOP ( 'NONE', ( #884, #344, #372, #306 ) ) ;
#36 = VECTOR ( 'NONE', #663, 39.37007874015748143 ) ;
#37 = CARTESIAN_POINT ( 'NONE',  ( 0.09842519685039370636, 0.3346456692913385988, -0.01181102362204724393 ) ) ;
#38 = EDGE_CURVE ( 'NONE', #792, #703, #654, .T. ) ;
#39 = CARTESIAN_POINT ( 'NONE',  ( 0.000000000000000000, 0.000000000000000000, 0.000000000000000000 ) ) ;
#40 = ORIENTED_EDGE ( 'NONE', *, *, #441, .F. ) ;
#41 = DIRECTION ( 'NONE',  ( 4.440892098500625373E-15, 0.000000000000000000, 1.000000000000000000 ) ) ;
#42 = ORIENTED_EDGE ( 'NONE', *, *, #912, .F. ) ;
#43 = DIRECTION ( 'NONE',  ( 0.000000000000000000, 0.000000000000000000, 1.000000000000000000 ) ) ;
#44 = FACE_OUTER_BOUND ( 'NONE', #591, .T. ) ;
#45 = SURFACE_STYLE_USAGE ( .BOTH. , #677 ) ;
#46 = AXIS2_PLACEMENT_3D ( 'NONE', #531, #383, #601 ) ;
#47 = CARTESIAN_POINT ( 'NONE',  ( 0.000000000000000000, 0.3346456692913385988, 0.01968503937011417335 ) ) ;
#48 = LINE ( 'NONE', #746, #755 ) ;
#49 = ORIENTED_EDGE ( 'NONE', *, *, #749, .F. ) ;
#50 = DIRECTION ( 'NONE',  ( 1.000000000000000000, 0.000000000000000000, 0.000000000000000000 ) ) ;
#51 = DIRECTION ( 'NONE',  ( -0.000000000000000000, -1.000000000000000000, -0.000000000000000000 ) ) ;
#52 = DIRECTION ( 'NONE',  ( 0.000000000000000000, 0.000000000000000000, 1.000000000000000000 ) ) ;
#53 = EDGE_CURVE ( 'NONE', #172, #792, #830, .T. ) ;
#54 = ORIENTED_EDGE ( 'NONE', *, *, #441, .T. ) ;
#55 = DIRECTION ( 'NONE',  ( 0.000000000000000000, 1.000000000000000000, 0.000000000000000000 ) ) ;
#56 = EDGE_CURVE ( 'NONE', #163, #892, #126, .T. ) ;
#57 = ORIENTED_EDGE ( 'NONE', *, *, #322, .T. ) ;
#58 = FACE_OUTER_BOUND ( 'NONE', #77, .T. ) ;
#59 = CIRCLE ( 'NONE', #73, 0.2224409448818897850 ) ;
#60 = ORIENTED_EDGE ( 'NONE', *, *, #562, .T. ) ;
#61 = DIRECTION ( 'NONE',  ( 0.000000000000000000, 1.000000000000000000, 0.000000000000000000 ) ) ;
#62 = AXIS2_PLACEMENT_3D ( 'NONE', #685, #51, #330 ) ;
#63 = ADVANCED_FACE ( 'NONE', ( #727 ), #432, .F. ) ;
#64 = AXIS2_PLACEMENT_3D ( 'NONE', #514, #228, #795 ) ;
#65 = ORIENTED_EDGE ( 'NONE', *, *, #905, .T. ) ;
#66 = ORIENTED_EDGE ( 'NONE', *, *, #895, .T. ) ;
#67 = VERTEX_POINT ( 'NONE', #650 ) ;
#68 = DIRECTION ( 'NONE',  ( 0.000000000000000000, 1.000000000000000000, 0.000000000000000000 ) ) ;
#69 = ORIENTED_EDGE ( 'NONE', *, *, #31, .T. ) ;
#70 = DIRECTION ( 'NONE',  ( -1.000000000000000000, 0.000000000000000000, 0.000000000000000000 ) ) ;
#71 = EDGE_LOOP ( 'NONE', ( #587, #671 ) ) ;
#72 = ADVANCED_FACE ( 'NONE', ( #511 ), #438, .F. ) ;
#73 = AXIS2_PLACEMENT_3D ( 'NONE', #362, #876, #234 ) ;
#74 = FACE_BOUND ( 'NONE', #71, .T. ) ;
#75 = CARTESIAN_POINT ( 'NONE',  ( 0.000000000000000000, 0.000000000000000000, 0.000000000000000000 ) ) ;
#76 = EDGE_CURVE ( 'NONE', #808, #515, #90, .T. ) ;
#77 = EDGE_LOOP ( 'NONE', ( #764, #700, #24, #49 ) ) ;
#78 = DIRECTION ( 'NONE',  ( -1.000000000000000000, -0.000000000000000000, -0.000000000000000000 ) ) ;
#79 = DIRECTION ( 'NONE',  ( 0.000000000000000000, 0.000000000000000000, 1.000000000000000000 ) ) ;
#80 = LINE ( 'NONE', #793, #410 ) ;
#81 = DIRECTION ( 'NONE',  ( 0.000000000000000000, 1.000000000000000000, 0.000000000000000000 ) ) ;
#82 = CARTESIAN_POINT ( 'NONE',  ( 0.000000000000000000, 0.3149606299212598381, 0.04921259842519685318 ) ) ;
#83 = EDGE_CURVE ( 'NONE', #735, #4, #80, .T. ) ;
#84 = DIRECTION ( 'NONE',  ( 0.000000000000000000, 0.000000000000000000, 1.000000000000000000 ) ) ;
#85 = ORIENTED_EDGE ( 'NONE', *, *, #319, .T. ) ;
#86 = PLANE ( 'NONE',  #586 ) ;
#87 = CARTESIAN_POINT ( 'NONE',  ( 0.000000000000000000, 0.3346456692913385988, 0.000000000000000000 ) ) ;
#88 = ADVANCED_FACE ( 'NONE', ( #655 ), #710, .T. ) ;
#89 = ORIENTED_EDGE ( 'NONE', *, *, #538, .T. ) ;
#90 = LINE ( 'NONE', #729, #501 ) ;
#91 = VECTOR ( 'NONE', #607, 39.37007874015748143 ) ;
#92 = VECTOR ( 'NONE', #886, 39.37007874015748143 ) ;
#93 = EDGE_LOOP ( 'NONE', ( #106, #625, #555, #498, #481, #757, #374, #495, #389, #557, #12, #21 ) ) ;
#94 = DIRECTION ( 'NONE',  ( -6.217248937900876626E-15, 0.000000000000000000, 1.000000000000000000 ) ) ;
#95 = AXIS2_PLACEMENT_3D ( 'NONE', #295, #278, #719 ) ;
#96 = ORIENTED_EDGE ( 'NONE', *, *, #507, .F. ) ;
#97 = LINE ( 'NONE', #427, #292 ) ;
#98 = ADVANCED_FACE ( 'NONE', ( #159, #25 ), #443, .F. ) ;
#99 = ORIENTED_EDGE ( 'NONE', *, *, #83, .F. ) ;
#100 = CARTESIAN_POINT ( 'NONE',  ( -0.09842519685039370636, 0.4803149606299212393, 0.000000000000000000 ) ) ;
#101 = CARTESIAN_POINT ( 'NONE',  ( 6.026805113914140175E-18, 0.000000000000000000, -0.04921259842519685318 ) ) ;
#102 = LINE ( 'NONE', #809, #36 ) ;
#103 = EDGE_CURVE ( 'NONE', #336, #911, #147, .T. ) ;
#104 = ORIENTED_EDGE ( 'NONE', *, *, #636, .F. ) ;
#105 = LINE ( 'NONE', #676, #786 ) ;
#106 = ORIENTED_EDGE ( 'NONE', *, *, #678, .F. ) ;
#107 = LINE ( 'NONE', #180, #561 ) ;
#108 = ORIENTED_EDGE ( 'NONE', *, *, #435, .T. ) ;
#109 = PRESENTATION_LAYER_ASSIGNMENT (  '', '', ( #667 ) ) ;
#110 = AXIS2_PLACEMENT_3D ( 'NONE', #600, #245, #733 ) ;
#111 = DIRECTION ( 'NONE',  ( -0.000000000000000000, -1.000000000000000000, -0.000000000000000000 ) ) ;
#112 = DIRECTION ( 'NONE',  ( -0.5000000000000166533, -0.000000000000000000, -0.8660254037844289376 ) ) ;
#113 = DIRECTION ( 'NONE',  ( 0.000000000000000000, 1.000000000000000000, 0.000000000000000000 ) ) ;
#114 = CARTESIAN_POINT ( 'NONE',  ( 0.2353988335256149145, 0.000000000000000000, -0.01968503937011683441 ) ) ;
#115 = DIRECTION ( 'NONE',  ( 0.000000000000000000, 0.000000000000000000, 1.000000000000000000 ) ) ;
#116 = DIRECTION ( 'NONE',  ( 0.000000000000000000, 1.000000000000000000, 0.000000000000000000 ) ) ;
#117 = EDGE_CURVE ( 'NONE', #453, #524, #332, .T. ) ;
#118 = AXIS2_PLACEMENT_3D ( 'NONE', #717, #29, #659 ) ;
#119 = FACE_OUTER_BOUND ( 'NONE', #211, .T. ) ;
#120 = CIRCLE ( 'NONE', #637, 0.01181102362204724393 ) ;
#121 = CARTESIAN_POINT ( 'NONE',  ( 0.000000000000000000, 0.3149606299212598381, 0.000000000000000000 ) ) ;
#122 = AXIS2_PLACEMENT_3D ( 'NONE', #852, #406, #123 ) ;
#123 = DIRECTION ( 'NONE',  ( 0.000000000000000000, 0.000000000000000000, 1.000000000000000000 ) ) ;
#124 = DIRECTION ( 'NONE',  ( -0.000000000000000000, -1.000000000000000000, -0.000000000000000000 ) ) ;
#125 = DIRECTION ( 'NONE',  ( 0.000000000000000000, 0.000000000000000000, 1.000000000000000000 ) ) ;
#126 = LINE ( 'NONE', #216, #796 ) ;
#127 = EDGE_CURVE ( 'NONE', #492, #170, #97, .T. ) ;
#128 = VERTEX_POINT ( 'NONE', #797 ) ;
#129 = CARTESIAN_POINT ( 'NONE',  ( 0.000000000000000000, 0.3543307086614173596, 0.000000000000000000 ) ) ;
#130 = ORIENTED_EDGE ( 'NONE', *, *, #660, .F. ) ;
#131 = LENGTH_MEASURE_WITH_UNIT ( LENGTH_MEASURE( 0.02539999999999999897 ), #409 );
#132 = ORIENTED_EDGE ( 'NONE', *, *, #520, .F. ) ;
#133 = ORIENTED_EDGE ( 'NONE', *, *, #636, .T. ) ;
#134 = DIRECTION ( 'NONE',  ( 0.000000000000000000, 0.000000000000000000, 1.000000000000000000 ) ) ;
#135 = DIRECTION ( 'NONE',  ( -0.000000000000000000, -1.000000000000000000, -0.000000000000000000 ) ) ;
#136 = CARTESIAN_POINT ( 'NONE',  ( -0.04405340723260112168, 0.3346456692913385988, -0.2180350230379205223 ) ) ;
#137 = VECTOR ( 'NONE', #219, 39.37007874015748143 ) ;
#138 = EDGE_LOOP ( 'NONE', ( #158, #869, #376, #646 ) ) ;
#139 = CARTESIAN_POINT ( 'NONE',  ( 0.000000000000000000, 0.3543307086614173596, 0.000000000000000000 ) ) ;
#140 = ORIENTED_EDGE ( 'NONE', *, *, #673, .F. ) ;
#141 = DIRECTION ( 'NONE',  ( 0.000000000000000000, 1.000000000000000000, 0.000000000000000000 ) ) ;
#142 = CARTESIAN_POINT ( 'NONE',  ( -0.1740418634276822141, 0.3346456692913385988, -0.1597170666361087676 ) ) ;
#143 = CARTESIAN_POINT ( 'NONE',  ( -0.09842519685039370636, 0.3346456692913385988, 0.01181102362204724393 ) ) ;
#144 = EDGE_CURVE ( 'NONE', #911, #867, #59, .T. ) ;
#145 = CARTESIAN_POINT ( 'NONE',  ( 0.09842519685039370636, 0.3346456692913385988, -0.01181102362204724393 ) ) ;
#146 = CARTESIAN_POINT ( 'NONE',  ( 0.2108505724818589278, 0.3543307086614173596, -0.07086614173228483748 ) ) ;
#147 = LINE ( 'NONE', #590, #737 ) ;
#148 = AXIS2_PLACEMENT_3D ( 'NONE', #668, #318, #43 ) ;
#149 = EDGE_CURVE ( 'NONE', #128, #379, #577, .T. ) ;
#150 = LINE ( 'NONE', #853, #137 ) ;
#151 = CYLINDRICAL_SURFACE ( 'NONE', #64, 0.2224409448818897850 ) ;
#152 = VERTEX_POINT ( 'NONE', #238 ) ;
#153 = DIRECTION ( 'NONE',  ( 0.000000000000000000, 1.000000000000000000, 0.000000000000000000 ) ) ;
#154 =( NAMED_UNIT ( * ) PLANE_ANGLE_UNIT ( ) SI_UNIT ( $, .RADIAN. ) );
#155 = DIRECTION ( 'NONE',  ( 0.000000000000000000, 0.000000000000000000, -1.000000000000000000 ) ) ;
#156 = EDGE_CURVE ( 'NONE', #366, #686, #889, .T. ) ;
#157 = FACE_BOUND ( 'NONE', #467, .T. ) ;
#158 = ORIENTED_EDGE ( 'NONE', *, *, #500, .T. ) ;
#159 = FACE_BOUND ( 'NONE', #909, .T. ) ;
#160 = ORIENTED_EDGE ( 'NONE', *, *, #169, .F. ) ;
#161 = PRODUCT_RELATED_PRODUCT_CATEGORY ( 'part', '', ( #669 ) ) ;
#162 = LINE ( 'NONE', #440, #299 ) ;
#163 = VERTEX_POINT ( 'NONE', #143 ) ;
#164 = CARTESIAN_POINT ( 'NONE',  ( 0.000000000000000000, 0.4803149606299212393, 0.000000000000000000 ) ) ;
#165 = AXIS2_PLACEMENT_3D ( 'NONE', #885, #736, #605 ) ;
#166 = ORIENTED_EDGE ( 'NONE', *, *, #56, .F. ) ;
#167 = CARTESIAN_POINT ( 'NONE',  ( -0.04405340723259888736, 0.3543307086614173596, 0.2180350230379177190 ) ) ;
#168 = FILL_AREA_STYLE ('',( #805 ) ) ;
#169 = EDGE_CURVE ( 'NONE', #841, #483, #858, .T. ) ;
#170 = VERTEX_POINT ( 'NONE', #506 ) ;
#171 = DIRECTION ( 'NONE',  ( 0.000000000000000000, 1.000000000000000000, 0.000000000000000000 ) ) ;
#172 = VERTEX_POINT ( 'NONE', #583 ) ;
#173 = DIRECTION ( 'NONE',  ( 0.000000000000000000, 1.000000000000000000, 0.000000000000000000 ) ) ;
#174 = ORIENTED_EDGE ( 'NONE', *, *, #720, .T. ) ;
#175 = DIRECTION ( 'NONE',  ( -0.000000000000000000, -1.000000000000000000, -0.000000000000000000 ) ) ;
#176 = VECTOR ( 'NONE', #423, 39.37007874015748143 ) ;
#177 = DIRECTION ( 'NONE',  ( 0.000000000000000000, 0.000000000000000000, 1.000000000000000000 ) ) ;
#178 = ADVANCED_FACE ( 'NONE', ( #298 ), #355, .T. ) ;
#179 = DIRECTION ( 'NONE',  ( -0.8660254037844290487, 0.000000000000000000, 0.5000000000000167644 ) ) ;
#180 = CARTESIAN_POINT ( 'NONE',  ( 0.2353988335256152198, 0.000000000000000000, 0.01968503937011294169 ) ) ;
#181 = CIRCLE ( 'NONE', #699, 0.2362204724409449064 ) ;
#182 = CYLINDRICAL_SURFACE ( 'NONE', #744, 0.01181102362204724393 ) ;
#183 = ADVANCED_FACE ( 'NONE', ( #287 ), #570, .T. ) ;
#184 = DIRECTION ( 'NONE',  ( -0.000000000000000000, -1.000000000000000000, -0.000000000000000000 ) ) ;
#185 = EDGE_CURVE ( 'NONE', #455, #347, #606, .T. ) ;
#186 = CYLINDRICAL_SURFACE ( 'NONE', #459, 0.04921259842519685318 ) ;
#187 = DIRECTION ( 'NONE',  ( 0.000000000000000000, 0.000000000000000000, 1.000000000000000000 ) ) ;
#188 = EDGE_LOOP ( 'NONE', ( #40, #770 ) ) ;
#189 = ORIENTED_EDGE ( 'NONE', *, *, #730, .F. ) ;
#190 = MECHANICAL_DESIGN_GEOMETRIC_PRESENTATION_REPRESENTATION (  '', ( #667 ), #681 ) ;
#191 = CARTESIAN_POINT ( 'NONE',  ( -0.04405340723259889429, 0.3346456692913385988, 0.2180350230379177190 ) ) ;
#192 = VECTOR ( 'NONE', #899, 39.37007874015748143 ) ;
#193 = VERTEX_POINT ( 'NONE', #887 ) ;
#194 = DIRECTION ( 'NONE',  ( -0.5000000000000166533, 0.000000000000000000, 0.8660254037844289376 ) ) ;
#195 = ORIENTED_EDGE ( 'NONE', *, *, #117, .T. ) ;
#196 = ORIENTED_EDGE ( 'NONE', *, *, #38, .F. ) ;
#197 = ADVANCED_FACE ( 'NONE', ( #674 ), #813, .F. ) ;
#198 = CARTESIAN_POINT ( 'NONE',  ( -0.1667971652492913348, 0.3346456692913385988, 0.1471688813056299394 ) ) ;
#199 = FACE_OUTER_BOUND ( 'NONE', #804, .T. ) ;
#200 = VERTEX_POINT ( 'NONE', #378 ) ;
#201 = DIRECTION ( 'NONE',  ( 1.000000000000000000, 0.000000000000000000, 0.000000000000000000 ) ) ;
#202 = PLANE ( 'NONE',  #519 ) ;
#203 = ORIENTED_EDGE ( 'NONE', *, *, #836, .T. ) ;
#204 = APPLICATION_PROTOCOL_DEFINITION ( 'draft international standard', 'automotive_design', 1998, #597 ) ;
#205 = DIRECTION ( 'NONE',  ( 1.000000000000000000, 0.000000000000000000, 0.000000000000000000 ) ) ;
#206 = AXIS2_PLACEMENT_3D ( 'NONE', #788, #868, #79 ) ;
#207 = CARTESIAN_POINT ( 'NONE',  ( 6.026805113914140175E-18, 0.3149606299212598381, -0.04921259842519685318 ) ) ;
#208 = VECTOR ( 'NONE', #113, 39.37007874015748143 ) ;
#209 = AXIS2_PLACEMENT_3D ( 'NONE', #100, #249, #177 ) ;
#210 = LINE ( 'NONE', #777, #221 ) ;
#211 = EDGE_LOOP ( 'NONE', ( #96, #437, #862, #470 ) ) ;
#212 = ORIENTED_EDGE ( 'NONE', *, *, #508, .F. ) ;
#213 = LINE ( 'NONE', #713, #611 ) ;
#214 = CARTESIAN_POINT ( 'NONE',  ( 0.000000000000000000, 0.3543307086614173596, 0.000000000000000000 ) ) ;
#215 = ORIENTED_EDGE ( 'NONE', *, *, #149, .F. ) ;
#216 = CARTESIAN_POINT ( 'NONE',  ( -0.09842519685039370636, 0.3346456692913385988, 0.01181102362204724393 ) ) ;
#217 = EDGE_CURVE ( 'NONE', #193, #170, #102, .T. ) ;
#218 = ORIENTED_EDGE ( 'NONE', *, *, #835, .T. ) ;
#219 = DIRECTION ( 'NONE',  ( 0.000000000000000000, 1.000000000000000000, 0.000000000000000000 ) ) ;
#220 = CARTESIAN_POINT ( 'NONE',  ( 0.000000000000000000, 0.000000000000000000, 0.000000000000000000 ) ) ;
#221 = VECTOR ( 'NONE', #289, 39.37007874015748854 ) ;
#222 = CARTESIAN_POINT ( 'NONE',  ( 0.000000000000000000, 0.000000000000000000, 0.2362204724409449064 ) ) ;
#223 = AXIS2_PLACEMENT_3D ( 'NONE', #345, #265, #194 ) ;
#224 = CIRCLE ( 'NONE', #487, 0.2362204724409449064 ) ;
#225 = EDGE_CURVE ( 'NONE', #524, #453, #503, .T. ) ;
#226 = CARTESIAN_POINT ( 'NONE',  ( -0.04405340723259842939, 0.3543307086614173596, -0.2180350230379133891 ) ) ;
#227 = DIRECTION ( 'NONE',  ( -0.000000000000000000, -1.000000000000000000, -0.000000000000000000 ) ) ;
#228 = DIRECTION ( 'NONE',  ( 0.000000000000000000, 1.000000000000000000, 0.000000000000000000 ) ) ;
#229 = ORIENTED_EDGE ( 'NONE', *, *, #156, .T. ) ;
#230 = CARTESIAN_POINT ( 'NONE',  ( 0.2108505724818504068, 0.3346456692913385988, 0.07086614173228347746 ) ) ;
#231 = ORIENTED_EDGE ( 'NONE', *, *, #117, .F. ) ;
#232 = CARTESIAN_POINT ( 'NONE',  ( -0.05129810541098425714, 0.3543307086614173596, 0.2305832083683858336 ) ) ;
#233 = DIRECTION ( 'NONE',  ( 0.000000000000000000, 1.000000000000000000, 0.000000000000000000 ) ) ;
#234 = DIRECTION ( 'NONE',  ( 0.000000000000000000, 0.000000000000000000, 1.000000000000000000 ) ) ;
#235 = ORIENTED_EDGE ( 'NONE', *, *, #469, .F. ) ;
#236 = DIRECTION ( 'NONE',  ( 0.5000000000000166533, 0.000000000000000000, 0.8660254037844289376 ) ) ;
#237 = EDGE_CURVE ( 'NONE', #524, #347, #739, .T. ) ;
#238 = CARTESIAN_POINT ( 'NONE',  ( -0.05129810541099082133, 0.3543307086614173596, 0.2305832083684024036 ) ) ;
#239 = VECTOR ( 'NONE', #112, 39.37007874015748854 ) ;
#240 = ORIENTED_EDGE ( 'NONE', *, *, #604, .T. ) ;
#241 = CYLINDRICAL_SURFACE ( 'NONE', #396, 0.01181102362204724393 ) ;
#242 = CIRCLE ( 'NONE', #715, 0.2362204724409449064 ) ;
#243 = DIRECTION ( 'NONE',  ( 0.000000000000000000, 0.000000000000000000, 1.000000000000000000 ) ) ;
#244 = ORIENTED_EDGE ( 'NONE', *, *, #678, .T. ) ;
#245 = DIRECTION ( 'NONE',  ( -0.000000000000000000, -1.000000000000000000, -0.000000000000000000 ) ) ;
#246 = EDGE_LOOP ( 'NONE', ( #417, #565, #133, #42 ) ) ;
#247 = CARTESIAN_POINT ( 'NONE',  ( -0.04405340723259842939, 0.3346456692913385988, -0.2180350230379133891 ) ) ;
#248 = EDGE_CURVE ( 'NONE', #789, #200, #526, .T. ) ;
#249 = DIRECTION ( 'NONE',  ( -0.000000000000000000, -1.000000000000000000, -0.000000000000000000 ) ) ;
#250 = PLANE ( 'NONE',  #756 ) ;
#251 = ORIENTED_EDGE ( 'NONE', *, *, #424, .F. ) ;
#252 = DIRECTION ( 'NONE',  ( 0.000000000000000000, 0.000000000000000000, 1.000000000000000000 ) ) ;
#253 = VECTOR ( 'NONE', #393, 39.37007874015748143 ) ;
#254 = ADVANCED_FACE ( 'NONE', ( #752 ), #447, .T. ) ;
#255 = EDGE_LOOP ( 'NONE', ( #798, #653, #229, #401 ) ) ;
#256 = CARTESIAN_POINT ( 'NONE',  ( 0.000000000000000000, 0.3346456692913385988, 0.000000000000000000 ) ) ;
#257 = AXIS2_PLACEMENT_3D ( 'NONE', #482, #832, #612 ) ;
#258 = LINE ( 'NONE', #261, #784 ) ;
#259 = EDGE_LOOP ( 'NONE', ( #566, #603, #218, #540 ) ) ;
#260 = LINE ( 'NONE', #478, #683 ) ;
#261 = CARTESIAN_POINT ( 'NONE',  ( 0.2108505724818504068, 0.3543307086614173596, 0.07086614173228347746 ) ) ;
#262 = ORIENTED_EDGE ( 'NONE', *, *, #836, .F. ) ;
#263 = LINE ( 'NONE', #903, #269 ) ;
#264 = EDGE_CURVE ( 'NONE', #546, #379, #48, .T. ) ;
#265 = DIRECTION ( 'NONE',  ( -0.8660254037844290487, 0.000000000000000000, -0.5000000000000167644 ) ) ;
#266 = ORIENTED_EDGE ( 'NONE', *, *, #749, .T. ) ;
#267 = FACE_OUTER_BOUND ( 'NONE', #93, .T. ) ;
#268 = CARTESIAN_POINT ( 'NONE',  ( 0.000000000000000000, 0.3346456692913385988, 0.000000000000000000 ) ) ;
#269 = VECTOR ( 'NONE', #541, 39.37007874015748143 ) ;
#270 = UNCERTAINTY_MEASURE_WITH_UNIT (LENGTH_MEASURE( 1.000000000000000082E-05 ), #760, 'distance_accuracy_value', 'NONE');
#271 = DIRECTION ( 'NONE',  ( 0.000000000000000000, 0.000000000000000000, 1.000000000000000000 ) ) ;
#272 = CARTESIAN_POINT ( 'NONE',  ( 0.09842519685039370636, 0.3346456692913385988, 0.000000000000000000 ) ) ;
#273 = ORIENTED_EDGE ( 'NONE', *, *, #500, .F. ) ;
#274 = EDGE_CURVE ( 'NONE', #614, #67, #456, .T. ) ;
#275 = CARTESIAN_POINT ( 'NONE',  ( 0.2108505724818584837, 0.3346456692913385988, -0.07086614173228618363 ) ) ;
#276 = FACE_OUTER_BOUND ( 'NONE', #324, .T. ) ;
#277 = CARTESIAN_POINT ( 'NONE',  ( 0.000000000000000000, 0.3346456692913385988, 0.000000000000000000 ) ) ;
#278 = DIRECTION ( 'NONE',  ( -0.000000000000000000, -1.000000000000000000, -0.000000000000000000 ) ) ;
#279 = AXIS2_PLACEMENT_3D ( 'NONE', #843, #468, #544 ) ;
#280 = DIRECTION ( 'NONE',  ( 0.000000000000000000, -1.000000000000000000, 0.000000000000000000 ) ) ;
#281 = AXIS2_PLACEMENT_3D ( 'NONE', #214, #497, #589 ) ;
#282 = ORIENTED_EDGE ( 'NONE', *, *, #912, .T. ) ;
#283 = VECTOR ( 'NONE', #430, 39.37007874015748143 ) ;
#284 = CARTESIAN_POINT ( 'NONE',  ( 0.2253399688386491517, 0.3346456692913385988, 0.07086614173228163172 ) ) ;
#285 = FACE_OUTER_BOUND ( 'NONE', #485, .T. ) ;
#286 = ORIENTED_EDGE ( 'NONE', *, *, #802, .F. ) ;
#287 = FACE_OUTER_BOUND ( 'NONE', #695, .T. ) ;
#288 = CARTESIAN_POINT ( 'NONE',  ( -0.09842519685039370636, 0.3346456692913385988, -0.01181102362204724393 ) ) ;
#289 = DIRECTION ( 'NONE',  ( 0.5000000000000166533, 0.000000000000000000, -0.8660254037844289376 ) ) ;
#290 = EDGE_CURVE ( 'NONE', #301, #530, #107, .T. ) ;
#291 = DIRECTION ( 'NONE',  ( 0.000000000000000000, 0.000000000000000000, 1.000000000000000000 ) ) ;
#292 = VECTOR ( 'NONE', #870, 39.37007874015748143 ) ;
#293 =( LENGTH_UNIT ( ) NAMED_UNIT ( * ) SI_UNIT ( $, .METRE. ) );
#294 = ORIENTED_EDGE ( 'NONE', *, *, #850, .T. ) ;
#295 = CARTESIAN_POINT ( 'NONE',  ( 0.09842519685039370636, 0.3346456692913385988, 0.000000000000000000 ) ) ;
#296 = FACE_OUTER_BOUND ( 'NONE', #569, .T. ) ;
#297 = AXIS2_PLACEMENT_3D ( 'NONE', #335, #774, #484 ) ;
#298 = FACE_OUTER_BOUND ( 'NONE', #138, .T. ) ;
#299 = VECTOR ( 'NONE', #510, 39.37007874015748143 ) ;
#300 = CLOSED_SHELL ( 'NONE', ( #72, #585, #596, #779, #741, #360, #448, #783, #452, #178, #254, #706, #98, #387, #348, #394, #63, #349, #493, #197, #649, #579, #183, #866, #840, #480, #477, #88, #343 ) ) ;
#301 = VERTEX_POINT ( 'NONE', #680 ) ;
#302 = PLANE ( 'NONE',  #471 ) ;
#303 = CARTESIAN_POINT ( 'NONE',  ( 0.000000000000000000, 0.000000000000000000, 0.000000000000000000 ) ) ;
#304 = VERTEX_POINT ( 'NONE', #897 ) ;
#305 = DIRECTION ( 'NONE',  ( 0.000000000000000000, 1.000000000000000000, 0.000000000000000000 ) ) ;
#306 = ORIENTED_EDGE ( 'NONE', *, *, #248, .T. ) ;
#307 = DIRECTION ( 'NONE',  ( 0.000000000000000000, 1.000000000000000000, 0.000000000000000000 ) ) ;
#308 = ORIENTED_EDGE ( 'NONE', *, *, #127, .F. ) ;
#309 = EDGE_CURVE ( 'NONE', #775, #911, #321, .T. ) ;
#310 = CARTESIAN_POINT ( 'NONE',  ( 0.000000000000000000, 0.3543307086614173596, 0.000000000000000000 ) ) ;
#311 = SURFACE_STYLE_FILL_AREA ( #168 ) ;
#312 = CIRCLE ( 'NONE', #817, 0.2362204724409449064 ) ;
#313 = ORIENTED_EDGE ( 'NONE', *, *, #508, .T. ) ;
#314 = CARTESIAN_POINT ( 'NONE',  ( 2.892866454678787531E-17, 0.3346456692913385988, -0.2362204724409449064 ) ) ;
#315 = CARTESIAN_POINT ( 'NONE',  ( -0.1740418634276771903, 0.3543307086614173596, -0.1597170666361023561 ) ) ;
#316 = EDGE_LOOP ( 'NONE', ( #675, #235 ) ) ;
#317 = DIRECTION ( 'NONE',  ( 0.000000000000000000, 0.000000000000000000, 1.000000000000000000 ) ) ;
#318 = DIRECTION ( 'NONE',  ( 0.000000000000000000, 1.000000000000000000, 0.000000000000000000 ) ) ;
#319 = EDGE_CURVE ( 'NONE', #867, #193, #326, .T. ) ;
#320 = CYLINDRICAL_SURFACE ( 'NONE', #338, 0.2224409448818897850 ) ;
#321 = LINE ( 'NONE', #750, #384 ) ;
#322 = EDGE_CURVE ( 'NONE', #304, #336, #34, .T. ) ;
#323 = AXIS2_PLACEMENT_3D ( 'NONE', #39, #175, #252 ) ;
#324 = EDGE_LOOP ( 'NONE', ( #132, #709, #203, #548 ) ) ;
#325 = LINE ( 'NONE', #554, #584 ) ;
#326 = LINE ( 'NONE', #613, #395 ) ;
#327 = AXIS2_PLACEMENT_3D ( 'NONE', #277, #633, #844 ) ;
#328 = CARTESIAN_POINT ( 'NONE',  ( -0.04405340723260112168, 0.3543307086614173596, -0.2180350230379205223 ) ) ;
#329 = MANIFOLD_SOLID_BREP ( 'Imported1', #300 ) ;
#330 = DIRECTION ( 'NONE',  ( 0.000000000000000000, 0.000000000000000000, 1.000000000000000000 ) ) ;
#331 = VERTEX_POINT ( 'NONE', #900 ) ;
#332 = CIRCLE ( 'NONE', #692, 0.04921259842519685318 ) ;
#333 = DIRECTION ( 'NONE',  ( 0.000000000000000000, 0.000000000000000000, 1.000000000000000000 ) ) ;
#334 = EDGE_CURVE ( 'NONE', #9, #686, #258, .T. ) ;
#335 = CARTESIAN_POINT ( 'NONE',  ( 0.2353988335256299302, 0.3543307086614173596, -0.01968503937011811117 ) ) ;
#336 = VERTEX_POINT ( 'NONE', #910 ) ;
#337 = LINE ( 'NONE', #679, #880 ) ;
#338 = AXIS2_PLACEMENT_3D ( 'NONE', #256, #173, #317 ) ;
#339 = ORIENTED_EDGE ( 'NONE', *, *, #309, .F. ) ;
#340 = AXIS2_PLACEMENT_3D ( 'NONE', #397, #333, #50 ) ;
#341 = LINE ( 'NONE', #275, #883 ) ;
#342 = ORIENTED_EDGE ( 'NONE', *, *, #682, .T. ) ;
#343 = ADVANCED_FACE ( 'NONE', ( #556 ), #833, .F. ) ;
#344 = ORIENTED_EDGE ( 'NONE', *, *, #610, .F. ) ;
#345 = CARTESIAN_POINT ( 'NONE',  ( -0.1667971652492913348, 0.3346456692913385988, 0.1471688813056299394 ) ) ;
#346 = ORIENTED_EDGE ( 'NONE', *, *, #237, .T. ) ;
#347 = VERTEX_POINT ( 'NONE', #207 ) ;
#348 = ADVANCED_FACE ( 'NONE', ( #694 ), #202, .T. ) ;
#349 = ADVANCED_FACE ( 'NONE', ( #58 ), #763, .F. ) ;
#350 = EDGE_LOOP ( 'NONE', ( #1, #776, #342, #768 ) ) ;
#351 = PRODUCT_DEFINITION_CONTEXT ( 'detailed design', #597, 'design' ) ;
#352 = AXIS2_PLACEMENT_3D ( 'NONE', #121, #620, #125 ) ;
#353 = DIRECTION ( 'NONE',  ( -0.000000000000000000, -1.000000000000000000, -0.000000000000000000 ) ) ;
#354 = CIRCLE ( 'NONE', #413, 0.2224409448818897850 ) ;
#355 = PLANE ( 'NONE',  #651 ) ;
#356 = CIRCLE ( 'NONE', #122, 0.01181102362204724393 ) ;
#357 = CIRCLE ( 'NONE', #907, 0.2362204724409449064 ) ;
#358 = ORIENTED_EDGE ( 'NONE', *, *, #682, .F. ) ;
#359 = CARTESIAN_POINT ( 'NONE',  ( 0.000000000000000000, 0.3543307086614173596, 0.000000000000000000 ) ) ;
#360 = ADVANCED_FACE ( 'NONE', ( #199 ), #702, .T. ) ;
#361 = DIRECTION ( 'NONE',  ( 0.000000000000000000, 0.000000000000000000, 1.000000000000000000 ) ) ;
#362 = CARTESIAN_POINT ( 'NONE',  ( 0.000000000000000000, 0.3346456692913385988, 0.000000000000000000 ) ) ;
#363 = CARTESIAN_POINT ( 'NONE',  ( 0.000000000000000000, 0.3543307086614173596, 0.000000000000000000 ) ) ;
#364 = DIRECTION ( 'NONE',  ( 0.000000000000000000, 0.000000000000000000, 1.000000000000000000 ) ) ;
#365 = AXIS2_PLACEMENT_3D ( 'NONE', #645, #865, #84 ) ;
#366 = VERTEX_POINT ( 'NONE', #631 ) ;
#367 = LINE ( 'NONE', #232, #283 ) ;
#368 = AXIS2_PLACEMENT_3D ( 'NONE', #639, #8, #854 ) ;
#369 = ORIENTED_EDGE ( 'NONE', *, *, #185, .T. ) ;
#370 = DIRECTION ( 'NONE',  ( 0.000000000000000000, 1.000000000000000000, 0.000000000000000000 ) ) ;
#371 = EDGE_CURVE ( 'NONE', #806, #789, #405, .T. ) ;
#372 = ORIENTED_EDGE ( 'NONE', *, *, #371, .T. ) ;
#373 = FACE_OUTER_BOUND ( 'NONE', #617, .T. ) ;
#374 = ORIENTED_EDGE ( 'NONE', *, *, #673, .T. ) ;
#375 = DIRECTION ( 'NONE',  ( -0.000000000000000000, -1.000000000000000000, -0.000000000000000000 ) ) ;
#376 = ORIENTED_EDGE ( 'NONE', *, *, #814, .F. ) ;
#377 = CARTESIAN_POINT ( 'NONE',  ( 0.2353988335256151365, 0.3543307086614173596, 0.01968503937011355578 ) ) ;
#378 = CARTESIAN_POINT ( 'NONE',  ( -0.1740418634276822696, 0.3543307086614173596, -0.1597170666361087676 ) ) ;
#379 = VERTEX_POINT ( 'NONE', #539 ) ;
#380 = EDGE_CURVE ( 'NONE', #492, #775, #608, .T. ) ;
#381 = CARTESIAN_POINT ( 'NONE',  ( 0.000000000000000000, 0.3346456692913385988, 0.000000000000000000 ) ) ;
#382 = ORIENTED_EDGE ( 'NONE', *, *, #814, .T. ) ;
#383 = DIRECTION ( 'NONE',  ( -0.000000000000000000, -1.000000000000000000, -0.000000000000000000 ) ) ;
#384 = VECTOR ( 'NONE', #184, 39.37007874015748143 ) ;
#385 = EDGE_LOOP ( 'NONE', ( #551, #528, #902, #593 ) ) ;
#386 = DIRECTION ( 'NONE',  ( 0.000000000000000000, 0.000000000000000000, 1.000000000000000000 ) ) ;
#387 = ADVANCED_FACE ( 'NONE', ( #690 ), #416, .T. ) ;
#388 = VECTOR ( 'NONE', #227, 39.37007874015748143 ) ;
#389 = ORIENTED_EDGE ( 'NONE', *, *, #873, .T. ) ;
#390 = CARTESIAN_POINT ( 'NONE',  ( -0.05129810541098799026, 0.000000000000000000, -0.2305832083684030143 ) ) ;
#391 = CARTESIAN_POINT ( 'NONE',  ( 0.000000000000000000, 0.3543307086614173596, 0.000000000000000000 ) ) ;
#392 = DIRECTION ( 'NONE',  ( -0.000000000000000000, -1.000000000000000000, -0.000000000000000000 ) ) ;
#393 = DIRECTION ( 'NONE',  ( -0.000000000000000000, -1.000000000000000000, -0.000000000000000000 ) ) ;
#394 = ADVANCED_FACE ( 'NONE', ( #276 ), #823, .T. ) ;
#395 = VECTOR ( 'NONE', #521, 39.37007874015748143 ) ;
#396 = AXIS2_PLACEMENT_3D ( 'NONE', #32, #535, #386 ) ;
#397 = CARTESIAN_POINT ( 'NONE',  ( 0.2215682133902362183, 0.3543307086614173596, 0.01968503937011417335 ) ) ;
#398 = VECTOR ( 'NONE', #761, 39.37007874015748143 ) ;
#399 = CIRCLE ( 'NONE', #209, 0.01181102362204724393 ) ;
#400 = DIRECTION ( 'NONE',  ( 0.000000000000000000, 1.000000000000000000, 0.000000000000000000 ) ) ;
#401 = ORIENTED_EDGE ( 'NONE', *, *, #334, .F. ) ;
#402 = DIRECTION ( 'NONE',  ( 0.000000000000000000, 1.000000000000000000, 0.000000000000000000 ) ) ;
#403 = EDGE_CURVE ( 'NONE', #163, #808, #622, .T. ) ;
#404 = PLANE ( 'NONE',  #340 ) ;
#405 = LINE ( 'NONE', #767, #533 ) ;
#406 = DIRECTION ( 'NONE',  ( -0.000000000000000000, -1.000000000000000000, -0.000000000000000000 ) ) ;
#407 = DIRECTION ( 'NONE',  ( -0.000000000000000000, -1.000000000000000000, -0.000000000000000000 ) ) ;
#408 = VERTEX_POINT ( 'NONE', #827 ) ;
#409 =( LENGTH_UNIT ( ) NAMED_UNIT ( * ) SI_UNIT ( $, .METRE. ) );
#410 = VECTOR ( 'NONE', #375, 39.37007874015748143 ) ;
#411 = EDGE_LOOP ( 'NONE', ( #273, #27, #726, #445 ) ) ;
#412 = AXIS2_PLACEMENT_3D ( 'NONE', #781, #582, #361 ) ;
#413 = AXIS2_PLACEMENT_3D ( 'NONE', #771, #392, #134 ) ;
#414 = DIRECTION ( 'NONE',  ( -0.000000000000000000, -1.000000000000000000, -0.000000000000000000 ) ) ;
#415 = EDGE_CURVE ( 'NONE', #347, #455, #635, .T. ) ;
#416 = PLANE ( 'NONE',  #223 ) ;
#417 = ORIENTED_EDGE ( 'NONE', *, *, #773, .F. ) ;
#418 = ORIENTED_EDGE ( 'NONE', *, *, #644, .F. ) ;
#419 = ORIENTED_EDGE ( 'NONE', *, *, #6, .T. ) ;
#420 = ORIENTED_EDGE ( 'NONE', *, *, #6, .F. ) ;
#421 = DIRECTION ( 'NONE',  ( 0.000000000000000000, 1.000000000000000000, 0.000000000000000000 ) ) ;
#422 = CARTESIAN_POINT ( 'NONE',  ( 0.000000000000000000, 0.3346456692913385988, 0.000000000000000000 ) ) ;
#423 = DIRECTION ( 'NONE',  ( 0.000000000000000000, 1.000000000000000000, 0.000000000000000000 ) ) ;
#424 = EDGE_CURVE ( 'NONE', #4, #806, #815, .T. ) ;
#425 = ORIENTED_EDGE ( 'NONE', *, *, #604, .F. ) ;
#426 = CARTESIAN_POINT ( 'NONE',  ( 0.2108505724818589278, 0.3346456692913385988, -0.07086614173228483748 ) ) ;
#427 = CARTESIAN_POINT ( 'NONE',  ( 0.2253399688386614474, 0.3543307086614173596, -0.07086614173228347746 ) ) ;
#428 = AXIS2_PLACEMENT_3D ( 'NONE', #5, #155, #567 ) ;
#429 = APPLICATION_PROTOCOL_DEFINITION ( 'draft international standard', 'automotive_design', 1998, #542 ) ;
#430 = DIRECTION ( 'NONE',  ( 0.4999999999998059885, 0.000000000000000000, -0.8660254037845507291 ) ) ;
#431 = ORIENTED_EDGE ( 'NONE', *, *, #730, .T. ) ;
#432 = CYLINDRICAL_SURFACE ( 'NONE', #118, 0.2224409448818897850 ) ;
#433 = CARTESIAN_POINT ( 'NONE',  ( -0.1667971652492885870, 0.3346456692913385988, -0.1471688813056286904 ) ) ;
#434 = CARTESIAN_POINT ( 'NONE',  ( 0.2108505724818504068, 0.3346456692913385988, 0.07086614173228347746 ) ) ;
#435 = EDGE_CURVE ( 'NONE', #517, #408, #210, .T. ) ;
#436 = DIMENSIONAL_EXPONENTS ( 1.000000000000000000, 0.000000000000000000, 0.000000000000000000, 0.000000000000000000, 0.000000000000000000, 0.000000000000000000, 0.000000000000000000 ) ;
#437 = ORIENTED_EDGE ( 'NONE', *, *, #545, .F. ) ;
#438 = CYLINDRICAL_SURFACE ( 'NONE', #872, 0.04921259842519685318 ) ;
#439 = ORIENTED_EDGE ( 'NONE', *, *, #513, .T. ) ;
#440 = CARTESIAN_POINT ( 'NONE',  ( 0.2215682133902362183, 0.3543307086614173596, 0.01968503937011417335 ) ) ;
#441 = EDGE_CURVE ( 'NONE', #892, #515, #742, .T. ) ;
#442 = ORIENTED_EDGE ( 'NONE', *, *, #290, .T. ) ;
#443 = PLANE ( 'NONE',  #901 ) ;
#444 = CIRCLE ( 'NONE', #701, 0.01181102362204724393 ) ;
#445 = ORIENTED_EDGE ( 'NONE', *, *, #513, .F. ) ;
#446 = CARTESIAN_POINT ( 'NONE',  ( 0.09842519685039370636, 0.3346456692913385988, 0.01181102362204724393 ) ) ;
#447 = PLANE ( 'NONE',  #148 ) ;
#448 = ADVANCED_FACE ( 'NONE', ( #296 ), #708, .T. ) ;
#449 = DIRECTION ( 'NONE',  ( 0.000000000000000000, 0.000000000000000000, 1.000000000000000000 ) ) ;
#450 = VERTEX_POINT ( 'NONE', #142 ) ;
#451 = DIRECTION ( 'NONE',  ( -0.5000000000000166533, 0.000000000000000000, -0.8660254037844289376 ) ) ;
#452 = ADVANCED_FACE ( 'NONE', ( #157, #74, #373 ), #575, .T. ) ;
#453 = VERTEX_POINT ( 'NONE', #564 ) ;
#454 = DIRECTION ( 'NONE',  ( 0.000000000000000000, 1.000000000000000000, 0.000000000000000000 ) ) ;
#455 = VERTEX_POINT ( 'NONE', #82 ) ;
#456 = LINE ( 'NONE', #390, #253 ) ;
#457 = AXIS2_PLACEMENT_3D ( 'NONE', #220, #233, #643 ) ;
#458 = CARTESIAN_POINT ( 'NONE',  ( -0.09842519685039370636, 0.4803149606299212393, -0.01181102362204724393 ) ) ;
#459 = AXIS2_PLACEMENT_3D ( 'NONE', #698, #68, #759 ) ;
#460 = DIRECTION ( 'NONE',  ( 0.000000000000000000, 1.000000000000000000, 0.000000000000000000 ) ) ;
#461 = LINE ( 'NONE', #226, #550 ) ;
#462 = DIRECTION ( 'NONE',  ( 0.000000000000000000, 1.000000000000000000, 0.000000000000000000 ) ) ;
#463 = EDGE_LOOP ( 'NONE', ( #831, #244, #599, #898, #240, #57, #313, #442, #60, #382, #419, #160 ) ) ;
#464 = CARTESIAN_POINT ( 'NONE',  ( 0.000000000000000000, 0.3346456692913385988, 0.000000000000000000 ) ) ;
#465 = AXIS2_PLACEMENT_3D ( 'NONE', #164, #307, #291 ) ;
#466 = CARTESIAN_POINT ( 'NONE',  ( 0.09842519685039370636, 0.3346456692913385988, 0.000000000000000000 ) ) ;
#467 = EDGE_LOOP ( 'NONE', ( #294, #431 ) ) ;
#468 = DIRECTION ( 'NONE',  ( 0.8660254037844290487, 0.000000000000000000, 0.5000000000000167644 ) ) ;
#469 = EDGE_CURVE ( 'NONE', #691, #841, #879, .T. ) ;
#470 = ORIENTED_EDGE ( 'NONE', *, *, #711, .F. ) ;
#471 = AXIS2_PLACEMENT_3D ( 'NONE', #648, #568, #857 ) ;
#472 = FACE_OUTER_BOUND ( 'NONE', #463, .T. ) ;
#473 = AXIS2_PLACEMENT_3D ( 'NONE', #129, #407, #616 ) ;
#474 = CARTESIAN_POINT ( 'NONE',  ( 0.000000000000000000, 0.3149606299212598381, 0.000000000000000000 ) ) ;
#475 = PRODUCT_DEFINITION ( 'UNKNOWN', '', #523, #351 ) ;
#476 = CARTESIAN_POINT ( 'NONE',  ( -0.1740418634276771903, 0.3346456692913385988, 0.1597170666361023561 ) ) ;
#477 = ADVANCED_FACE ( 'NONE', ( #285 ), #302, .T. ) ;
#478 = CARTESIAN_POINT ( 'NONE',  ( 0.2353988335256299302, 0.3543307086614173596, -0.01968503937011811117 ) ) ;
#479 =( NAMED_UNIT ( * ) PLANE_ANGLE_UNIT ( ) SI_UNIT ( $, .RADIAN. ) );
#480 = ADVANCED_FACE ( 'NONE', ( #18 ), #504, .T. ) ;
#481 = ORIENTED_EDGE ( 'NONE', *, *, #520, .T. ) ;
#482 = CARTESIAN_POINT ( 'NONE',  ( 0.000000000000000000, 0.000000000000000000, 0.000000000000000000 ) ) ;
#483 = VERTEX_POINT ( 'NONE', #849 ) ;
#484 = DIRECTION ( 'NONE',  ( -1.000000000000000000, 0.000000000000000000, 0.000000000000000000 ) ) ;
#485 = EDGE_LOOP ( 'NONE', ( #716, #215 ) ) ;
#486 = SHAPE_DEFINITION_REPRESENTATION ( #572, #877 ) ;
#487 = AXIS2_PLACEMENT_3D ( 'NONE', #87, #728, #94 ) ;
#488 = DIRECTION ( 'NONE',  ( 0.000000000000000000, 0.000000000000000000, 1.000000000000000000 ) ) ;
#489 = AXIS2_PLACEMENT_3D ( 'NONE', #581, #11, #652 ) ;
#490 = VERTEX_POINT ( 'NONE', #864 ) ;
#491 = CARTESIAN_POINT ( 'NONE',  ( 0.2253399688386497346, 0.000000000000000000, 0.07086614173227979985 ) ) ;
#492 = VERTEX_POINT ( 'NONE', #146 ) ;
#493 = ADVANCED_FACE ( 'NONE', ( #714 ), #151, .F. ) ;
#494 = EDGE_LOOP ( 'NONE', ( #418, #810, #65, #166 ) ) ;
#495 = ORIENTED_EDGE ( 'NONE', *, *, #802, .T. ) ;
#496 =( NAMED_UNIT ( * ) SI_UNIT ( $, .STERADIAN. ) SOLID_ANGLE_UNIT ( ) );
#497 = DIRECTION ( 'NONE',  ( 0.000000000000000000, 1.000000000000000000, 0.000000000000000000 ) ) ;
#498 = ORIENTED_EDGE ( 'NONE', *, *, #758, .T. ) ;
#499 = DIRECTION ( 'NONE',  ( 0.000000000000000000, 1.000000000000000000, 0.000000000000000000 ) ) ;
#500 = EDGE_CURVE ( 'NONE', #686, #2, #721, .T. ) ;
#501 = VECTOR ( 'NONE', #15, 39.37007874015748143 ) ;
#502 = CARTESIAN_POINT ( 'NONE',  ( -0.04405340723259842939, 0.3346456692913385988, 0.2180350230379133891 ) ) ;
#503 = CIRCLE ( 'NONE', #323, 0.04921259842519685318 ) ;
#504 = PLANE ( 'NONE',  #281 ) ;
#505 = AXIS2_PLACEMENT_3D ( 'NONE', #525, #305, #807 ) ;
#506 = CARTESIAN_POINT ( 'NONE',  ( 0.2253399688386491517, 0.3543307086614173596, -0.07086614173228164559 ) ) ;
#507 = EDGE_CURVE ( 'NONE', #366, #490, #162, .T. ) ;
#508 = EDGE_CURVE ( 'NONE', #336, #301, #224, .T. ) ;
#509 = CARTESIAN_POINT ( 'NONE',  ( -0.04405340723259537627, 0.3346456692913385988, 0.2180350230379151655 ) ) ;
#510 = DIRECTION ( 'NONE',  ( 0.000000000000000000, -1.000000000000000000, 0.000000000000000000 ) ) ;
#511 = FACE_OUTER_BOUND ( 'NONE', #732, .T. ) ;
#512 = ORIENTED_EDGE ( 'NONE', *, *, #264, .T. ) ;
#513 = EDGE_CURVE ( 'NONE', #2, #490, #20, .T. ) ;
#514 = CARTESIAN_POINT ( 'NONE',  ( 0.000000000000000000, 0.3346456692913385988, 0.000000000000000000 ) ) ;
#515 = VERTEX_POINT ( 'NONE', #458 ) ;
#516 = DIRECTION ( 'NONE',  ( -0.000000000000000000, -1.000000000000000000, -0.000000000000000000 ) ) ;
#517 = VERTEX_POINT ( 'NONE', #743 ) ;
#518 = DIRECTION ( 'NONE',  ( 0.000000000000000000, 0.000000000000000000, 1.000000000000000000 ) ) ;
#519 = AXIS2_PLACEMENT_3D ( 'NONE', #139, #628, #488 ) ;
#520 = EDGE_CURVE ( 'NONE', #331, #152, #748, .T. ) ;
#521 = DIRECTION ( 'NONE',  ( 1.000000000000000000, 0.000000000000000000, 0.000000000000000000 ) ) ;
#522 = CIRCLE ( 'NONE', #505, 0.2362204724409449064 ) ;
#523 = PRODUCT_DEFINITION_FORMATION_WITH_SPECIFIED_SOURCE ( 'ANY', '', #669, .NOT_KNOWN. ) ;
#524 = VERTEX_POINT ( 'NONE', #101 ) ;
#525 = CARTESIAN_POINT ( 'NONE',  ( 0.000000000000000000, 0.3346456692913385988, 0.000000000000000000 ) ) ;
#526 = LINE ( 'NONE', #315, #239 ) ;
#527 = EDGE_CURVE ( 'NONE', #841, #691, #609, .T. ) ;
#528 = ORIENTED_EDGE ( 'NONE', *, *, #225, .T. ) ;
#529 = DIRECTION ( 'NONE',  ( -0.000000000000000000, -1.000000000000000000, -0.000000000000000000 ) ) ;
#530 = VERTEX_POINT ( 'NONE', #377 ) ;
#531 = CARTESIAN_POINT ( 'NONE',  ( 0.000000000000000000, 0.3149606299212598381, 0.000000000000000000 ) ) ;
#532 = LINE ( 'NONE', #657, #861 ) ;
#533 = VECTOR ( 'NONE', #559, 39.37007874015748143 ) ;
#534 = CIRCLE ( 'NONE', #473, 0.2362204724409449064 ) ;
#535 = DIRECTION ( 'NONE',  ( 0.000000000000000000, 1.000000000000000000, 0.000000000000000000 ) ) ;
#536 = DIRECTION ( 'NONE',  ( 0.000000000000000000, 1.000000000000000000, 0.000000000000000000 ) ) ;
#537 = CYLINDRICAL_SURFACE ( 'NONE', #731, 0.2362204724409449064 ) ;
#538 = EDGE_CURVE ( 'NONE', #193, #630, #312, .T. ) ;
#539 = CARTESIAN_POINT ( 'NONE',  ( 0.09842519685039370636, 0.4803149606299212393, 0.01181102362204724393 ) ) ;
#540 = ORIENTED_EDGE ( 'NONE', *, *, #660, .T. ) ;
#541 = DIRECTION ( 'NONE',  ( 0.4999999999998059885, 0.000000000000000000, 0.8660254037845507291 ) ) ;
#542 = APPLICATION_CONTEXT ( 'automotive_design' ) ;
#543 = ORIENTED_EDGE ( 'NONE', *, *, #264, .F. ) ;
#544 = DIRECTION ( 'NONE',  ( 0.5000000000000166533, 0.000000000000000000, -0.8660254037844289376 ) ) ;
#545 = EDGE_CURVE ( 'NONE', #530, #366, #105, .T. ) ;
#546 = VERTEX_POINT ( 'NONE', #446 ) ;
#547 = VECTOR ( 'NONE', #116, 39.37007874015748143 ) ;
#548 = ORIENTED_EDGE ( 'NONE', *, *, #835, .F. ) ;
#549 = CYLINDRICAL_SURFACE ( 'NONE', #257, 0.2362204724409449064 ) ;
#550 = VECTOR ( 'NONE', #860, 39.37007874015748854 ) ;
#551 = ORIENTED_EDGE ( 'NONE', *, *, #237, .F. ) ;
#552 = EDGE_CURVE ( 'NONE', #825, #128, #801, .T. ) ;
#553 = CARTESIAN_POINT ( 'NONE',  ( 0.2215682133902442674, 0.3346456692913385988, -0.01968503937011846852 ) ) ;
#554 = CARTESIAN_POINT ( 'NONE',  ( 2.892866454678787531E-17, 0.000000000000000000, -0.2362204724409449064 ) ) ;
#555 = ORIENTED_EDGE ( 'NONE', *, *, #169, .T. ) ;
#556 = FACE_OUTER_BOUND ( 'NONE', #791, .T. ) ;
#557 = ORIENTED_EDGE ( 'NONE', *, *, #773, .T. ) ;
#558 = LINE ( 'NONE', #198, #192 ) ;
#559 = DIRECTION ( 'NONE',  ( 0.000000000000000000, 1.000000000000000000, 0.000000000000000000 ) ) ;
#560 = ORIENTED_EDGE ( 'NONE', *, *, #144, .T. ) ;
#561 = VECTOR ( 'NONE', #820, 39.37007874015748143 ) ;
#562 = EDGE_CURVE ( 'NONE', #530, #9, #800, .T. ) ;
#563 = ORIENTED_EDGE ( 'NONE', *, *, #103, .T. ) ;
#564 = CARTESIAN_POINT ( 'NONE',  ( 0.000000000000000000, 0.000000000000000000, 0.04921259842519685318 ) ) ;
#565 = ORIENTED_EDGE ( 'NONE', *, *, #248, .F. ) ;
#566 = ORIENTED_EDGE ( 'NONE', *, *, #435, .F. ) ;
#567 = DIRECTION ( 'NONE',  ( -1.000000000000000000, 0.000000000000000000, 0.000000000000000000 ) ) ;
#568 = DIRECTION ( 'NONE',  ( 0.000000000000000000, 1.000000000000000000, 0.000000000000000000 ) ) ;
#569 = EDGE_LOOP ( 'NONE', ( #812, #33, #906, #54 ) ) ;
#570 = PLANE ( 'NONE',  #890 ) ;
#571 = PRODUCT_CONTEXT ( 'NONE', #542, 'mechanical' ) ;
#572 = PRODUCT_DEFINITION_SHAPE ( 'NONE', 'NONE',  #475 ) ;
#573 = ORIENTED_EDGE ( 'NONE', *, *, #882, .T. ) ;
#574 = CARTESIAN_POINT ( 'NONE',  ( -0.09842519685039370636, 0.4803149606299212393, 0.01181102362204724393 ) ) ;
#575 = PLANE ( 'NONE',  #206 ) ;
#576 = ORIENTED_EDGE ( 'NONE', *, *, #619, .T. ) ;
#577 = CIRCLE ( 'NONE', #365, 0.01181102362204724393 ) ;
#578 = DIRECTION ( 'NONE',  ( -0.000000000000000000, -1.000000000000000000, -0.000000000000000000 ) ) ;
#579 = ADVANCED_FACE ( 'NONE', ( #44 ), #320, .F. ) ;
#580 = AXIS2_PLACEMENT_3D ( 'NONE', #19, #578, #778 ) ;
#581 = CARTESIAN_POINT ( 'NONE',  ( 0.000000000000000000, 0.000000000000000000, 0.000000000000000000 ) ) ;
#582 = DIRECTION ( 'NONE',  ( -0.000000000000000000, -1.000000000000000000, -0.000000000000000000 ) ) ;
#583 = CARTESIAN_POINT ( 'NONE',  ( -0.1740418634276822973, 0.3346456692913385988, 0.1597170666361087121 ) ) ;
#584 = VECTOR ( 'NONE', #842, 39.37007874015748143 ) ;
#585 = ADVANCED_FACE ( 'NONE', ( #881 ), #241, .T. ) ;
#586 = AXIS2_PLACEMENT_3D ( 'NONE', #363, #421, #17 ) ;
#587 = ORIENTED_EDGE ( 'NONE', *, *, #403, .T. ) ;
#588 = CARTESIAN_POINT ( 'NONE',  ( 0.000000000000000000, 0.000000000000000000, 0.04921259842519685318 ) ) ;
#589 = DIRECTION ( 'NONE',  ( 0.000000000000000000, 0.000000000000000000, 1.000000000000000000 ) ) ;
#590 = CARTESIAN_POINT ( 'NONE',  ( 0.000000000000000000, 0.3346456692913385988, -0.01968503937011811117 ) ) ;
#591 = EDGE_LOOP ( 'NONE', ( #104, #632, #251, #99 ) ) ;
#592 = FACE_OUTER_BOUND ( 'NONE', #718, .T. ) ;
#593 = ORIENTED_EDGE ( 'NONE', *, *, #415, .F. ) ;
#594 = ORIENTED_EDGE ( 'NONE', *, *, #225, .F. ) ;
#595 = DIRECTION ( 'NONE',  ( -0.4999999999998087086, 0.000000000000000000, -0.8660254037845490638 ) ) ;
#596 = ADVANCED_FACE ( 'NONE', ( #592 ), #182, .T. ) ;
#597 = APPLICATION_CONTEXT ( 'automotive_design' ) ;
#598 = CIRCLE ( 'NONE', #110, 0.2224409448818897850 ) ;
#599 = ORIENTED_EDGE ( 'NONE', *, *, #538, .F. ) ;
#600 = CARTESIAN_POINT ( 'NONE',  ( 0.000000000000000000, 0.3543307086614173596, 0.000000000000000000 ) ) ;
#601 = DIRECTION ( 'NONE',  ( 0.000000000000000000, 0.000000000000000000, 1.000000000000000000 ) ) ;
#602 = DIRECTION ( 'NONE',  ( 0.000000000000000000, 0.000000000000000000, 1.000000000000000000 ) ) ;
#603 = ORIENTED_EDGE ( 'NONE', *, *, #888, .F. ) ;
#604 = EDGE_CURVE ( 'NONE', #170, #304, #845, .T. ) ;
#605 = DIRECTION ( 'NONE',  ( 0.000000000000000000, 0.000000000000000000, 1.000000000000000000 ) ) ;
#606 = CIRCLE ( 'NONE', #46, 0.04921259842519685318 ) ;
#607 = DIRECTION ( 'NONE',  ( -0.000000000000000000, -1.000000000000000000, -0.000000000000000000 ) ) ;
#608 = CIRCLE ( 'NONE', #623, 0.2224409448818897850 ) ;
#609 = CIRCLE ( 'NONE', #165, 0.2362204724409449064 ) ;
#610 = EDGE_CURVE ( 'NONE', #806, #450, #532, .T. ) ;
#611 = VECTOR ( 'NONE', #78, 39.37007874015748143 ) ;
#612 = DIRECTION ( 'NONE',  ( 0.000000000000000000, 0.000000000000000000, 1.000000000000000000 ) ) ;
#613 = CARTESIAN_POINT ( 'NONE',  ( 0.000000000000000000, 0.3346456692913385988, -0.07086614173228347746 ) ) ;
#614 = VERTEX_POINT ( 'NONE', #28 ) ;
#615 = ORIENTED_EDGE ( 'NONE', *, *, #38, .T. ) ;
#616 = DIRECTION ( 'NONE',  ( 0.000000000000000000, 0.000000000000000000, 1.000000000000000000 ) ) ;
#617 = EDGE_LOOP ( 'NONE', ( #563, #560, #85, #89, #576, #174, #834, #839, #286, #875, #615, #66, #723, #420, #573, #439, #871, #212 ) ) ;
#618 = LINE ( 'NONE', #47, #624 ) ;
#619 = EDGE_CURVE ( 'NONE', #630, #67, #522, .T. ) ;
#620 = DIRECTION ( 'NONE',  ( 0.000000000000000000, 1.000000000000000000, 0.000000000000000000 ) ) ;
#621 = ORIENTED_EDGE ( 'NONE', *, *, #380, .F. ) ;
#622 = CIRCLE ( 'NONE', #62, 0.01181102362204724393 ) ;
#623 = AXIS2_PLACEMENT_3D ( 'NONE', #914, #135, #187 ) ;
#624 = VECTOR ( 'NONE', #205, 39.37007874015748143 ) ;
#625 = ORIENTED_EDGE ( 'NONE', *, *, #469, .T. ) ;
#626 = EDGE_LOOP ( 'NONE', ( #358, #658, #339, #621 ) ) ;
#627 = CARTESIAN_POINT ( 'NONE',  ( 2.892866454678787531E-17, 0.000000000000000000, -0.2362204724409449064 ) ) ;
#628 = DIRECTION ( 'NONE',  ( 0.000000000000000000, 1.000000000000000000, 0.000000000000000000 ) ) ;
#629 = ORIENTED_EDGE ( 'NONE', *, *, #665, .T. ) ;
#630 = VERTEX_POINT ( 'NONE', #314 ) ;
#631 = CARTESIAN_POINT ( 'NONE',  ( 0.2215682133902404372, 0.3543307086614173596, 0.01968503937011417335 ) ) ;
#632 = ORIENTED_EDGE ( 'NONE', *, *, #371, .F. ) ;
#633 = DIRECTION ( 'NONE',  ( -0.000000000000000000, -1.000000000000000000, -0.000000000000000000 ) ) ;
#634 =( CONVERSION_BASED_UNIT ( 'INCH', #16 ) LENGTH_UNIT ( ) NAMED_UNIT ( #712 ) );
#635 = CIRCLE ( 'NONE', #799, 0.04921259842519685318 ) ;
#636 = EDGE_CURVE ( 'NONE', #789, #735, #598, .T. ) ;
#637 = AXIS2_PLACEMENT_3D ( 'NONE', #874, #529, #602 ) ;
#638 = LINE ( 'NONE', #491, #388 ) ;
#639 = CARTESIAN_POINT ( 'NONE',  ( -0.09842519685039370636, 0.3346456692913385988, 0.000000000000000000 ) ) ;
#640 = DIRECTION ( 'NONE',  ( 0.000000000000000000, 0.000000000000000000, 1.000000000000000000 ) ) ;
#641 = ORIENTED_EDGE ( 'NONE', *, *, #380, .T. ) ;
#642 = DIRECTION ( 'NONE',  ( -0.000000000000000000, -1.000000000000000000, -0.000000000000000000 ) ) ;
#643 = DIRECTION ( 'NONE',  ( 0.000000000000000000, 0.000000000000000000, 1.000000000000000000 ) ) ;
#644 = EDGE_CURVE ( 'NONE', #808, #163, #120, .T. ) ;
#645 = CARTESIAN_POINT ( 'NONE',  ( 0.09842519685039370636, 0.4803149606299212393, 0.000000000000000000 ) ) ;
#646 = ORIENTED_EDGE ( 'NONE', *, *, #334, .T. ) ;
#647 = PLANE ( 'NONE',  #428 ) ;
#648 = CARTESIAN_POINT ( 'NONE',  ( 0.000000000000000000, 0.4803149606299212393, 0.000000000000000000 ) ) ;
#649 = ADVANCED_FACE ( 'NONE', ( #811 ), #250, .T. ) ;
#650 = CARTESIAN_POINT ( 'NONE',  ( -0.05129810541099072418, 0.3346456692913385988, -0.2305832083684024036 ) ) ;
#651 = AXIS2_PLACEMENT_3D ( 'NONE', #230, #640, #10 ) ;
#652 = DIRECTION ( 'NONE',  ( 1.000000000000000000, 0.000000000000000000, 0.000000000000000000 ) ) ;
#653 = ORIENTED_EDGE ( 'NONE', *, *, #545, .T. ) ;
#654 = CIRCLE ( 'NONE', #803, 0.2224409448818897850 ) ;
#655 = FACE_OUTER_BOUND ( 'NONE', #188, .T. ) ;
#656 = VERTEX_POINT ( 'NONE', #167 ) ;
#657 = CARTESIAN_POINT ( 'NONE',  ( -0.1667971652492913348, 0.3346456692913385988, -0.1471688813056299394 ) ) ;
#658 = ORIENTED_EDGE ( 'NONE', *, *, #144, .F. ) ;
#659 = DIRECTION ( 'NONE',  ( 0.000000000000000000, 0.000000000000000000, 1.000000000000000000 ) ) ;
#660 = EDGE_CURVE ( 'NONE', #656, #408, #354, .T. ) ;
#661 = EDGE_LOOP ( 'NONE', ( #629, #745, #140, #108 ) ) ;
#662 = DIRECTION ( 'NONE',  ( -1.000000000000000000, 0.000000000000000000, 0.000000000000000000 ) ) ;
#663 = DIRECTION ( 'NONE',  ( 0.000000000000000000, 1.000000000000000000, 0.000000000000000000 ) ) ;
#664 = ORIENTED_EDGE ( 'NONE', *, *, #415, .T. ) ;
#665 = EDGE_CURVE ( 'NONE', #408, #792, #558, .T. ) ;
#666 = CARTESIAN_POINT ( 'NONE',  ( -0.05129810541098817761, 0.000000000000000000, 0.2305832083684029865 ) ) ;
#667 = STYLED_ITEM ( 'NONE', ( #893 ), #329 ) ;
#668 = CARTESIAN_POINT ( 'NONE',  ( 0.000000000000000000, 0.3543307086614173596, 0.000000000000000000 ) ) ;
#669 = PRODUCT ( 'CUI_DEVICES_CMT-1209-590T', 'CUI_DEVICES_CMT-1209-590T', '', ( #571 ) ) ;
#670 = ORIENTED_EDGE ( 'NONE', *, *, #720, .F. ) ;
#671 = ORIENTED_EDGE ( 'NONE', *, *, #644, .T. ) ;
#672 = CARTESIAN_POINT ( 'NONE',  ( 0.09842519685039370636, 0.3346456692913385988, 0.000000000000000000 ) ) ;
#673 = EDGE_CURVE ( 'NONE', #517, #172, #337, .T. ) ;
#674 = FACE_OUTER_BOUND ( 'NONE', #824, .T. ) ;
#675 = ORIENTED_EDGE ( 'NONE', *, *, #527, .F. ) ;
#676 = CARTESIAN_POINT ( 'NONE',  ( 0.000000000000000000, 0.3543307086614173596, 0.01968503937011417335 ) ) ;
#677 = SURFACE_SIDE_STYLE ('',( #311 ) ) ;
#678 = EDGE_CURVE ( 'NONE', #691, #630, #325, .T. ) ;
#679 = CARTESIAN_POINT ( 'NONE',  ( -0.1740418634276832133, 0.000000000000000000, 0.1597170666361077129 ) ) ;
#680 = CARTESIAN_POINT ( 'NONE',  ( 0.2353988335256151365, 0.3346456692913385988, 0.01968503937011355578 ) ) ;
#681 =( GEOMETRIC_REPRESENTATION_CONTEXT ( 3 ) GLOBAL_UNCERTAINTY_ASSIGNED_CONTEXT ( ( #270 ) ) GLOBAL_UNIT_ASSIGNED_CONTEXT ( ( #760, #479, #904 ) ) REPRESENTATION_CONTEXT ( 'NONE', 'WORKASPACE' ) );
#682 = EDGE_CURVE ( 'NONE', #867, #492, #341, .T. ) ;
#683 = VECTOR ( 'NONE', #201, 39.37007874015748143 ) ;
#684 = CARTESIAN_POINT ( 'NONE',  ( 0.000000000000000000, 0.3346456692913385988, 0.000000000000000000 ) ) ;
#685 = CARTESIAN_POINT ( 'NONE',  ( -0.09842519685039370636, 0.3346456692913385988, 0.000000000000000000 ) ) ;
#686 = VERTEX_POINT ( 'NONE', #908 ) ;
#687 = CARTESIAN_POINT ( 'NONE',  ( 0.2108505724818549032, 0.3346456692913385988, 0.07086614173228347746 ) ) ;
#688 = DIRECTION ( 'NONE',  ( 0.000000000000000000, 0.000000000000000000, 1.000000000000000000 ) ) ;
#689 = ORIENTED_EDGE ( 'NONE', *, *, #665, .F. ) ;
#690 = FACE_OUTER_BOUND ( 'NONE', #661, .T. ) ;
#691 = VERTEX_POINT ( 'NONE', #627 ) ;
#692 = AXIS2_PLACEMENT_3D ( 'NONE', #303, #516, #364 ) ;
#693 = CARTESIAN_POINT ( 'NONE',  ( 0.000000000000000000, 0.000000000000000000, 0.000000000000000000 ) ) ;
#694 = FACE_OUTER_BOUND ( 'NONE', #259, .T. ) ;
#695 = EDGE_LOOP ( 'NONE', ( #765, #670, #30, #282 ) ) ;
#696 = AXIS2_PLACEMENT_3D ( 'NONE', #464, #460, #243 ) ;
#697 = VECTOR ( 'NONE', #280, 39.37007874015748143 ) ;
#698 = CARTESIAN_POINT ( 'NONE',  ( 0.000000000000000000, 0.000000000000000000, 0.000000000000000000 ) ) ;
#699 = AXIS2_PLACEMENT_3D ( 'NONE', #359, #642, #13 ) ;
#700 = ORIENTED_EDGE ( 'NONE', *, *, #103, .F. ) ;
#701 = AXIS2_PLACEMENT_3D ( 'NONE', #466, #124, #688 ) ;
#702 = CYLINDRICAL_SURFACE ( 'NONE', #828, 0.01181102362204724393 ) ;
#703 = VERTEX_POINT ( 'NONE', #191 ) ;
#704 = FACE_OUTER_BOUND ( 'NONE', #878, .T. ) ;
#705 = CARTESIAN_POINT ( 'NONE',  ( 0.2253399688386491517, 0.3543307086614173596, 0.07086614173228163172 ) ) ;
#706 = ADVANCED_FACE ( 'NONE', ( #119 ), #404, .F. ) ;
#707 = CARTESIAN_POINT ( 'NONE',  ( 0.000000000000000000, 0.000000000000000000, 0.2362204724409449064 ) ) ;
#708 = CYLINDRICAL_SURFACE ( 'NONE', #368, 0.01181102362204724393 ) ;
#709 = ORIENTED_EDGE ( 'NONE', *, *, #895, .F. ) ;
#710 = PLANE ( 'NONE',  #465 ) ;
#711 = EDGE_CURVE ( 'NONE', #490, #301, #618, .T. ) ;
#712 = DIMENSIONAL_EXPONENTS ( 1.000000000000000000, 0.000000000000000000, 0.000000000000000000, 0.000000000000000000, 0.000000000000000000, 0.000000000000000000, 0.000000000000000000 ) ;
#713 = CARTESIAN_POINT ( 'NONE',  ( 0.000000000000000000, 0.3346456692913385988, 0.07086614173228347746 ) ) ;
#714 = FACE_OUTER_BOUND ( 'NONE', #411, .T. ) ;
#715 = AXIS2_PLACEMENT_3D ( 'NONE', #684, #896, #762 ) ;
#716 = ORIENTED_EDGE ( 'NONE', *, *, #31, .F. ) ;
#717 = CARTESIAN_POINT ( 'NONE',  ( 0.000000000000000000, 0.3346456692913385988, 0.000000000000000000 ) ) ;
#718 = EDGE_LOOP ( 'NONE', ( #189, #794, #738, #543 ) ) ;
#719 = DIRECTION ( 'NONE',  ( 0.000000000000000000, 0.000000000000000000, 1.000000000000000000 ) ) ;
#720 = EDGE_CURVE ( 'NONE', #67, #4, #263, .T. ) ;
#721 = LINE ( 'NONE', #434, #697 ) ;
#722 = DIRECTION ( 'NONE',  ( 0.000000000000000000, 0.000000000000000000, 1.000000000000000000 ) ) ;
#723 = ORIENTED_EDGE ( 'NONE', *, *, #758, .F. ) ;
#724 = LINE ( 'NONE', #509, #7 ) ;
#725 = DIRECTION ( 'NONE',  ( 0.000000000000000000, 0.000000000000000000, 1.000000000000000000 ) ) ;
#726 = ORIENTED_EDGE ( 'NONE', *, *, #507, .T. ) ;
#727 = FACE_OUTER_BOUND ( 'NONE', #626, .T. ) ;
#728 = DIRECTION ( 'NONE',  ( -0.000000000000000000, -1.000000000000000000, -0.000000000000000000 ) ) ;
#729 = CARTESIAN_POINT ( 'NONE',  ( -0.09842519685039370636, 0.3346456692913385988, -0.01181102362204724393 ) ) ;
#730 = EDGE_CURVE ( 'NONE', #825, #546, #444, .T. ) ;
#731 = AXIS2_PLACEMENT_3D ( 'NONE', #693, #61, #271 ) ;
#732 = EDGE_LOOP ( 'NONE', ( #195, #346, #785, #851 ) ) ;
#733 = DIRECTION ( 'NONE',  ( 0.000000000000000000, 0.000000000000000000, 1.000000000000000000 ) ) ;
#734 = DIRECTION ( 'NONE',  ( 0.8660254037844290487, 0.000000000000000000, -0.5000000000000167644 ) ) ;
#735 = VERTEX_POINT ( 'NONE', #328 ) ;
#736 = DIRECTION ( 'NONE',  ( 0.000000000000000000, 1.000000000000000000, 0.000000000000000000 ) ) ;
#737 = VECTOR ( 'NONE', #782, 39.37007874015748143 ) ;
#738 = ORIENTED_EDGE ( 'NONE', *, *, #149, .T. ) ;
#739 = LINE ( 'NONE', #818, #547 ) ;
#740 = ORIENTED_EDGE ( 'NONE', *, *, #850, .F. ) ;
#741 = ADVANCED_FACE ( 'NONE', ( #267 ), #549, .T. ) ;
#742 = CIRCLE ( 'NONE', #412, 0.01181102362204724393 ) ;
#743 = CARTESIAN_POINT ( 'NONE',  ( -0.1740418634276835463, 0.3543307086614173596, 0.1597170666361073521 ) ) ;
#744 = AXIS2_PLACEMENT_3D ( 'NONE', #672, #462, #449 ) ;
#745 = ORIENTED_EDGE ( 'NONE', *, *, #53, .F. ) ;
#746 = CARTESIAN_POINT ( 'NONE',  ( 0.09842519685039370636, 0.3346456692913385988, 0.01181102362204724393 ) ) ;
#747 = AXIS2_PLACEMENT_3D ( 'NONE', #751, #454, #518 ) ;
#748 = LINE ( 'NONE', #666, #92 ) ;
#749 = EDGE_CURVE ( 'NONE', #775, #304, #260, .T. ) ;
#750 = CARTESIAN_POINT ( 'NONE',  ( 0.2215682133902442119, 0.3346456692913385988, -0.01968503937011882587 ) ) ;
#751 = CARTESIAN_POINT ( 'NONE',  ( 0.000000000000000000, 0.3346456692913385988, 0.000000000000000000 ) ) ;
#752 = FACE_OUTER_BOUND ( 'NONE', #255, .T. ) ;
#753 = UNCERTAINTY_MEASURE_WITH_UNIT (LENGTH_MEASURE( 1.000000000000000082E-05 ), #634, 'distance_accuracy_value', 'NONE');
#754 = FACE_OUTER_BOUND ( 'NONE', #385, .T. ) ;
#755 = VECTOR ( 'NONE', #536, 39.37007874015748143 ) ;
#756 = AXIS2_PLACEMENT_3D ( 'NONE', #816, #179, #236 ) ;
#757 = ORIENTED_EDGE ( 'NONE', *, *, #888, .T. ) ;
#758 = EDGE_CURVE ( 'NONE', #483, #331, #242, .T. ) ;
#759 = DIRECTION ( 'NONE',  ( 0.000000000000000000, 0.000000000000000000, 1.000000000000000000 ) ) ;
#760 =( CONVERSION_BASED_UNIT ( 'INCH', #131 ) LENGTH_UNIT ( ) NAMED_UNIT ( #436 ) );
#761 = DIRECTION ( 'NONE',  ( 0.4999999999998087086, 0.000000000000000000, -0.8660254037845490638 ) ) ;
#762 = DIRECTION ( 'NONE',  ( 8.881784197001252323E-16, 0.000000000000000000, 1.000000000000000000 ) ) ;
#763 = PLANE ( 'NONE',  #297 ) ;
#764 = ORIENTED_EDGE ( 'NONE', *, *, #309, .T. ) ;
#765 = ORIENTED_EDGE ( 'NONE', *, *, #83, .T. ) ;
#766 = CARTESIAN_POINT ( 'NONE',  ( 0.000000000000000000, 0.3346456692913385988, 0.000000000000000000 ) ) ;
#767 = CARTESIAN_POINT ( 'NONE',  ( -0.1667971652492883095, 0.3346456692913385988, -0.1471688813056316603 ) ) ;
#768 = ORIENTED_EDGE ( 'NONE', *, *, #127, .T. ) ;
#769 = AXIS2_PLACEMENT_3D ( 'NONE', #422, #22, #14 ) ;
#770 = ORIENTED_EDGE ( 'NONE', *, *, #905, .F. ) ;
#771 = CARTESIAN_POINT ( 'NONE',  ( 0.000000000000000000, 0.3543307086614173596, 0.000000000000000000 ) ) ;
#772 = VECTOR ( 'NONE', #787, 39.37007874015748143 ) ;
#773 = EDGE_CURVE ( 'NONE', #200, #614, #534, .T. ) ;
#774 = DIRECTION ( 'NONE',  ( 0.000000000000000000, 0.000000000000000000, -1.000000000000000000 ) ) ;
#775 = VERTEX_POINT ( 'NONE', #826 ) ;
#776 = ORIENTED_EDGE ( 'NONE', *, *, #319, .F. ) ;
#777 = CARTESIAN_POINT ( 'NONE',  ( -0.1667971652492913348, 0.3543307086614173596, 0.1471688813056299394 ) ) ;
#778 = DIRECTION ( 'NONE',  ( 4.440892098500626951E-15, 0.000000000000000000, 1.000000000000000000 ) ) ;
#779 = ADVANCED_FACE ( 'NONE', ( #472 ), #537, .T. ) ;
#780 = LINE ( 'NONE', #588, #848 ) ;
#781 = CARTESIAN_POINT ( 'NONE',  ( -0.09842519685039370636, 0.4803149606299212393, 0.000000000000000000 ) ) ;
#782 = DIRECTION ( 'NONE',  ( -1.000000000000000000, -0.000000000000000000, -0.000000000000000000 ) ) ;
#783 = ADVANCED_FACE ( 'NONE', ( #754 ), #186, .F. ) ;
#784 = VECTOR ( 'NONE', #70, 39.37007874015748143 ) ;
#785 = ORIENTED_EDGE ( 'NONE', *, *, #185, .F. ) ;
#786 = VECTOR ( 'NONE', #662, 39.37007874015748143 ) ;
#787 = DIRECTION ( 'NONE',  ( -0.4999999999998059885, 0.000000000000000000, 0.8660254037845507291 ) ) ;
#788 = CARTESIAN_POINT ( 'NONE',  ( 0.000000000000000000, 0.3346456692913385988, 0.000000000000000000 ) ) ;
#789 = VERTEX_POINT ( 'NONE', #821 ) ;
#790 = CARTESIAN_POINT ( 'NONE',  ( 0.000000000000000000, 0.000000000000000000, 0.000000000000000000 ) ) ;
#791 = EDGE_LOOP ( 'NONE', ( #369, #664 ) ) ;
#792 = VERTEX_POINT ( 'NONE', #837 ) ;
#793 = CARTESIAN_POINT ( 'NONE',  ( -0.04405340723259985186, 0.3346456692913385988, -0.2180350230379207999 ) ) ;
#794 = ORIENTED_EDGE ( 'NONE', *, *, #552, .T. ) ;
#795 = DIRECTION ( 'NONE',  ( 0.000000000000000000, 0.000000000000000000, 1.000000000000000000 ) ) ;
#796 = VECTOR ( 'NONE', #499, 39.37007874015748143 ) ;
#797 = CARTESIAN_POINT ( 'NONE',  ( 0.09842519685039370636, 0.4803149606299212393, -0.01181102362204724393 ) ) ;
#798 = ORIENTED_EDGE ( 'NONE', *, *, #562, .F. ) ;
#799 = AXIS2_PLACEMENT_3D ( 'NONE', #474, #353, #725 ) ;
#800 = CIRCLE ( 'NONE', #829, 0.2362204724409449064 ) ;
#801 = LINE ( 'NONE', #37, #208 ) ;
#802 = EDGE_CURVE ( 'NONE', #172, #450, #357, .T. ) ;
#803 = AXIS2_PLACEMENT_3D ( 'NONE', #268, #402, #52 ) ;
#804 = EDGE_LOOP ( 'NONE', ( #915, #740, #512, #69 ) ) ;
#805 = FILL_AREA_STYLE_COLOUR ( '', #859 ) ;
#806 = VERTEX_POINT ( 'NONE', #433 ) ;
#807 = DIRECTION ( 'NONE',  ( 0.000000000000000000, 0.000000000000000000, 1.000000000000000000 ) ) ;
#808 = VERTEX_POINT ( 'NONE', #288 ) ;
#809 = CARTESIAN_POINT ( 'NONE',  ( 0.2253399688386497346, 0.000000000000000000, -0.07086614173227981373 ) ) ;
#810 = ORIENTED_EDGE ( 'NONE', *, *, #76, .T. ) ;
#811 = FACE_OUTER_BOUND ( 'NONE', #35, .T. ) ;
#812 = ORIENTED_EDGE ( 'NONE', *, *, #76, .F. ) ;
#813 = CYLINDRICAL_SURFACE ( 'NONE', #696, 0.2224409448818897850 ) ;
#814 = EDGE_CURVE ( 'NONE', #9, #846, #638, .T. ) ;
#815 = CIRCLE ( 'NONE', #769, 0.2224409448818897850 ) ;
#816 = CARTESIAN_POINT ( 'NONE',  ( -0.1740418634276771903, 0.3346456692913385988, -0.1597170666361023561 ) ) ;
#817 = AXIS2_PLACEMENT_3D ( 'NONE', #381, #171, #115 ) ;
#818 = CARTESIAN_POINT ( 'NONE',  ( 6.026805113914140175E-18, 0.000000000000000000, -0.04921259842519685318 ) ) ;
#819 = DIRECTION ( 'NONE',  ( -0.000000000000000000, -1.000000000000000000, -0.000000000000000000 ) ) ;
#820 = DIRECTION ( 'NONE',  ( 0.000000000000000000, 1.000000000000000000, 0.000000000000000000 ) ) ;
#821 = CARTESIAN_POINT ( 'NONE',  ( -0.1667971652492873935, 0.3543307086614173596, -0.1471688813056300504 ) ) ;
#822 = EDGE_CURVE ( 'NONE', #453, #455, #780, .T. ) ;
#823 = PLANE ( 'NONE',  #279 ) ;
#824 = EDGE_LOOP ( 'NONE', ( #130, #262, #196, #689 ) ) ;
#825 = VERTEX_POINT ( 'NONE', #145 ) ;
#826 = CARTESIAN_POINT ( 'NONE',  ( 0.2215682133902442674, 0.3543307086614173596, -0.01968503937011846852 ) ) ;
#827 = CARTESIAN_POINT ( 'NONE',  ( -0.1667971652492900858, 0.3543307086614173596, 0.1471688813056278300 ) ) ;
#828 = AXIS2_PLACEMENT_3D ( 'NONE', #272, #400, #838 ) ;
#829 = AXIS2_PLACEMENT_3D ( 'NONE', #391, #111, #891 ) ;
#830 = LINE ( 'NONE', #476, #398 ) ;
#831 = ORIENTED_EDGE ( 'NONE', *, *, #527, .T. ) ;
#832 = DIRECTION ( 'NONE',  ( 0.000000000000000000, 1.000000000000000000, 0.000000000000000000 ) ) ;
#833 = PLANE ( 'NONE',  #352 ) ;
#834 = ORIENTED_EDGE ( 'NONE', *, *, #424, .T. ) ;
#835 = EDGE_CURVE ( 'NONE', #152, #656, #367, .T. ) ;
#836 = EDGE_CURVE ( 'NONE', #703, #656, #724, .T. ) ;
#837 = CARTESIAN_POINT ( 'NONE',  ( -0.1667971652492900858, 0.3346456692913385988, 0.1471688813056278300 ) ) ;
#838 = DIRECTION ( 'NONE',  ( 0.000000000000000000, 0.000000000000000000, 1.000000000000000000 ) ) ;
#839 = ORIENTED_EDGE ( 'NONE', *, *, #610, .T. ) ;
#840 = ADVANCED_FACE ( 'NONE', ( #704 ), #86, .T. ) ;
#841 = VERTEX_POINT ( 'NONE', #707 ) ;
#842 = DIRECTION ( 'NONE',  ( 0.000000000000000000, 1.000000000000000000, 0.000000000000000000 ) ) ;
#843 = CARTESIAN_POINT ( 'NONE',  ( -0.05129810541098425714, 0.3346456692913385988, 0.2305832083683858336 ) ) ;
#844 = DIRECTION ( 'NONE',  ( 8.881784197001252323E-16, 0.000000000000000000, 1.000000000000000000 ) ) ;
#845 = CIRCLE ( 'NONE', #3, 0.2362204724409449064 ) ;
#846 = VERTEX_POINT ( 'NONE', #284 ) ;
#847 = FACE_OUTER_BOUND ( 'NONE', #350, .T. ) ;
#848 = VECTOR ( 'NONE', #141, 39.37007874015748143 ) ;
#849 = CARTESIAN_POINT ( 'NONE',  ( 0.000000000000000000, 0.3346456692913385988, 0.2362204724409449064 ) ) ;
#850 = EDGE_CURVE ( 'NONE', #546, #825, #23, .T. ) ;
#851 = ORIENTED_EDGE ( 'NONE', *, *, #822, .F. ) ;
#852 = CARTESIAN_POINT ( 'NONE',  ( 0.09842519685039370636, 0.4803149606299212393, 0.000000000000000000 ) ) ;
#853 = CARTESIAN_POINT ( 'NONE',  ( -0.1740418634276830745, 0.000000000000000000, -0.1597170666361078517 ) ) ;
#854 = DIRECTION ( 'NONE',  ( 0.000000000000000000, 0.000000000000000000, 1.000000000000000000 ) ) ;
#855 = DIRECTION ( 'NONE',  ( 0.000000000000000000, 0.000000000000000000, 1.000000000000000000 ) ) ;
#856 = LINE ( 'NONE', #502, #772 ) ;
#857 = DIRECTION ( 'NONE',  ( 0.000000000000000000, 0.000000000000000000, 1.000000000000000000 ) ) ;
#858 = LINE ( 'NONE', #222, #176 ) ;
#859 = COLOUR_RGB ( '',0.7921568627450980005, 0.8196078431372548767, 0.9333333333333333481 ) ;
#860 = DIRECTION ( 'NONE',  ( 0.5000000000000166533, 0.000000000000000000, 0.8660254037844289376 ) ) ;
#861 = VECTOR ( 'NONE', #595, 39.37007874015748143 ) ;
#862 = ORIENTED_EDGE ( 'NONE', *, *, #290, .F. ) ;
#863 = DIRECTION ( 'NONE',  ( 0.000000000000000000, 0.000000000000000000, 1.000000000000000000 ) ) ;
#864 = CARTESIAN_POINT ( 'NONE',  ( 0.2215682133902404372, 0.3346456692913385988, 0.01968503937011417335 ) ) ;
#865 = DIRECTION ( 'NONE',  ( -0.000000000000000000, -1.000000000000000000, -0.000000000000000000 ) ) ;
#866 = ADVANCED_FACE ( 'NONE', ( #847 ), #647, .T. ) ;
#867 = VERTEX_POINT ( 'NONE', #426 ) ;
#868 = DIRECTION ( 'NONE',  ( 0.000000000000000000, 1.000000000000000000, 0.000000000000000000 ) ) ;
#869 = ORIENTED_EDGE ( 'NONE', *, *, #882, .F. ) ;
#870 = DIRECTION ( 'NONE',  ( 1.000000000000000000, 0.000000000000000000, 0.000000000000000000 ) ) ;
#871 = ORIENTED_EDGE ( 'NONE', *, *, #711, .T. ) ;
#872 = AXIS2_PLACEMENT_3D ( 'NONE', #790, #153, #855 ) ;
#873 = EDGE_CURVE ( 'NONE', #450, #200, #150, .T. ) ;
#874 = CARTESIAN_POINT ( 'NONE',  ( -0.09842519685039370636, 0.3346456692913385988, 0.000000000000000000 ) ) ;
#875 = ORIENTED_EDGE ( 'NONE', *, *, #53, .T. ) ;
#876 = DIRECTION ( 'NONE',  ( 0.000000000000000000, 1.000000000000000000, 0.000000000000000000 ) ) ;
#877 = ADVANCED_BREP_SHAPE_REPRESENTATION ( 'CUI_DEVICES_CMT-1209-590T', ( #329, #489 ), #894 ) ;
#878 = EDGE_LOOP ( 'NONE', ( #641, #266, #425, #308 ) ) ;
#879 = CIRCLE ( 'NONE', #457, 0.2362204724409449064 ) ;
#880 = VECTOR ( 'NONE', #414, 39.37007874015748143 ) ;
#881 = FACE_OUTER_BOUND ( 'NONE', #494, .T. ) ;
#882 = EDGE_CURVE ( 'NONE', #846, #2, #213, .T. ) ;
#883 = VECTOR ( 'NONE', #55, 39.37007874015748143 ) ;
#884 = ORIENTED_EDGE ( 'NONE', *, *, #873, .F. ) ;
#885 = CARTESIAN_POINT ( 'NONE',  ( 0.000000000000000000, 0.000000000000000000, 0.000000000000000000 ) ) ;
#886 = DIRECTION ( 'NONE',  ( 0.000000000000000000, 1.000000000000000000, 0.000000000000000000 ) ) ;
#887 = CARTESIAN_POINT ( 'NONE',  ( 0.2253399688386491517, 0.3346456692913385988, -0.07086614173228164559 ) ) ;
#888 = EDGE_CURVE ( 'NONE', #152, #517, #181, .T. ) ;
#889 = CIRCLE ( 'NONE', #580, 0.2224409448818897850 ) ;
#890 = AXIS2_PLACEMENT_3D ( 'NONE', #247, #734, #451 ) ;
#891 = DIRECTION ( 'NONE',  ( -4.440892098500625373E-15, 0.000000000000000000, 1.000000000000000000 ) ) ;
#892 = VERTEX_POINT ( 'NONE', #574 ) ;
#893 = PRESENTATION_STYLE_ASSIGNMENT (( #45 ) ) ;
#894 =( GEOMETRIC_REPRESENTATION_CONTEXT ( 3 ) GLOBAL_UNCERTAINTY_ASSIGNED_CONTEXT ( ( #753 ) ) GLOBAL_UNIT_ASSIGNED_CONTEXT ( ( #634, #154, #496 ) ) REPRESENTATION_CONTEXT ( 'NONE', 'WORKASPACE' ) );
#895 = EDGE_CURVE ( 'NONE', #703, #331, #856, .T. ) ;
#896 = DIRECTION ( 'NONE',  ( -0.000000000000000000, -1.000000000000000000, -0.000000000000000000 ) ) ;
#897 = CARTESIAN_POINT ( 'NONE',  ( 0.2353988335256148312, 0.3543307086614173596, -0.01968503937011747279 ) ) ;
#898 = ORIENTED_EDGE ( 'NONE', *, *, #217, .T. ) ;
#899 = DIRECTION ( 'NONE',  ( -0.000000000000000000, -1.000000000000000000, -0.000000000000000000 ) ) ;
#900 = CARTESIAN_POINT ( 'NONE',  ( -0.05129810541099084215, 0.3346456692913385988, 0.2305832083684024036 ) ) ;
#901 = AXIS2_PLACEMENT_3D ( 'NONE', #75, #370, #722 ) ;
#902 = ORIENTED_EDGE ( 'NONE', *, *, #822, .T. ) ;
#903 = CARTESIAN_POINT ( 'NONE',  ( -0.05129810541098425714, 0.3346456692913385988, -0.2305832083683858336 ) ) ;
#904 =( NAMED_UNIT ( * ) SI_UNIT ( $, .STERADIAN. ) SOLID_ANGLE_UNIT ( ) );
#905 = EDGE_CURVE ( 'NONE', #515, #892, #399, .T. ) ;
#906 = ORIENTED_EDGE ( 'NONE', *, *, #56, .T. ) ;
#907 = AXIS2_PLACEMENT_3D ( 'NONE', #766, #913, #863 ) ;
#908 = CARTESIAN_POINT ( 'NONE',  ( 0.2108505724818549032, 0.3543307086614173596, 0.07086614173228347746 ) ) ;
#909 = EDGE_LOOP ( 'NONE', ( #231, #594 ) ) ;
#910 = CARTESIAN_POINT ( 'NONE',  ( 0.2353988335256148312, 0.3346456692913385988, -0.01968503937011747279 ) ) ;
#911 = VERTEX_POINT ( 'NONE', #553 ) ;
#912 = EDGE_CURVE ( 'NONE', #614, #735, #461, .T. ) ;
#913 = DIRECTION ( 'NONE',  ( -0.000000000000000000, -1.000000000000000000, -0.000000000000000000 ) ) ;
#914 = CARTESIAN_POINT ( 'NONE',  ( 0.000000000000000000, 0.3543307086614173596, 0.000000000000000000 ) ) ;
#915 = ORIENTED_EDGE ( 'NONE', *, *, #552, .F. ) ;
ENDSEC;
END-ISO-10303-21;
